<svg id="svg" version="1.1" xmlns="http://www.w3.org/2000/svg" xmlns:xlink="http://www.w3.org/1999/xlink" width="400" height="154.6511627906977" viewBox="0, 0, 400,154.6511627906977"><g id="svgg"><path id="path0" d="M313.976 28.612 C 313.714 28.681,313.333 29.773,313.333 30.454 C 313.333 30.641,313.139 30.834,312.833 30.949 C 312.466 31.088,312.328 31.252,312.313 31.569 C 312.301 31.806,312.273 32.075,312.250 32.167 C 312.227 32.258,312.199 32.516,312.188 32.739 C 312.172 33.049,312.061 33.157,311.715 33.197 C 311.209 33.256,311.044 33.630,311.017 34.781 C 311.002 35.412,310.957 35.483,310.543 35.531 C 310.238 35.566,310.069 35.694,310.035 35.917 C 309.961 36.390,309.638 37.000,309.460 37.000 C 309.169 37.000,308.912 37.422,308.857 37.989 C 308.784 38.746,308.552 39.333,308.326 39.333 C 308.103 39.333,307.751 39.688,307.747 39.917 C 307.737 40.412,307.463 41.333,307.326 41.333 C 306.961 41.333,306.500 42.023,306.500 42.570 C 306.500 43.337,306.354 43.667,306.016 43.667 C 305.554 43.667,305.333 44.023,305.333 44.770 C 305.333 45.667,305.202 46.000,304.849 46.000 C 304.363 46.000,304.167 46.369,304.167 47.283 C 304.167 47.769,304.092 48.176,304.000 48.188 C 303.908 48.199,303.758 48.227,303.667 48.250 C 303.575 48.273,303.387 48.301,303.250 48.313 C 303.080 48.327,303.000 48.517,303.000 48.905 C 303.000 49.331,302.915 49.505,302.666 49.583 C 302.238 49.719,301.996 50.181,301.849 51.145 C 301.778 51.607,301.651 51.900,301.532 51.875 C 301.423 51.852,301.333 51.950,301.333 52.093 C 301.333 52.236,301.269 52.313,301.191 52.265 C 300.981 52.135,300.667 52.930,300.667 53.591 C 300.667 54.050,300.601 54.167,300.343 54.167 C 299.870 54.167,299.500 54.804,299.500 55.620 C 299.500 56.213,299.446 56.333,299.179 56.333 C 298.604 56.333,298.333 56.791,298.333 57.762 C 298.333 58.455,298.275 58.667,298.083 58.667 C 297.326 58.667,297.167 58.902,297.167 60.020 C 297.167 60.931,297.140 61.000,296.783 61.000 C 296.275 61.000,296.000 61.299,296.000 61.853 C 296.000 62.195,295.879 62.359,295.500 62.527 C 295.225 62.648,294.991 62.842,294.979 62.957 C 294.968 63.072,294.940 63.242,294.917 63.333 C 294.894 63.425,294.866 63.753,294.854 64.063 C 294.837 64.523,294.741 64.664,294.333 64.833 C 294.058 64.947,293.822 65.163,293.808 65.312 C 293.794 65.461,293.765 65.658,293.744 65.750 C 293.723 65.842,293.696 66.144,293.686 66.423 C 293.671 66.815,293.586 66.935,293.308 66.956 C 292.763 66.997,292.619 67.238,292.535 68.244 C 292.468 69.057,292.416 69.167,292.096 69.167 C 291.527 69.167,291.333 69.495,291.333 70.461 C 291.333 71.268,291.276 71.410,290.750 71.906 C 290.290 72.340,290.167 72.585,290.167 73.067 C 290.167 73.403,289.984 74.038,289.761 74.478 C 288.421 77.123,288.344 78.326,289.456 79.256 L 290.246 79.917 294.632 79.973 C 299.306 80.032,301.058 79.892,302.913 79.310 C 304.303 78.874,305.621 79.187,305.333 79.886 C 305.250 80.086,305.024 80.925,304.831 81.750 C 304.638 82.575,304.376 83.475,304.248 83.750 C 304.120 84.025,303.881 84.847,303.716 85.577 C 303.080 88.394,300.841 88.792,287.333 88.488 C 284.066 88.414,282.929 88.442,282.417 88.610 C 282.050 88.730,281.589 88.830,281.393 88.831 C 281.008 88.834,280.833 89.124,280.833 89.764 C 280.833 90.054,280.741 90.167,280.504 90.167 C 280.070 90.167,279.667 90.966,279.667 91.825 C 279.667 92.374,279.608 92.500,279.354 92.500 C 278.889 92.500,278.667 92.866,278.554 93.816 C 278.499 94.284,278.389 94.676,278.310 94.688 C 278.231 94.699,278.075 94.718,277.963 94.729 C 277.642 94.762,277.338 95.518,277.336 96.292 C 277.334 96.919,277.289 97.000,276.950 97.000 C 276.351 97.000,276.167 97.322,276.167 98.367 C 276.167 99.264,276.139 99.333,275.783 99.333 C 275.295 99.333,275.000 99.628,275.000 100.117 C 275.000 100.727,273.932 100.669,273.633 100.042 C 273.450 99.656,273.265 99.560,272.473 99.434 C 271.632 99.300,271.522 99.236,271.441 98.831 C 271.345 98.348,270.877 98.167,269.729 98.167 C 269.242 98.167,269.167 98.111,269.167 97.756 C 269.167 97.222,268.730 97.000,267.678 97.000 C 266.891 97.000,266.833 96.972,266.833 96.589 C 266.833 96.055,266.397 95.833,265.344 95.833 C 264.574 95.833,264.500 95.800,264.500 95.450 C 264.500 94.938,264.200 94.667,263.633 94.667 C 263.281 94.667,263.167 94.587,263.167 94.339 C 263.167 93.919,262.700 93.675,261.662 93.552 C 261.147 93.491,260.833 93.372,260.833 93.239 C 260.833 92.824,260.341 92.539,259.425 92.425 C 258.669 92.330,258.500 92.252,258.500 91.994 C 258.500 91.601,258.061 91.358,257.120 91.229 C 256.523 91.147,256.361 91.047,256.220 90.673 C 256.047 90.216,254.613 89.807,254.161 90.087 C 254.073 90.142,254.000 90.004,254.000 89.780 C 254.000 89.200,253.690 89.015,252.515 88.892 C 251.690 88.806,251.396 88.693,251.058 88.335 C 250.670 87.924,250.462 87.873,249.625 87.983 C 249.556 87.993,249.500 88.188,249.500 88.417 C 249.500 88.716,249.410 88.833,249.180 88.833 C 248.584 88.833,248.333 89.029,248.333 89.494 C 248.333 89.868,248.234 89.980,247.792 90.106 C 247.343 90.234,247.241 90.353,247.198 90.797 C 247.159 91.192,247.063 91.333,246.832 91.333 C 246.373 91.333,246.000 91.976,246.000 92.769 C 246.000 93.430,245.972 93.468,245.417 93.572 C 244.914 93.667,244.833 93.747,244.833 94.150 C 244.833 94.536,244.738 94.646,244.292 94.773 C 243.819 94.908,243.743 95.007,243.698 95.555 C 243.655 96.074,243.593 96.166,243.344 96.087 C 242.977 95.970,242.500 96.854,242.500 97.650 C 242.500 98.078,242.434 98.167,242.117 98.167 C 241.632 98.167,241.333 98.461,241.333 98.937 C 241.333 99.212,241.206 99.335,240.833 99.417 C 240.468 99.497,240.307 99.647,240.236 99.972 C 240.075 100.710,240.008 100.858,239.874 100.775 C 239.555 100.578,239.150 101.173,239.055 101.981 C 238.960 102.776,238.922 102.833,238.495 102.833 C 238.029 102.833,237.833 103.084,237.833 103.680 C 237.833 103.873,237.717 104.001,237.542 104.003 C 236.974 104.008,236.732 104.317,236.679 105.107 C 236.672 105.212,236.483 105.343,236.257 105.400 C 235.842 105.504,235.503 106.277,235.501 107.125 C 235.500 107.383,235.400 107.500,235.180 107.500 C 234.574 107.500,234.333 107.694,234.333 108.184 C 234.333 108.545,234.254 108.667,234.020 108.667 C 233.638 108.667,233.397 108.939,233.245 109.543 C 233.170 109.842,233.020 110.000,232.811 110.000 C 232.457 110.000,232.185 110.548,232.045 111.542 C 231.973 112.045,231.885 112.167,231.595 112.167 C 231.127 112.167,230.833 112.469,230.833 112.950 C 230.833 113.214,230.736 113.333,230.520 113.333 C 230.140 113.333,229.897 113.605,229.748 114.200 C 229.676 114.486,229.505 114.666,229.276 114.699 C 229.078 114.727,228.910 114.825,228.903 114.917 C 228.895 115.008,228.801 115.294,228.694 115.553 C 228.587 115.811,228.500 116.204,228.500 116.428 C 228.500 116.740,228.412 116.833,228.117 116.833 C 227.628 116.833,227.333 117.128,227.333 117.617 C 227.333 117.828,227.258 118.009,227.167 118.021 C 226.482 118.106,226.355 118.286,226.236 119.338 C 226.129 120.287,226.102 120.333,225.663 120.333 C 225.195 120.333,225.000 120.583,225.000 121.180 C 225.000 121.422,224.882 121.500,224.518 121.500 C 224.028 121.500,223.833 121.740,223.833 122.347 C 223.833 122.549,223.718 122.667,223.520 122.667 C 223.060 122.667,222.854 123.005,222.711 123.998 C 222.614 124.672,222.510 124.896,222.279 124.930 C 221.655 125.021,221.500 125.167,221.500 125.661 C 221.500 126.091,221.437 126.167,221.078 126.167 C 220.465 126.167,220.363 126.602,220.373 129.167 C 220.385 132.369,220.436 132.662,221.020 132.865 C 221.471 133.022,221.501 133.090,221.510 133.975 C 221.526 135.606,221.698 136.223,222.167 136.333 C 222.489 136.409,222.608 136.577,222.707 137.090 C 222.777 137.453,222.866 137.862,222.905 138.000 C 222.943 138.137,222.980 138.291,222.987 138.342 C 222.994 138.392,223.265 138.529,223.588 138.646 C 223.911 138.762,224.165 138.946,224.151 139.054 C 224.095 139.509,224.181 139.697,224.406 139.611 C 224.537 139.560,224.670 139.594,224.701 139.687 C 224.732 139.779,225.074 139.897,225.462 139.949 C 226.062 140.030,226.167 140.102,226.167 140.433 C 226.167 140.949,226.622 141.167,227.704 141.167 C 228.497 141.167,228.599 141.206,228.623 141.525 C 228.674 142.205,228.887 142.246,232.632 142.303 C 236.771 142.365,237.525 142.269,237.668 141.660 C 237.760 141.265,237.829 141.246,239.507 141.145 C 240.466 141.088,241.341 141.032,241.452 141.020 C 241.713 140.994,242.344 140.318,242.249 140.166 C 242.209 140.101,242.891 140.006,243.764 139.954 C 245.400 139.856,245.833 139.687,245.833 139.146 C 245.833 138.863,245.979 138.833,247.375 138.831 C 249.099 138.828,249.259 138.773,249.422 138.123 L 249.536 137.667 251.226 137.654 C 253.568 137.636,254.000 137.505,254.000 136.813 C 254.000 136.531,254.142 136.500,255.428 136.500 C 257.050 136.500,257.500 136.336,257.500 135.744 C 257.500 135.336,257.511 135.333,259.089 135.333 C 260.846 135.333,261.807 135.054,261.951 134.502 C 262.030 134.200,262.185 134.165,263.519 134.146 C 264.334 134.134,265.094 134.116,265.208 134.104 C 265.323 134.093,265.488 133.840,265.576 133.542 L 265.736 133.000 267.223 133.000 C 269.076 133.000,269.939 132.766,270.074 132.227 C 270.169 131.849,270.234 131.833,271.712 131.831 C 273.432 131.828,273.592 131.773,273.755 131.123 C 273.869 130.667,273.871 130.667,275.401 130.667 C 277.033 130.667,277.333 130.545,277.333 129.883 C 277.333 129.505,277.361 129.500,279.261 129.500 C 281.370 129.500,281.833 129.365,281.833 128.750 C 281.833 128.351,281.857 128.344,283.536 128.297 L 285.238 128.250 285.393 127.708 L 285.548 127.167 287.316 127.164 C 289.537 127.162,289.824 127.087,289.945 126.484 L 290.039 126.012 291.645 125.964 L 293.250 125.917 293.488 125.375 L 293.727 124.833 295.176 124.833 C 297.169 124.833,297.656 124.713,297.981 124.142 C 298.241 123.684,298.294 123.669,299.583 123.665 C 301.399 123.661,301.667 123.574,301.667 122.986 L 301.667 122.512 303.375 122.464 L 305.083 122.417 305.136 121.875 L 305.188 121.333 307.249 121.333 C 309.432 121.333,309.833 121.203,309.833 120.494 C 309.833 120.208,309.993 120.174,311.542 120.131 L 313.250 120.083 313.302 119.542 L 313.354 119.000 315.386 118.997 C 317.613 118.995,317.754 118.955,317.920 118.296 C 318.032 117.849,318.048 117.845,319.642 117.798 L 321.250 117.750 321.409 117.208 L 321.569 116.667 323.218 116.667 C 324.907 116.667,326.000 116.374,326.000 115.920 C 326.000 115.774,326.475 115.687,327.594 115.629 C 329.261 115.541,329.500 115.447,329.544 114.858 C 329.568 114.537,329.669 114.500,330.515 114.500 C 331.571 114.500,332.531 114.167,332.869 113.684 C 332.993 113.507,333.317 113.337,333.589 113.306 C 333.982 113.261,334.116 113.140,334.243 112.708 C 334.357 112.321,334.501 112.167,334.751 112.167 C 335.202 112.167,335.500 111.862,335.500 111.400 C 335.500 111.146,335.647 110.981,335.976 110.867 C 336.479 110.691,336.667 110.200,336.667 109.063 C 336.667 108.623,336.735 108.500,336.980 108.500 C 337.595 108.500,337.698 108.093,337.790 105.294 C 337.885 102.429,337.740 99.935,337.488 100.091 C 337.405 100.142,337.382 100.068,337.436 99.925 C 337.510 99.732,337.425 99.667,337.101 99.667 C 336.689 99.667,336.666 99.621,336.659 98.792 C 336.638 96.530,336.520 96.081,335.917 95.973 C 335.615 95.919,335.573 95.737,335.474 94.035 C 335.364 92.140,335.105 91.333,334.604 91.333 C 334.444 91.333,334.356 90.922,334.286 89.838 C 334.195 88.434,334.031 87.784,333.777 87.818 C 333.218 87.894,333.167 87.814,333.167 86.867 C 333.167 85.614,332.454 85.002,331.847 85.734 C 331.740 85.862,331.450 86.016,331.201 86.076 C 330.953 86.135,330.435 86.407,330.050 86.679 C 329.629 86.978,328.966 87.245,328.384 87.352 C 327.852 87.449,327.192 87.630,326.917 87.754 C 325.806 88.253,324.911 88.358,321.000 88.442 C 318.754 88.491,316.626 88.604,316.270 88.694 L 315.623 88.858 315.716 89.642 C 315.898 91.175,315.845 91.139,317.875 91.155 L 319.333 91.167 319.333 91.663 C 319.333 92.070,319.417 92.179,319.792 92.261 C 320.574 92.432,320.691 92.492,320.583 92.667 C 320.526 92.760,320.708 92.967,320.988 93.127 C 321.412 93.368,321.609 93.672,321.472 93.875 C 321.336 94.076,321.921 94.667,322.256 94.667 L 322.667 94.667 322.667 97.000 C 322.667 99.324,322.665 99.333,322.283 99.333 C 321.795 99.333,321.500 99.628,321.500 100.117 C 321.500 100.413,321.407 100.500,321.089 100.500 C 320.527 100.500,320.333 100.943,320.333 102.229 L 320.333 103.314 319.875 103.074 C 319.272 102.760,316.287 102.737,316.031 103.046 C 315.934 103.163,315.822 103.481,315.782 103.754 C 315.733 104.087,315.634 104.223,315.480 104.167 C 315.353 104.121,314.031 104.061,312.542 104.034 L 309.833 103.984 309.833 102.826 L 309.833 101.667 311.708 101.650 C 314.396 101.626,314.412 101.619,314.440 100.409 C 314.468 99.197,314.152 98.333,313.681 98.333 C 313.369 98.333,313.342 98.211,313.297 96.625 L 313.250 94.917 312.715 94.759 C 312.191 94.605,312.179 94.580,312.132 93.509 L 312.083 92.417 310.958 92.367 C 309.997 92.325,309.833 92.274,309.833 92.013 C 309.833 91.549,309.488 91.354,308.447 91.232 C 307.552 91.127,307.500 91.096,307.500 90.662 C 307.500 90.270,307.415 90.188,306.917 90.094 C 306.384 89.994,306.333 89.935,306.333 89.409 C 306.333 88.907,306.280 88.833,305.921 88.833 C 304.590 88.833,305.001 84.705,306.532 82.686 C 306.698 82.467,306.833 82.180,306.833 82.048 C 306.833 81.645,307.772 80.833,308.237 80.833 C 308.566 80.833,308.671 80.745,308.686 80.458 C 308.701 80.176,308.724 80.156,308.782 80.375 C 308.848 80.628,309.077 80.667,310.512 80.667 L 312.167 80.667 312.193 79.292 C 312.208 78.535,312.252 78.179,312.290 78.499 C 312.406 79.460,312.504 79.500,314.760 79.500 L 316.813 79.500 316.865 80.122 C 316.938 80.998,317.813 81.187,321.523 81.128 L 324.297 81.083 325.051 80.542 C 325.465 80.244,325.877 80.000,325.965 80.000 C 326.900 80.000,327.588 76.744,326.901 75.571 C 326.304 74.554,326.531 74.605,322.083 74.483 C 318.154 74.374,318.058 74.363,316.667 73.855 C 315.887 73.571,315.091 73.337,314.897 73.336 C 314.385 73.332,312.894 72.055,312.582 71.352 C 312.435 71.021,312.215 70.563,312.091 70.333 C 311.528 69.285,311.333 68.100,311.333 65.730 C 311.333 63.326,311.235 62.931,310.738 63.344 C 310.601 63.457,310.098 63.748,309.620 63.991 C 309.141 64.234,308.488 64.597,308.169 64.797 C 307.609 65.148,307.576 65.150,307.287 64.861 C 306.967 64.541,306.995 64.473,308.417 62.157 C 308.600 61.859,308.877 61.391,309.031 61.119 C 309.186 60.846,309.490 60.427,309.706 60.187 C 309.922 59.946,310.208 59.533,310.341 59.267 C 310.474 59.002,311.220 58.228,311.999 57.548 C 314.022 55.784,314.171 55.667,314.406 55.667 C 314.522 55.667,314.947 55.444,315.350 55.171 C 315.789 54.874,316.585 54.564,317.333 54.399 C 318.021 54.247,318.862 53.982,319.202 53.811 C 319.542 53.640,320.139 53.500,320.529 53.500 C 320.920 53.500,321.541 53.392,321.911 53.261 C 322.281 53.129,322.858 52.977,323.193 52.923 C 323.971 52.797,323.909 51.958,323.114 51.864 L 322.667 51.811 322.667 50.334 C 322.667 48.777,322.483 48.333,321.839 48.333 C 321.565 48.333,321.529 48.137,321.476 46.359 C 321.421 44.543,321.185 43.593,320.867 43.911 C 320.552 44.226,320.333 43.509,320.333 42.158 C 320.333 40.600,320.150 40.167,319.488 40.167 C 319.192 40.167,319.167 40.035,319.167 38.518 C 319.167 36.779,319.115 36.667,318.320 36.667 C 318.024 36.667,318.000 36.530,318.000 34.844 C 318.000 32.755,317.865 32.253,317.262 32.101 C 316.840 31.995,316.833 31.969,316.833 30.447 C 316.833 29.466,316.760 28.827,316.633 28.700 C 316.443 28.509,314.593 28.448,313.976 28.612 M284.533 53.279 C 283.878 53.602,283.585 54.124,283.426 55.250 C 283.361 55.708,283.100 56.533,282.845 57.083 C 282.590 57.633,282.330 58.496,282.267 59.000 C 282.204 59.504,281.973 60.292,281.753 60.750 C 281.533 61.208,281.231 62.146,281.083 62.833 C 280.935 63.521,280.697 64.262,280.554 64.481 C 280.412 64.700,280.159 65.531,279.992 66.328 C 279.826 67.124,279.541 68.033,279.360 68.346 C 279.178 68.660,278.942 69.367,278.833 69.917 C 278.725 70.467,278.467 71.217,278.261 71.583 C 278.055 71.950,277.757 72.737,277.600 73.333 C 277.442 73.929,277.046 74.953,276.720 75.608 C 276.043 76.969,276.041 77.611,276.718 76.457 C 276.965 76.035,277.167 75.611,277.167 75.514 C 277.167 75.320,278.245 72.592,278.507 72.124 C 278.597 71.963,278.893 71.223,279.164 70.480 C 279.435 69.737,279.728 69.044,279.814 68.939 C 279.900 68.835,280.095 68.267,280.248 67.677 C 280.401 67.086,280.664 66.333,280.832 66.002 C 281.001 65.672,281.194 65.105,281.261 64.742 C 281.329 64.380,281.567 63.596,281.791 63.000 C 282.014 62.404,282.262 61.617,282.341 61.250 C 282.420 60.883,282.679 60.021,282.917 59.333 C 283.155 58.646,283.455 57.663,283.584 57.149 C 283.863 56.036,284.605 54.026,284.841 53.741 C 284.944 53.617,285.640 53.512,286.629 53.471 C 287.521 53.434,288.400 53.315,288.583 53.207 C 289.159 52.867,285.226 52.937,284.533 53.279 M248.796 61.638 C 248.385 62.092,248.134 62.609,247.923 63.430 C 247.579 64.771,246.866 67.161,246.045 69.722 C 245.344 71.908,245.458 73.838,246.288 73.831 C 246.526 73.829,246.537 73.799,246.348 73.679 C 246.035 73.481,246.061 72.242,246.396 71.439 C 246.540 71.096,246.773 70.205,246.914 69.460 C 247.056 68.714,247.272 67.987,247.394 67.844 C 247.620 67.578,247.847 66.795,248.165 65.178 C 248.263 64.680,248.416 64.184,248.506 64.076 C 248.596 63.968,248.842 63.330,249.053 62.660 C 249.400 61.554,249.490 61.420,250.010 61.233 L 250.583 61.025 249.978 61.013 C 249.479 61.002,249.270 61.113,248.796 61.638 M250.803 61.214 C 251.348 61.870,251.037 65.207,250.318 66.421 C 250.154 66.698,249.890 67.598,249.732 68.421 C 249.574 69.243,249.317 70.104,249.162 70.333 C 249.006 70.563,248.750 71.336,248.592 72.052 C 248.394 72.952,248.220 73.381,248.028 73.439 C 247.059 73.735,246.841 74.333,247.703 74.333 C 248.366 74.333,249.211 72.953,249.743 71.000 C 250.022 69.978,250.567 68.135,251.580 64.788 L 252.023 63.326 251.665 62.289 C 251.467 61.719,251.218 61.197,251.111 61.129 C 250.798 60.930,250.611 60.982,250.803 61.214 M236.851 61.396 C 236.728 61.543,236.702 62.118,236.773 63.115 C 236.874 64.536,236.857 64.651,236.430 65.378 C 236.168 65.826,235.908 66.617,235.805 67.281 C 235.708 67.905,235.454 68.763,235.240 69.185 C 235.026 69.608,234.765 70.470,234.660 71.102 C 234.555 71.733,234.286 72.609,234.063 73.048 C 233.840 73.487,233.553 74.443,233.425 75.173 C 233.298 75.903,233.035 76.757,232.841 77.070 C 232.648 77.384,232.382 78.249,232.251 78.994 C 232.120 79.738,231.873 80.550,231.701 80.798 C 231.529 81.047,231.295 81.813,231.180 82.500 C 231.065 83.188,230.816 84.050,230.627 84.417 C 230.249 85.150,229.848 86.781,229.839 87.621 C 229.830 88.426,230.280 88.624,232.417 88.760 C 234.636 88.901,234.633 88.730,232.412 88.420 C 230.317 88.128,230.204 88.018,230.668 86.734 C 230.863 86.193,231.105 85.450,231.204 85.083 C 231.430 84.252,231.927 82.580,232.144 81.917 C 232.332 81.344,233.216 78.472,234.068 75.667 C 234.388 74.612,234.812 73.150,235.010 72.417 C 235.207 71.683,235.428 71.008,235.499 70.917 C 235.571 70.825,235.796 70.075,235.999 69.250 C 236.202 68.425,236.504 67.412,236.670 67.000 C 236.836 66.587,237.099 65.725,237.255 65.083 C 237.411 64.442,237.643 63.680,237.770 63.391 C 238.057 62.737,238.070 61.563,237.792 61.390 C 237.430 61.164,237.041 61.166,236.851 61.396 M323.167 61.948 C 322.938 61.993,322.600 62.157,322.417 62.314 C 322.233 62.470,321.876 62.702,321.623 62.829 C 320.316 63.482,319.989 65.374,320.995 66.458 L 321.653 67.167 323.868 67.166 C 325.087 67.165,326.365 67.087,326.708 66.991 L 327.333 66.818 327.333 65.763 C 327.333 64.414,326.957 63.438,326.494 63.585 C 326.202 63.678,326.167 63.609,326.167 62.939 C 326.167 62.367,326.097 62.170,325.875 62.107 C 325.381 61.967,323.607 61.863,323.167 61.948 M262.257 67.011 C 262.312 67.100,262.421 67.132,262.500 67.083 C 262.579 67.035,262.691 67.071,262.748 67.164 C 262.806 67.257,262.939 67.333,263.043 67.333 C 263.173 67.333,263.179 67.279,263.063 67.163 C 262.837 66.937,262.129 66.804,262.257 67.011 M261.940 67.417 C 261.887 67.554,261.663 67.667,261.442 67.667 C 261.100 67.667,260.987 67.820,260.675 68.708 C 260.475 69.281,260.175 70.125,260.009 70.583 C 259.844 71.042,259.581 72.017,259.425 72.750 C 259.269 73.483,258.997 74.576,258.821 75.178 C 258.445 76.460,258.395 78.204,258.723 78.533 C 258.846 78.655,259.352 79.032,259.848 79.370 L 260.750 79.984 263.750 80.088 C 268.234 80.242,271.936 79.986,273.452 79.417 C 274.832 78.899,275.490 78.362,274.500 78.561 C 274.179 78.626,273.354 78.756,272.667 78.851 C 271.979 78.946,271.154 79.178,270.833 79.366 C 269.969 79.875,261.252 79.903,260.883 79.399 C 260.757 79.227,260.417 78.973,260.128 78.835 C 259.425 78.499,259.246 77.783,259.479 76.250 C 259.576 75.608,259.700 74.671,259.754 74.167 C 259.809 73.662,260.041 72.864,260.271 72.392 C 260.501 71.921,260.768 71.000,260.865 70.347 C 261.015 69.340,261.127 69.073,261.604 68.596 C 261.955 68.245,262.167 67.870,262.167 67.600 C 262.167 67.113,262.082 67.045,261.940 67.417 M228.447 73.461 C 227.872 78.225,226.470 82.272,224.875 83.769 C 224.669 83.963,224.500 84.207,224.500 84.311 C 224.500 84.415,224.440 84.500,224.366 84.500 C 224.292 84.500,223.936 84.774,223.574 85.108 C 222.472 86.128,220.355 87.333,219.666 87.333 C 219.497 87.333,219.129 87.527,218.847 87.764 C 218.566 88.001,218.054 88.335,217.709 88.507 C 216.991 88.866,217.308 88.929,218.422 88.648 C 218.827 88.546,219.348 88.287,219.579 88.073 C 219.834 87.836,220.393 87.606,221.004 87.486 C 221.798 87.330,222.081 87.188,222.349 86.811 C 222.536 86.548,222.823 86.333,222.986 86.333 C 223.311 86.333,223.833 85.837,223.833 85.529 C 223.833 85.421,223.950 85.333,224.093 85.333 C 224.399 85.333,225.946 83.765,226.092 83.307 C 226.147 83.132,226.368 82.813,226.583 82.598 C 226.798 82.383,227.068 81.879,227.183 81.479 C 227.297 81.078,227.488 80.634,227.608 80.492 C 227.963 80.069,228.333 78.841,228.333 78.089 C 228.333 77.702,228.445 77.018,228.582 76.568 C 228.849 75.685,228.927 72.911,228.688 72.763 C 228.607 72.713,228.499 73.028,228.447 73.461 M307.757 79.125 C 307.816 79.391,307.960 79.500,308.253 79.500 C 308.481 79.500,308.667 79.583,308.667 79.684 C 308.667 79.786,308.548 79.823,308.403 79.768 C 308.258 79.712,307.996 79.667,307.820 79.667 C 307.539 79.667,307.503 79.551,307.525 78.708 C 307.539 78.181,307.578 77.975,307.612 78.250 C 307.647 78.525,307.712 78.919,307.757 79.125 " stroke="none" fill="#bbbbc3" fill-rule="evenodd"></path><path id="path1" d="M70.223 53.155 C 69.933 53.332,69.633 53.584,69.556 53.714 C 69.474 53.854,69.020 53.991,68.447 54.048 C 67.389 54.154,67.000 54.371,67.000 54.854 C 67.000 55.101,66.876 55.167,66.413 55.167 C 65.954 55.167,65.793 55.250,65.680 55.549 C 65.488 56.054,65.200 56.270,64.526 56.414 C 64.137 56.497,63.868 56.704,63.635 57.100 C 63.451 57.412,63.193 57.667,63.061 57.667 C 62.930 57.667,62.672 57.921,62.488 58.232 C 62.305 58.543,62.007 58.836,61.825 58.884 C 61.460 58.979,61.000 59.923,61.000 60.578 C 61.000 60.934,60.923 61.000,60.508 61.000 C 60.078 61.000,60.001 61.074,59.908 61.573 C 59.827 62.002,59.684 62.186,59.335 62.308 C 58.916 62.454,58.858 62.570,58.753 63.475 C 58.645 64.405,58.603 64.485,58.193 64.532 C 57.674 64.592,57.472 65.960,57.847 66.867 C 58.287 67.928,60.530 68.276,60.858 67.333 C 60.966 67.025,61.149 66.833,61.336 66.833 C 61.926 66.833,62.167 66.635,62.167 66.149 C 62.167 65.709,62.218 65.667,62.750 65.667 L 63.333 65.667 63.333 66.822 C 63.333 67.959,63.326 67.979,62.876 68.031 C 62.332 68.093,62.216 68.472,62.186 70.288 C 62.168 71.418,62.141 71.500,61.762 71.595 C 61.200 71.736,61.144 71.956,61.043 74.454 C 60.955 76.601,60.941 76.670,60.481 77.121 L 60.009 77.583 60.005 80.139 L 60.000 82.696 60.500 82.884 C 60.987 83.068,61.001 83.103,61.020 84.245 C 61.050 86.028,61.167 86.407,61.709 86.469 C 62.093 86.514,62.167 86.601,62.167 87.016 C 62.167 87.336,62.270 87.547,62.458 87.615 C 62.822 87.746,63.232 88.159,63.378 88.542 C 63.449 88.726,63.666 88.833,63.971 88.833 C 64.371 88.833,64.478 88.925,64.607 89.375 L 64.762 89.917 68.171 90.000 C 71.415 90.079,71.582 90.099,71.637 90.417 C 71.760 91.124,72.029 91.167,76.335 91.167 L 80.439 91.167 80.955 90.583 L 81.472 90.000 85.063 90.000 C 89.064 90.000,89.000 90.019,89.000 88.817 C 89.000 88.427,89.141 88.154,89.512 87.822 C 89.999 87.388,90.030 87.285,90.118 85.797 C 90.208 84.303,90.233 84.218,90.673 83.965 C 91.172 83.679,91.434 82.244,91.305 80.502 C 91.231 79.493,91.203 79.490,84.167 79.614 C 77.197 79.736,74.894 79.621,74.742 79.142 C 74.685 78.962,74.438 78.738,74.194 78.644 L 73.750 78.474 74.267 78.256 C 74.839 78.014,74.995 77.508,74.998 75.882 L 75.000 75.014 81.661 74.966 C 89.503 74.908,88.813 75.114,88.952 72.787 C 89.034 71.424,89.092 71.182,89.355 71.113 C 89.898 70.971,90.393 68.425,90.103 67.269 L 89.994 66.833 83.705 66.808 C 80.246 66.795,77.615 66.753,77.858 66.716 C 78.362 66.638,78.494 66.309,78.498 65.125 C 78.500 64.462,78.551 64.333,78.813 64.333 C 79.175 64.333,79.438 64.057,79.526 63.585 C 79.559 63.403,79.736 63.226,79.919 63.192 C 80.391 63.105,80.667 62.842,80.667 62.480 C 80.667 62.178,80.942 62.167,88.208 62.166 C 97.494 62.165,97.167 62.280,97.167 59.022 C 97.167 58.095,97.205 57.994,97.706 57.602 L 98.246 57.179 98.248 55.048 L 98.250 52.917 84.500 52.875 C 71.166 52.835,70.734 52.843,70.223 53.155 M114.224 53.074 C 113.935 53.201,113.649 53.460,113.588 53.652 C 113.521 53.864,113.335 54.001,113.114 54.003 C 112.600 54.006,112.377 54.186,112.248 54.700 C 112.166 55.024,112.013 55.162,111.693 55.199 C 111.359 55.237,111.212 55.380,111.095 55.777 C 110.980 56.166,110.817 56.328,110.470 56.398 C 110.148 56.462,110.000 56.594,110.000 56.816 C 110.000 57.314,109.821 57.667,109.569 57.667 C 109.237 57.667,108.867 58.313,108.739 59.116 C 108.644 59.711,108.562 59.823,108.191 59.866 C 107.809 59.910,107.739 60.018,107.617 60.749 C 107.477 61.588,107.121 62.167,106.743 62.167 C 106.630 62.167,106.487 62.433,106.426 62.758 C 106.348 63.176,106.195 63.394,105.903 63.505 C 105.441 63.681,105.401 63.765,105.254 64.865 C 105.161 65.558,105.099 65.652,104.701 65.698 C 104.302 65.744,104.240 65.839,104.138 66.557 C 104.021 67.380,103.628 68.000,103.224 68.000 C 103.080 68.000,103.000 68.203,103.000 68.565 C 103.000 69.042,102.929 69.148,102.543 69.245 C 101.938 69.397,101.839 69.589,101.836 70.614 C 101.833 71.467,101.826 71.480,101.292 71.531 C 100.778 71.581,100.747 71.622,100.697 72.333 C 100.644 73.096,100.164 73.833,99.721 73.833 C 99.579 73.833,99.500 74.044,99.500 74.421 C 99.500 74.895,99.419 75.039,99.080 75.168 C 98.605 75.348,98.333 75.924,98.333 76.750 C 98.333 77.262,98.285 77.317,97.792 77.364 C 97.278 77.414,97.247 77.455,97.198 78.167 C 97.150 78.876,96.592 79.667,96.141 79.667 C 96.063 79.667,96.000 79.917,96.000 80.223 C 96.000 80.656,95.907 80.822,95.580 80.971 C 95.101 81.189,94.833 81.767,94.833 82.584 C 94.833 83.096,94.785 83.150,94.292 83.198 C 93.751 83.250,93.750 83.252,93.701 84.275 C 93.652 85.298,93.651 85.299,93.076 85.407 C 92.554 85.505,92.500 85.568,92.500 86.080 C 92.500 86.519,92.417 86.670,92.125 86.761 C 91.640 86.912,91.506 87.131,91.503 87.771 C 91.498 88.762,91.408 88.750,98.771 88.750 C 106.515 88.750,106.136 88.829,106.294 87.181 C 106.343 86.670,106.456 86.333,106.579 86.333 C 106.985 86.333,107.383 85.658,107.462 84.835 C 107.525 84.181,107.606 84.000,107.834 84.000 C 108.291 84.000,108.514 83.600,108.618 82.595 C 108.691 81.880,108.777 81.667,108.990 81.667 C 109.353 81.667,109.667 81.342,109.667 80.967 C 109.667 80.687,109.914 80.667,113.333 80.667 L 117.000 80.667 117.000 84.577 C 117.000 88.273,117.018 88.498,117.322 88.661 C 117.528 88.771,119.831 88.833,123.656 88.833 L 129.668 88.833 129.626 70.875 L 129.583 52.917 122.167 52.881 C 116.171 52.851,114.649 52.889,114.224 53.074 M142.708 52.943 C 142.594 52.989,142.500 53.097,142.500 53.181 C 142.500 53.620,141.804 54.000,141.000 54.000 C 140.542 54.000,140.167 54.063,140.167 54.140 C 140.167 54.217,139.979 54.365,139.750 54.470 C 139.521 54.574,139.333 54.774,139.333 54.913 C 139.333 55.089,139.165 55.167,138.783 55.167 C 138.142 55.167,137.833 55.417,137.833 55.939 C 137.833 56.238,137.726 56.323,137.292 56.364 C 136.818 56.410,136.744 56.483,136.699 56.949 C 136.654 57.412,136.578 57.487,136.115 57.532 C 135.650 57.577,135.577 57.651,135.531 58.125 C 135.493 58.524,135.397 58.667,135.168 58.667 C 134.688 58.667,134.333 59.132,134.333 59.762 C 134.333 60.336,133.984 60.843,133.446 61.049 C 133.270 61.117,133.167 61.343,133.167 61.661 C 133.167 61.999,133.084 62.167,132.917 62.167 C 132.206 62.167,132.000 62.746,132.000 64.747 L 132.000 66.660 132.431 66.768 C 132.864 66.877,134.937 66.725,135.195 66.566 C 135.271 66.519,135.344 66.279,135.356 66.032 C 135.369 65.785,135.432 66.049,135.497 66.617 C 135.597 67.494,135.695 67.721,136.141 68.113 C 136.648 68.557,136.667 68.623,136.673 69.912 C 136.679 71.235,136.686 71.254,137.215 71.586 C 137.648 71.857,137.760 72.048,137.804 72.583 C 137.878 73.492,138.046 73.637,139.182 73.765 C 139.966 73.854,140.167 73.936,140.167 74.168 C 140.167 74.870,140.477 74.914,145.775 74.971 C 150.682 75.024,150.833 75.036,150.833 75.355 C 150.833 75.571,151.005 75.744,151.333 75.858 C 152.104 76.127,152.115 78.369,151.347 78.637 C 151.029 78.748,150.841 78.941,150.805 79.195 C 150.754 79.552,150.659 79.587,149.619 79.633 C 148.515 79.681,148.486 79.694,148.390 80.174 L 148.292 80.667 140.919 80.667 C 136.864 80.667,133.199 80.714,132.773 80.773 L 132.000 80.879 132.000 82.023 C 132.000 83.135,131.988 83.167,131.579 83.167 C 131.012 83.167,130.833 83.690,130.833 85.348 C 130.833 86.598,130.810 86.685,130.420 86.862 C 129.635 87.220,129.681 88.160,130.504 88.585 C 131.089 88.888,155.167 88.968,155.167 88.667 C 155.167 88.575,155.277 88.500,155.413 88.500 C 155.548 88.500,155.782 88.313,155.932 88.083 C 156.146 87.757,156.346 87.667,156.853 87.667 C 157.279 87.667,157.500 87.591,157.500 87.446 C 157.500 87.077,158.243 86.500,158.719 86.500 C 159.246 86.500,159.833 85.973,159.833 85.500 C 159.833 85.285,159.944 85.167,160.146 85.167 C 160.611 85.167,160.833 84.801,160.946 83.851 C 161.040 83.058,161.078 83.000,161.505 83.000 C 162.058 83.000,162.167 82.765,162.167 81.570 C 162.167 80.739,162.197 80.667,162.550 80.667 C 163.213 80.667,163.333 80.367,163.333 78.717 C 163.333 77.180,163.337 77.167,163.744 77.167 C 164.434 77.167,164.534 76.708,164.473 73.835 C 164.415 71.113,164.249 70.500,163.568 70.500 C 163.440 70.500,163.332 70.246,163.302 69.875 C 163.255 69.304,163.203 69.245,162.708 69.198 C 162.212 69.150,162.167 69.097,162.167 68.573 C 162.167 68.016,162.148 68.000,161.500 68.000 C 160.959 68.000,160.833 67.941,160.833 67.687 C 160.833 66.954,160.579 66.919,154.808 66.867 L 149.333 66.816 149.333 66.343 C 149.333 65.856,149.090 65.667,148.463 65.667 C 148.147 65.667,148.129 65.598,148.225 64.792 C 148.283 64.310,148.331 63.785,148.332 63.625 C 148.333 63.382,148.494 63.332,149.292 63.324 C 150.590 63.311,151.402 63.020,151.470 62.542 L 151.523 62.167 159.262 62.167 C 166.602 62.167,167.000 62.182,167.000 62.467 C 167.000 62.851,167.316 63.167,167.700 63.167 C 167.946 63.167,168.000 63.308,168.002 63.958 C 168.006 65.138,168.134 65.452,168.657 65.556 C 169.109 65.647,169.120 65.678,169.208 67.077 C 169.300 68.558,169.487 69.000,170.020 69.000 C 170.282 69.000,170.334 69.129,170.336 69.792 C 170.339 71.047,170.466 71.333,171.019 71.333 L 171.500 71.333 171.500 73.146 L 171.500 74.958 171.023 75.054 C 170.479 75.162,170.338 75.648,170.335 77.422 C 170.333 78.373,170.308 78.437,169.859 78.606 C 169.326 78.807,169.167 79.457,169.167 81.425 C 169.167 82.400,169.130 82.501,168.625 82.926 C 168.091 83.375,168.083 83.404,168.026 85.024 C 167.970 86.620,167.958 86.667,167.578 86.667 C 166.945 86.667,166.629 88.329,167.194 88.687 C 167.498 88.879,180.186 88.868,180.492 88.675 C 180.666 88.565,180.753 88.085,180.802 86.957 C 180.869 85.431,180.882 85.388,181.326 85.220 C 181.843 85.025,181.995 84.465,181.998 82.748 C 182.000 81.880,182.049 81.724,182.363 81.581 C 182.858 81.357,183.138 80.480,183.160 79.083 C 183.177 77.942,183.503 77.167,183.964 77.167 C 184.190 77.167,184.333 76.320,184.333 74.979 C 184.333 73.895,184.354 73.833,184.717 73.833 C 185.205 73.833,185.500 73.538,185.500 73.050 C 185.500 72.761,185.594 72.667,185.883 72.667 C 186.372 72.667,186.667 72.372,186.667 71.883 C 186.667 71.594,186.761 71.500,187.050 71.500 C 187.538 71.500,187.833 71.205,187.833 70.717 C 187.833 70.431,187.929 70.333,188.208 70.331 C 188.654 70.328,188.854 70.198,189.100 69.750 C 189.200 69.567,189.452 69.331,189.659 69.226 C 189.866 69.121,190.122 68.860,190.229 68.646 C 190.336 68.432,190.598 68.169,190.813 68.062 C 191.027 67.956,191.289 67.693,191.396 67.479 C 191.503 67.265,191.765 67.003,191.979 66.896 C 192.193 66.789,192.456 66.525,192.564 66.309 C 192.672 66.093,192.964 65.818,193.215 65.699 C 193.465 65.579,193.926 65.216,194.240 64.893 L 194.810 64.306 194.863 64.861 C 194.962 65.894,198.022 66.013,198.226 64.993 C 198.302 64.616,198.417 64.500,198.712 64.500 C 198.926 64.500,199.190 64.410,199.300 64.300 C 199.456 64.144,199.500 64.413,199.500 65.510 C 199.500 66.810,199.471 66.934,199.128 67.085 C 198.547 67.342,198.338 67.966,198.336 69.451 C 198.333 70.814,198.331 70.821,197.750 71.285 L 197.167 71.750 197.167 73.375 C 197.167 74.960,197.157 75.000,196.783 75.000 C 196.120 75.000,196.000 75.300,196.000 76.950 C 196.000 78.456,195.989 78.500,195.617 78.500 C 194.947 78.500,194.833 78.796,194.833 80.533 C 194.833 82.069,194.813 82.167,194.491 82.167 C 193.982 82.167,193.667 83.095,193.667 84.592 C 193.667 85.834,193.654 85.873,193.083 86.378 C 192.458 86.932,192.246 88.179,192.700 88.633 C 193.109 89.042,216.942 88.908,217.049 88.496 C 217.098 88.311,217.369 88.079,217.652 87.980 C 217.935 87.881,218.167 87.707,218.167 87.593 C 218.167 87.249,218.711 86.869,219.379 86.745 C 219.747 86.676,220.197 86.428,220.462 86.147 C 220.711 85.883,221.082 85.667,221.285 85.667 C 221.487 85.667,221.750 85.549,221.868 85.405 C 221.987 85.261,222.208 85.029,222.360 84.890 C 222.709 84.571,224.214 83.054,224.739 82.492 C 224.957 82.258,225.224 81.733,225.332 81.325 C 225.440 80.917,225.705 80.396,225.919 80.167 C 226.218 79.847,226.354 79.419,226.500 78.333 C 226.628 77.386,226.794 76.806,227.002 76.583 C 227.181 76.392,227.387 75.789,227.487 75.167 C 227.583 74.567,227.774 74.001,227.914 73.898 C 228.053 73.797,228.167 73.557,228.167 73.366 C 228.167 73.176,228.251 72.967,228.355 72.903 C 228.646 72.723,228.399 70.799,228.051 70.542 C 227.788 70.347,227.788 70.333,228.057 70.333 C 228.215 70.333,228.390 70.202,228.447 70.042 C 228.639 69.502,229.042 69.174,229.648 69.065 C 230.382 68.933,230.667 68.724,230.667 68.317 C 230.667 68.145,230.881 67.898,231.153 67.757 C 231.468 67.594,231.710 67.286,231.841 66.878 C 232.067 66.171,232.450 65.667,232.758 65.667 C 233.002 65.667,233.167 65.294,233.167 64.742 C 233.167 64.510,233.311 64.268,233.514 64.159 C 234.192 63.796,234.333 63.049,234.333 59.830 L 234.333 56.816 233.768 56.283 C 233.457 55.990,233.114 55.467,233.004 55.122 C 232.881 54.733,232.636 54.407,232.361 54.264 C 232.117 54.138,231.630 53.764,231.280 53.434 L 230.643 52.833 211.096 52.833 C 190.378 52.833,190.592 52.825,190.393 53.616 C 190.329 53.872,190.108 54.096,189.820 54.196 C 189.507 54.306,189.290 54.542,189.170 54.905 C 189.069 55.212,188.810 55.533,188.579 55.639 C 188.352 55.742,188.167 55.940,188.167 56.080 C 188.167 56.219,188.092 56.333,188.000 56.333 C 187.908 56.333,187.833 56.446,187.833 56.583 C 187.833 56.721,187.683 56.983,187.500 57.167 C 187.317 57.350,187.054 57.500,186.917 57.500 C 186.779 57.500,186.667 57.612,186.667 57.750 C 186.667 57.887,186.517 58.150,186.333 58.333 C 186.150 58.517,185.887 58.667,185.750 58.667 C 185.612 58.667,185.500 58.779,185.500 58.917 C 185.500 59.054,185.350 59.317,185.167 59.500 C 184.983 59.683,184.721 59.833,184.583 59.833 C 184.446 59.833,184.333 59.946,184.333 60.083 C 184.333 60.406,183.740 61.000,183.417 61.000 C 183.243 61.000,183.167 61.175,183.167 61.573 C 183.167 62.097,183.121 62.150,182.625 62.198 C 182.151 62.243,182.077 62.316,182.032 62.782 C 181.987 63.243,181.911 63.321,181.455 63.365 C 181.058 63.404,180.902 63.519,180.815 63.833 C 180.704 64.234,180.699 64.235,180.683 63.871 C 180.671 63.589,180.539 63.466,180.167 63.392 C 179.670 63.292,179.667 63.283,179.667 62.167 C 179.667 60.434,179.546 60.037,178.981 59.912 C 178.502 59.807,178.500 59.801,178.498 58.528 C 178.495 56.838,178.401 56.541,177.832 56.416 C 177.366 56.314,177.365 56.309,177.307 54.754 C 177.276 53.896,177.188 53.131,177.111 53.055 C 176.964 52.908,143.063 52.797,142.708 52.943 M239.111 52.944 C 239.050 53.006,239.000 53.568,239.000 54.194 C 239.000 55.301,238.988 55.333,238.579 55.333 C 238.013 55.333,237.833 55.856,237.833 57.500 C 237.833 58.665,237.796 58.823,237.500 58.917 C 237.102 59.043,236.771 59.597,236.935 59.863 C 237.000 59.967,236.978 60.006,236.886 59.949 C 236.788 59.889,236.715 60.100,236.708 60.465 C 236.697 61.067,236.701 61.072,236.862 60.625 C 236.958 60.360,237.194 60.124,237.422 60.067 C 237.639 60.013,237.923 59.805,238.054 59.604 C 238.474 58.964,238.952 59.093,239.330 59.948 C 239.758 60.915,239.753 61.137,239.292 61.627 C 238.998 61.939,238.878 62.356,238.736 63.558 C 238.596 64.744,238.455 65.242,238.107 65.767 C 237.781 66.260,237.631 66.749,237.555 67.564 C 237.478 68.387,237.328 68.871,236.990 69.384 C 236.643 69.911,236.490 70.421,236.366 71.455 C 236.239 72.523,236.110 72.935,235.786 73.321 C 235.463 73.705,235.342 74.091,235.248 75.033 C 235.130 76.231,234.804 77.167,234.506 77.167 C 234.422 77.167,234.312 77.523,234.260 77.958 C 234.049 79.743,233.833 80.536,233.423 81.022 C 233.103 81.404,233.000 81.714,232.999 82.304 C 232.998 83.360,232.754 84.154,232.252 84.734 C 231.953 85.080,231.833 85.414,231.831 85.901 C 231.830 86.276,231.785 86.854,231.730 87.185 L 231.631 87.787 232.824 87.904 C 233.870 88.007,234.040 88.072,234.202 88.428 L 234.387 88.833 238.281 88.833 L 242.175 88.833 242.337 88.406 C 242.427 88.171,242.500 87.521,242.500 86.962 C 242.500 86.038,242.546 85.905,243.012 85.489 C 243.500 85.054,243.529 84.954,243.620 83.432 C 243.702 82.064,243.757 81.833,244.004 81.833 C 244.518 81.833,244.691 81.380,244.786 79.775 C 244.870 78.380,244.921 78.180,245.233 78.038 C 245.675 77.837,246.000 76.691,246.000 75.335 C 246.000 74.355,246.005 74.344,246.400 74.494 C 246.732 74.620,246.791 74.598,246.746 74.365 C 246.717 74.210,246.686 74.027,246.679 73.958 C 246.672 73.890,246.535 73.833,246.375 73.832 C 244.723 73.827,243.777 72.536,244.582 71.386 C 244.718 71.191,244.907 70.481,245.002 69.808 C 245.220 68.254,245.297 68.015,245.747 67.476 C 246.019 67.151,246.141 66.729,246.214 65.864 C 246.308 64.734,246.685 63.667,246.988 63.667 C 247.068 63.667,247.186 63.217,247.250 62.667 C 247.382 61.527,247.882 60.655,248.502 60.482 C 249.180 60.293,250.086 60.319,250.300 60.533 C 250.456 60.689,250.500 60.504,250.500 59.703 C 250.500 58.718,250.520 58.668,250.958 58.561 C 251.610 58.401,251.661 58.259,251.665 56.583 C 251.669 55.086,251.670 55.083,252.178 54.793 C 252.871 54.399,252.824 53.582,252.083 53.150 C 251.570 52.850,239.398 52.657,239.111 52.944 M253.375 53.005 C 253.041 53.139,252.998 53.279,252.980 54.286 C 252.952 55.930,252.819 56.407,252.374 56.470 C 251.925 56.534,251.848 56.814,251.792 58.582 C 251.755 59.766,251.713 59.919,251.417 59.971 C 250.666 60.100,250.423 60.949,251.112 61.031 C 251.434 61.069,251.602 61.219,251.719 61.570 C 251.807 61.837,252.076 62.225,252.315 62.431 C 253.023 63.042,252.794 66.054,251.997 66.619 C 251.797 66.760,251.676 67.172,251.596 67.986 C 251.451 69.454,251.259 70.127,250.858 70.568 C 250.651 70.796,250.503 71.291,250.430 72.000 C 250.209 74.151,249.581 74.833,247.820 74.833 C 247.169 74.833,247.167 74.836,247.167 75.500 C 247.167 76.047,247.109 76.167,246.845 76.167 C 246.060 76.167,246.000 76.456,246.000 80.229 C 246.000 83.966,246.040 84.167,246.776 84.167 C 247.124 84.167,247.155 84.250,247.201 85.292 L 247.250 86.417 247.782 86.468 C 248.245 86.513,248.320 86.588,248.365 87.051 C 248.410 87.517,248.484 87.590,248.958 87.636 C 249.256 87.664,249.500 87.743,249.500 87.810 C 249.500 87.878,249.762 87.902,250.083 87.865 C 250.970 87.761,251.481 87.948,251.599 88.419 C 251.694 88.800,251.780 88.833,252.651 88.833 C 253.179 88.833,253.700 88.926,253.824 89.042 C 254.004 89.208,254.025 89.208,253.931 89.042 C 253.845 88.889,254.005 88.834,254.532 88.834 C 255.146 88.835,255.289 88.904,255.519 89.309 C 255.897 89.973,256.156 90.000,262.176 90.000 C 267.854 90.000,268.000 89.979,268.000 89.155 C 268.000 88.849,268.152 88.833,271.208 88.831 C 275.109 88.828,274.901 88.933,274.974 86.923 C 275.031 85.365,275.040 85.333,275.438 85.333 C 275.703 85.333,275.896 85.203,275.995 84.958 C 276.113 84.663,276.148 84.646,276.156 84.880 C 276.162 85.044,276.298 85.226,276.458 85.286 C 276.838 85.427,277.189 85.917,277.502 86.740 C 277.767 87.437,278.091 87.618,279.125 87.650 C 279.570 87.664,279.667 87.734,279.669 88.042 C 279.673 88.591,279.852 88.778,280.458 88.865 C 280.841 88.919,281.000 88.876,281.000 88.717 C 281.000 88.593,281.225 88.447,281.500 88.392 C 281.775 88.337,282.000 88.233,282.000 88.162 C 282.000 87.534,284.358 87.075,284.760 87.625 C 285.130 88.131,298.434 88.067,298.944 87.557 C 299.277 87.223,300.346 86.916,301.583 86.798 C 302.015 86.756,302.106 86.659,302.250 86.077 C 302.342 85.707,302.585 85.190,302.792 84.929 C 303.005 84.659,303.167 84.223,303.167 83.917 C 303.167 82.906,303.504 81.601,303.864 81.218 C 304.426 80.620,304.422 80.619,296.712 80.601 C 288.706 80.582,288.649 80.575,288.181 79.548 C 287.819 78.754,287.955 76.999,288.432 76.311 C 288.670 75.968,288.936 75.367,289.024 74.975 C 289.214 74.130,289.430 73.833,289.854 73.833 C 290.121 73.833,290.167 73.703,290.167 72.929 C 290.167 71.958,290.438 71.500,291.012 71.500 C 291.292 71.500,291.333 71.377,291.333 70.533 C 291.333 69.991,291.425 69.468,291.542 69.342 C 291.708 69.163,291.708 69.141,291.542 69.235 C 291.427 69.300,291.333 69.279,291.333 69.188 C 291.333 69.097,291.539 68.998,291.790 68.969 C 292.316 68.909,292.474 68.361,292.490 66.542 C 292.499 65.621,292.538 65.500,292.827 65.500 C 293.332 65.500,293.521 64.945,293.613 63.193 C 293.694 61.646,293.717 61.565,294.216 61.126 C 294.714 60.687,294.737 60.609,294.802 59.114 C 294.869 57.589,294.880 57.556,295.337 57.383 C 295.887 57.175,296.059 56.298,295.969 54.167 L 295.917 52.917 293.098 52.871 C 290.513 52.829,290.252 52.851,289.932 53.146 C 289.365 53.668,288.097 54.000,286.674 54.000 L 285.360 54.000 285.243 55.125 C 285.117 56.333,284.966 56.746,284.477 57.215 C 284.262 57.422,284.165 57.754,284.163 58.298 C 284.157 59.422,283.917 60.306,283.496 60.754 C 283.177 61.094,282.956 62.083,282.841 63.685 C 282.837 63.742,282.608 64.071,282.333 64.417 C 281.971 64.873,281.833 65.224,281.833 65.696 C 281.833 66.371,281.318 67.589,280.985 67.699 C 280.880 67.734,280.731 68.172,280.653 68.673 C 280.551 69.329,280.392 69.687,280.085 69.953 C 279.799 70.202,279.606 70.605,279.497 71.185 C 279.354 71.935,279.000 72.477,278.641 72.495 C 278.580 72.498,278.479 72.894,278.414 73.375 C 278.295 74.265,277.962 74.833,277.558 74.833 C 277.405 74.833,277.333 75.061,277.331 75.542 C 277.328 76.438,277.014 77.068,276.537 77.137 C 276.222 77.182,276.166 77.294,276.164 77.887 C 276.161 78.738,276.043 78.941,275.464 79.086 C 275.217 79.148,274.824 79.449,274.592 79.754 C 273.921 80.633,273.296 80.699,266.167 80.637 C 259.706 80.582,259.167 80.523,259.167 79.879 C 259.167 79.765,258.907 79.563,258.589 79.430 C 257.826 79.111,257.769 78.820,257.872 75.763 C 257.956 73.255,258.167 72.305,258.679 72.135 C 258.781 72.101,258.936 71.400,259.024 70.578 C 259.167 69.243,259.237 69.033,259.676 68.617 C 259.946 68.360,260.167 68.005,260.167 67.829 C 260.167 67.338,260.822 67.014,261.922 66.963 C 263.231 66.902,263.322 66.768,263.328 64.878 C 263.333 63.340,263.333 63.340,263.792 63.228 C 264.445 63.068,264.495 62.926,264.497 61.229 L 264.500 59.708 264.977 59.613 C 265.540 59.500,265.667 59.079,265.667 57.324 C 265.667 56.319,265.707 56.176,266.015 56.079 C 266.783 55.835,267.182 53.365,266.511 53.006 C 266.107 52.789,253.913 52.789,253.375 53.005 M323.417 53.113 C 323.142 53.260,322.579 53.657,322.167 53.994 C 321.396 54.623,320.984 54.729,317.894 55.092 C 317.292 55.163,316.938 55.307,316.704 55.576 C 316.517 55.791,315.985 56.059,315.493 56.185 C 314.924 56.330,314.589 56.512,314.539 56.701 C 314.497 56.861,314.186 57.115,313.847 57.264 C 313.508 57.414,313.160 57.696,313.073 57.892 C 312.987 58.088,312.710 58.347,312.458 58.467 C 312.206 58.587,312.000 58.797,312.000 58.934 C 312.000 59.070,311.771 59.310,311.491 59.466 C 311.194 59.632,310.945 59.931,310.892 60.184 C 310.842 60.423,310.544 60.908,310.229 61.262 C 309.473 62.112,309.544 62.413,310.504 62.429 C 311.754 62.448,311.900 62.486,312.398 62.914 C 312.886 63.334,312.850 63.607,312.250 64.036 C 312.018 64.201,312.033 67.479,312.267 67.631 C 312.582 67.835,312.810 68.408,313.066 69.638 C 313.457 71.512,314.771 72.656,316.750 72.843 C 318.710 73.029,320.382 73.344,320.667 73.581 C 320.835 73.722,321.881 73.821,323.876 73.886 C 327.873 74.016,328.171 74.197,328.298 76.583 C 328.404 78.564,327.566 80.667,326.671 80.667 C 326.507 80.667,326.251 80.850,326.104 81.075 C 325.700 81.692,324.867 81.831,321.583 81.831 C 318.299 81.831,317.467 81.692,317.063 81.075 L 316.795 80.667 312.796 80.667 L 308.798 80.667 308.478 81.073 C 308.302 81.297,308.018 81.525,307.846 81.579 C 307.657 81.639,307.493 81.900,307.428 82.246 C 307.364 82.591,307.200 82.853,307.012 82.913 C 306.672 83.021,306.405 83.582,306.239 84.536 C 306.180 84.876,306.027 85.242,305.899 85.348 C 305.771 85.454,305.667 85.635,305.667 85.750 C 305.667 85.865,305.554 86.053,305.417 86.167 C 304.934 86.567,305.090 87.865,305.667 88.250 C 305.941 88.433,306.166 88.640,306.166 88.708 C 306.166 88.777,308.324 88.833,310.960 88.833 L 315.754 88.833 315.919 88.458 C 316.114 88.013,317.041 87.884,320.274 87.853 C 321.807 87.838,322.319 87.779,322.384 87.608 C 322.500 87.307,323.977 87.031,326.495 86.840 C 328.038 86.723,328.596 86.620,328.701 86.433 C 328.950 85.988,329.350 85.667,329.656 85.667 C 329.820 85.667,330.237 85.442,330.583 85.167 C 331.377 84.536,332.703 84.445,333.000 85.000 C 333.379 85.708,334.333 85.355,334.333 84.507 C 334.333 84.310,334.499 84.175,334.819 84.111 C 335.280 84.019,335.311 83.958,335.421 82.933 C 335.529 81.928,335.567 81.848,335.970 81.801 C 336.453 81.744,336.623 81.356,336.650 80.245 C 336.664 79.667,336.733 79.548,337.141 79.394 C 337.750 79.164,337.830 78.562,337.832 74.199 C 337.834 70.425,337.689 69.598,336.983 69.352 C 336.623 69.227,336.500 69.077,336.500 68.765 C 336.500 68.238,336.073 68.000,335.129 68.000 C 334.453 68.000,334.391 67.962,334.243 67.458 L 334.083 66.917 330.721 66.872 C 327.485 66.828,327.354 66.839,327.252 67.160 C 327.013 67.913,321.353 68.147,320.309 67.446 C 319.173 66.685,319.080 62.667,320.197 62.667 C 320.302 62.667,320.619 62.411,320.902 62.098 C 321.915 60.979,325.222 60.802,325.994 61.825 C 326.251 62.166,326.339 62.170,333.752 62.127 L 341.250 62.083 341.295 61.250 C 341.334 60.546,341.424 60.345,341.879 59.953 L 342.417 59.490 342.417 56.203 L 342.417 52.917 333.167 52.881 C 324.943 52.849,323.861 52.875,323.417 53.113 M220.392 61.503 C 220.471 61.897,220.603 62.029,220.997 62.108 C 221.736 62.255,221.750 63.242,221.015 63.389 C 220.648 63.462,220.503 63.605,220.422 63.974 C 220.342 64.341,220.196 64.486,219.836 64.558 C 219.464 64.632,219.345 64.758,219.303 65.118 C 219.254 65.552,219.188 65.589,218.333 65.668 C 217.222 65.772,217.000 65.898,217.000 66.427 L 217.000 66.833 214.583 66.833 L 212.167 66.833 212.167 66.167 C 212.167 65.543,212.197 65.500,212.649 65.500 C 213.263 65.500,213.333 65.302,213.333 63.566 L 213.333 62.158 213.842 62.057 C 214.233 61.978,214.373 61.845,214.446 61.477 L 214.542 61.000 217.417 61.000 L 220.292 61.000 220.392 61.503 M200.000 63.455 C 199.862 63.507,199.695 63.632,199.628 63.733 C 199.552 63.846,199.504 63.805,199.503 63.625 C 199.501 63.429,199.623 63.338,199.875 63.346 C 200.126 63.355,200.167 63.391,200.000 63.455 M118.000 70.250 L 118.000 73.833 115.625 73.808 C 114.319 73.795,113.475 73.750,113.749 73.710 C 114.393 73.615,114.494 73.436,114.497 72.380 C 114.500 71.538,114.518 71.505,115.042 71.370 C 115.544 71.241,115.589 71.170,115.667 70.409 C 115.738 69.708,115.828 69.539,116.285 69.252 C 116.707 68.988,116.822 68.801,116.827 68.371 C 116.832 67.947,116.925 67.790,117.245 67.668 C 117.476 67.581,117.704 67.326,117.763 67.089 C 117.968 66.273,118.000 66.697,118.000 70.250 M214.667 74.071 C 214.667 74.497,215.141 74.799,215.996 74.916 L 216.833 75.031 216.833 76.766 L 216.833 78.500 216.341 78.500 C 215.912 78.500,215.835 78.574,215.741 79.074 C 215.654 79.537,215.548 79.658,215.192 79.699 C 214.854 79.738,214.738 79.854,214.699 80.191 C 214.643 80.674,214.314 80.827,213.325 80.831 C 212.673 80.834,212.333 81.074,212.333 81.533 C 212.333 81.809,212.136 81.832,209.875 81.820 C 208.067 81.811,207.535 81.764,207.862 81.644 C 208.482 81.417,208.667 80.752,208.667 78.743 C 208.667 77.080,208.677 77.034,209.067 76.936 C 209.575 76.808,209.833 76.092,209.833 74.808 L 209.833 73.833 212.250 73.833 C 214.233 73.833,214.667 73.876,214.667 74.071 " stroke="none" fill="#041444" fill-rule="evenodd"></path><path id="path2" d="M308.000 11.138 C 307.690 11.277,307.575 11.740,307.510 13.125 C 307.504 13.244,307.282 13.333,306.990 13.333 C 306.693 13.333,306.523 13.403,306.583 13.500 C 306.640 13.592,306.608 13.667,306.513 13.667 C 306.418 13.667,306.364 13.873,306.393 14.125 C 306.441 14.533,306.393 14.583,305.955 14.583 C 305.541 14.583,305.434 14.675,305.274 15.167 C 305.140 15.577,304.969 15.766,304.698 15.805 C 304.246 15.869,304.195 15.978,304.108 17.083 C 304.045 17.878,304.018 17.919,303.521 17.969 C 303.113 18.010,302.999 18.100,302.997 18.386 C 302.994 18.917,302.757 19.208,302.310 19.230 C 301.991 19.246,301.907 19.355,301.863 19.804 C 301.822 20.240,301.710 20.394,301.339 20.523 C 300.831 20.700,300.673 21.059,300.669 22.042 C 300.667 22.657,300.417 22.811,299.625 22.686 C 299.556 22.676,299.500 22.929,299.500 23.250 C 299.500 23.714,299.435 23.833,299.180 23.833 C 298.440 23.833,298.333 23.992,298.333 25.091 L 298.333 26.146 297.792 26.198 C 297.315 26.244,297.244 26.315,297.198 26.792 C 297.165 27.127,297.054 27.333,296.906 27.333 C 296.592 27.333,296.000 27.932,296.000 28.250 C 296.000 28.387,295.887 28.500,295.750 28.500 C 295.220 28.500,294.833 29.132,294.833 30.000 C 294.833 30.845,294.656 30.990,293.792 30.853 C 293.723 30.842,293.667 31.091,293.667 31.406 C 293.667 31.930,293.621 31.983,293.125 32.031 C 292.607 32.081,292.581 32.117,292.533 32.865 C 292.491 33.516,292.386 33.732,291.908 34.152 C 291.537 34.477,291.333 34.806,291.333 35.078 C 291.333 35.449,291.263 35.500,290.750 35.500 C 290.183 35.500,290.167 35.518,290.167 36.151 C 290.167 36.721,290.125 36.791,289.832 36.715 C 289.345 36.587,288.975 36.974,289.014 37.570 C 289.088 38.675,289.012 39.000,288.680 39.000 C 288.074 39.000,287.833 39.194,287.833 39.684 C 287.833 40.124,287.782 40.167,287.250 40.167 C 286.694 40.167,286.667 40.194,286.667 40.750 C 286.667 41.120,286.587 41.333,286.449 41.333 C 285.818 41.333,285.637 41.723,285.508 43.356 C 285.504 43.415,285.239 43.512,284.919 43.572 C 284.600 43.632,284.346 43.734,284.355 43.799 C 284.463 44.528,284.311 44.814,283.792 44.864 C 283.215 44.920,283.222 44.901,283.183 46.364 C 283.168 46.932,283.125 46.983,282.625 47.031 C 282.149 47.077,282.077 47.149,282.031 47.625 C 281.988 48.074,281.909 48.167,281.573 48.167 C 281.349 48.167,281.167 48.246,281.167 48.343 C 281.167 48.440,281.085 48.469,280.986 48.408 C 280.872 48.338,280.817 48.443,280.837 48.690 C 280.894 49.369,280.846 49.456,280.356 49.554 C 279.857 49.654,279.667 50.104,279.667 51.187 C 279.667 51.451,279.573 51.675,279.458 51.684 C 279.344 51.694,279.100 51.713,278.917 51.726 C 278.669 51.744,278.570 51.889,278.531 52.292 C 278.489 52.726,278.405 52.833,278.106 52.833 C 277.567 52.833,277.333 53.146,277.333 53.867 C 277.333 54.532,276.886 55.167,276.417 55.167 C 276.243 55.167,276.167 55.341,276.167 55.739 C 276.167 56.264,276.121 56.317,275.625 56.364 C 275.152 56.410,275.077 56.483,275.032 56.945 C 274.991 57.364,274.875 57.511,274.472 57.652 C 274.120 57.774,273.993 57.907,274.059 58.081 C 274.113 58.220,274.080 58.333,273.987 58.333 C 273.895 58.333,273.831 58.427,273.846 58.542 C 273.955 59.383,273.820 59.833,273.458 59.836 C 273.020 59.839,272.637 60.049,272.678 60.265 C 272.769 60.753,272.637 61.000,272.283 61.000 C 271.774 61.000,271.500 61.299,271.500 61.855 C 271.500 62.163,271.393 62.345,271.170 62.416 C 270.827 62.524,270.288 63.464,270.342 63.858 C 270.410 64.358,270.310 64.481,269.792 64.531 C 269.296 64.579,269.249 64.633,269.241 65.167 C 269.232 65.700,269.193 65.745,268.783 65.696 C 268.246 65.632,267.988 66.137,268.029 67.174 C 268.060 67.968,267.988 68.055,267.325 68.036 C 266.896 68.024,266.817 68.081,266.841 68.386 C 266.857 68.586,266.862 68.844,266.852 68.958 C 266.830 69.207,265.677 69.247,265.646 69.000 C 265.634 68.908,265.616 68.665,265.604 68.458 C 265.585 68.114,265.492 68.079,264.458 68.034 C 263.495 67.992,263.333 67.941,263.333 67.678 C 263.333 67.507,263.179 67.332,262.983 67.281 C 262.748 67.219,262.676 67.117,262.765 66.970 C 262.872 66.792,262.848 66.790,262.642 66.957 C 262.501 67.071,262.337 67.114,262.276 67.054 C 262.216 66.994,262.167 67.189,262.167 67.489 C 262.167 67.885,262.013 68.187,261.604 68.596 C 261.127 69.073,261.015 69.340,260.865 70.347 C 260.768 71.000,260.501 71.921,260.271 72.392 C 260.041 72.864,259.809 73.662,259.754 74.167 C 259.700 74.671,259.576 75.608,259.479 76.250 C 259.246 77.783,259.425 78.499,260.128 78.835 C 260.417 78.973,260.757 79.227,260.883 79.399 C 261.252 79.903,269.969 79.875,270.833 79.366 C 271.415 79.025,272.905 78.736,275.042 78.552 L 276.167 78.455 276.167 77.573 C 276.167 76.900,276.297 76.441,276.715 75.637 C 277.016 75.058,277.402 74.058,277.572 73.417 C 277.743 72.775,278.052 71.950,278.259 71.583 C 278.466 71.217,278.725 70.467,278.833 69.917 C 278.942 69.367,279.178 68.660,279.360 68.346 C 279.541 68.033,279.826 67.124,279.992 66.328 C 280.159 65.531,280.412 64.700,280.554 64.481 C 280.697 64.262,280.935 63.521,281.083 62.833 C 281.231 62.146,281.533 61.208,281.753 60.750 C 281.973 60.292,282.204 59.504,282.267 59.000 C 282.330 58.496,282.590 57.633,282.845 57.083 C 283.100 56.533,283.361 55.708,283.426 55.250 C 283.689 53.382,284.275 53.000,286.877 53.000 C 289.749 53.000,290.167 52.902,290.167 52.227 C 290.167 51.740,290.221 51.667,290.583 51.667 C 290.813 51.667,291.000 51.587,291.000 51.490 C 291.000 51.393,291.075 51.360,291.167 51.417 C 291.266 51.478,291.333 51.280,291.333 50.927 C 291.333 50.508,291.408 50.333,291.586 50.333 C 291.945 50.333,292.499 49.349,292.499 48.708 C 292.500 48.410,292.575 48.157,292.667 48.146 C 292.758 48.134,292.902 48.116,292.986 48.104 C 293.070 48.093,293.201 48.015,293.278 47.932 C 293.359 47.842,293.314 47.830,293.167 47.902 C 293.029 47.970,293.053 47.914,293.219 47.778 C 293.415 47.618,293.554 47.211,293.615 46.620 C 293.690 45.891,293.763 45.722,293.979 45.773 C 294.500 45.897,294.725 45.551,294.800 44.513 C 294.872 43.516,294.881 43.500,295.371 43.500 C 295.753 43.500,295.846 43.440,295.770 43.241 C 295.713 43.093,295.741 43.026,295.835 43.085 C 295.937 43.147,296.000 42.803,296.000 42.187 L 296.000 41.188 296.535 41.136 C 297.020 41.088,297.075 41.025,297.129 40.455 C 297.171 40.021,297.356 39.661,297.728 39.288 C 298.024 38.992,298.272 38.619,298.279 38.458 C 298.310 37.754,298.350 37.667,298.646 37.667 C 299.101 37.667,299.300 37.345,299.423 36.411 C 299.543 35.491,299.603 35.392,300.083 35.306 C 300.366 35.256,300.429 35.081,300.500 34.165 C 300.570 33.252,300.629 33.091,300.875 33.132 C 301.035 33.159,301.167 33.105,301.167 33.013 C 301.167 32.920,301.282 32.888,301.423 32.942 C 301.565 32.997,301.668 32.975,301.654 32.895 C 301.456 31.810,301.689 30.833,302.147 30.833 C 302.699 30.833,302.827 30.547,302.831 29.302 C 302.833 28.543,302.849 28.520,303.375 28.469 C 303.863 28.422,303.922 28.358,303.966 27.825 C 304.006 27.349,304.109 27.199,304.494 27.053 C 304.915 26.894,304.984 26.766,305.086 25.956 C 305.192 25.107,305.240 25.027,305.725 24.889 C 306.231 24.744,306.253 24.701,306.333 23.661 C 306.394 22.873,306.477 22.596,306.642 22.631 C 307.312 22.771,307.500 22.505,307.500 21.416 L 307.500 20.354 308.042 20.302 L 308.583 20.250 308.633 19.125 C 308.684 17.943,308.703 17.921,309.625 17.955 C 309.760 17.960,309.833 17.714,309.833 17.251 C 309.833 16.671,309.897 16.522,310.179 16.448 C 310.369 16.399,310.565 16.203,310.615 16.012 C 310.665 15.822,310.772 15.667,310.853 15.667 C 310.934 15.667,311.000 14.623,311.000 13.347 L 311.000 11.027 309.625 11.027 C 308.869 11.027,308.137 11.077,308.000 11.138 M313.495 28.842 C 313.395 29.030,313.336 29.297,313.364 29.436 C 313.393 29.574,313.499 29.421,313.600 29.094 C 313.806 28.426,313.768 28.333,313.495 28.842 M308.910 36.844 C 308.849 36.942,308.840 37.062,308.889 37.111 C 309.008 37.230,309.333 37.020,309.333 36.823 C 309.333 36.611,309.046 36.625,308.910 36.844 M307.743 39.178 C 307.683 39.276,307.673 39.396,307.722 39.444 C 307.842 39.564,308.167 39.353,308.167 39.157 C 308.167 38.944,307.879 38.958,307.743 39.178 M301.944 49.611 C 301.737 49.819,301.832 49.979,302.148 49.956 C 302.332 49.942,302.429 49.842,302.381 49.716 C 302.290 49.480,302.117 49.438,301.944 49.611 M300.766 51.956 C 300.566 52.157,300.675 52.312,301.000 52.288 C 301.183 52.274,301.333 52.211,301.333 52.149 C 301.333 51.989,300.886 51.836,300.766 51.956 M250.010 61.239 C 249.488 61.422,249.401 61.551,249.053 62.660 C 248.842 63.330,248.596 63.968,248.506 64.076 C 248.416 64.184,248.263 64.680,248.165 65.178 C 247.847 66.795,247.620 67.578,247.394 67.844 C 247.272 67.987,247.056 68.714,246.914 69.460 C 246.773 70.205,246.540 71.096,246.396 71.439 C 245.929 72.559,246.123 74.086,246.689 73.736 C 246.756 73.695,246.865 73.749,246.931 73.856 C 247.002 73.971,246.980 74.007,246.877 73.943 C 246.629 73.790,246.487 74.254,246.713 74.480 C 247.006 74.773,247.140 74.703,247.197 74.225 C 247.248 73.799,247.438 73.619,248.028 73.439 C 248.220 73.381,248.394 72.952,248.592 72.052 C 248.750 71.336,249.006 70.563,249.162 70.333 C 249.317 70.104,249.574 69.243,249.732 68.421 C 249.890 67.598,250.154 66.698,250.318 66.421 C 250.765 65.665,251.221 63.198,251.091 62.230 C 250.948 61.163,250.749 60.981,250.010 61.239 M235.500 62.739 C 235.500 63.264,235.454 63.317,234.958 63.364 C 234.482 63.410,234.410 63.482,234.364 63.958 C 234.324 64.375,234.217 64.523,233.894 64.604 C 233.409 64.726,233.167 65.250,233.167 66.178 C 233.167 66.818,233.153 66.833,232.573 66.833 C 232.107 66.833,231.985 66.896,232.009 67.125 C 232.072 67.749,231.985 67.953,231.575 68.140 C 231.048 68.380,230.834 68.386,231.167 68.151 C 231.389 67.994,231.389 67.982,231.167 68.044 C 230.906 68.116,230.880 68.238,230.851 69.542 C 230.833 70.327,230.829 70.333,230.269 70.333 C 229.924 70.333,229.707 70.414,229.711 70.542 C 229.743 71.393,229.672 71.500,229.078 71.500 C 228.503 71.500,228.216 72.471,228.702 72.772 C 228.930 72.913,228.841 75.712,228.582 76.568 C 228.445 77.018,228.333 77.702,228.333 78.089 C 228.333 78.841,227.963 80.069,227.608 80.492 C 227.488 80.634,227.297 81.078,227.183 81.479 C 227.068 81.879,226.798 82.383,226.583 82.598 C 226.368 82.813,226.147 83.132,226.092 83.307 C 225.946 83.765,224.399 85.333,224.093 85.333 C 223.950 85.333,223.833 85.434,223.833 85.558 C 223.833 85.855,223.292 86.333,222.957 86.333 C 222.810 86.333,222.536 86.548,222.349 86.811 C 222.081 87.188,221.798 87.330,221.004 87.486 C 220.388 87.607,219.834 87.836,219.574 88.077 C 219.107 88.510,217.994 88.828,216.833 88.860 C 215.922 88.885,215.667 89.063,215.667 89.676 C 215.667 90.063,215.587 90.154,215.208 90.197 C 214.783 90.246,214.739 90.324,214.597 91.283 C 214.450 92.277,214.424 92.318,213.930 92.367 C 213.485 92.410,213.410 92.489,213.364 92.958 C 213.321 93.405,213.242 93.500,212.912 93.500 C 212.489 93.500,212.167 93.920,212.167 94.471 C 212.167 94.679,212.017 94.835,211.754 94.901 C 211.193 95.042,211.053 95.649,211.022 98.083 C 210.995 100.237,211.043 100.420,211.644 100.457 C 212.181 100.491,212.153 100.400,212.230 102.344 C 212.326 104.806,212.350 104.913,212.797 104.936 C 213.349 104.964,213.357 104.989,213.349 106.677 C 213.341 108.298,213.493 108.648,214.208 108.661 C 214.462 108.666,214.500 108.846,214.500 110.060 C 214.500 113.130,214.513 113.151,216.625 113.290 L 218.000 113.380 218.000 112.784 C 218.000 112.233,218.041 112.184,218.542 112.136 C 218.969 112.094,219.088 112.004,219.104 111.708 C 219.149 110.906,219.172 110.846,219.404 110.935 C 219.659 111.033,220.342 110.734,220.312 110.537 C 220.239 110.050,220.369 109.500,220.558 109.500 C 220.681 109.500,220.918 109.349,221.086 109.164 C 221.366 108.855,221.449 108.568,221.486 107.792 C 221.496 107.593,221.637 107.500,221.927 107.500 C 222.165 107.500,222.308 107.427,222.251 107.335 C 222.193 107.241,222.260 107.213,222.408 107.270 C 222.612 107.348,222.667 107.243,222.667 106.768 C 222.667 106.236,222.715 106.167,223.087 106.167 C 223.581 106.167,223.833 105.660,223.833 104.666 C 223.833 104.060,223.866 104.018,224.375 103.969 C 224.850 103.923,224.927 103.847,225.000 103.349 C 225.065 102.904,225.172 102.769,225.493 102.720 C 225.881 102.661,226.159 102.412,226.164 102.115 C 226.166 102.041,226.073 102.033,225.958 102.098 C 225.792 102.192,225.792 102.171,225.958 101.991 C 226.073 101.868,226.167 101.486,226.167 101.144 C 226.167 100.567,226.205 100.517,226.695 100.469 C 227.141 100.425,227.234 100.339,227.289 99.920 C 227.359 99.391,227.594 99.149,227.917 99.273 C 228.125 99.353,228.529 98.965,228.486 98.726 C 228.302 97.701,228.517 97.019,229.042 96.969 C 229.516 96.923,229.590 96.850,229.635 96.385 C 229.680 95.922,229.755 95.846,230.218 95.801 C 230.544 95.770,230.759 95.653,230.772 95.500 C 230.785 95.362,230.804 95.126,230.814 94.975 C 230.825 94.823,231.058 94.621,231.333 94.525 C 231.715 94.392,231.841 94.240,231.864 93.884 C 231.881 93.627,231.911 93.267,231.931 93.083 C 231.951 92.900,231.975 92.661,231.984 92.552 C 231.993 92.443,232.244 92.331,232.542 92.302 C 233.018 92.256,233.090 92.185,233.136 91.708 C 233.179 91.262,233.258 91.167,233.588 91.167 C 234.090 91.167,234.271 90.813,234.318 89.733 L 234.355 88.882 232.469 88.764 C 230.277 88.627,229.830 88.433,229.839 87.621 C 229.848 86.781,230.249 85.150,230.627 84.417 C 230.816 84.050,231.065 83.188,231.180 82.500 C 231.295 81.813,231.529 81.047,231.701 80.798 C 231.873 80.550,232.120 79.738,232.251 78.994 C 232.382 78.249,232.648 77.384,232.841 77.070 C 233.035 76.757,233.298 75.903,233.425 75.173 C 233.553 74.443,233.840 73.487,234.063 73.048 C 234.286 72.609,234.555 71.733,234.660 71.102 C 234.765 70.470,235.026 69.608,235.240 69.185 C 235.454 68.763,235.708 67.905,235.805 67.281 C 235.904 66.640,236.167 65.827,236.407 65.418 C 236.835 64.688,236.973 63.454,236.728 62.542 C 236.541 61.844,235.500 62.012,235.500 62.739 M295.333 62.343 C 295.333 62.440,295.264 62.477,295.178 62.424 C 295.093 62.371,294.986 62.389,294.940 62.463 C 294.894 62.537,295.001 62.608,295.178 62.622 C 295.355 62.635,295.500 62.581,295.500 62.502 C 295.500 62.423,295.631 62.323,295.792 62.282 C 296.011 62.224,295.991 62.201,295.708 62.186 C 295.502 62.175,295.333 62.246,295.333 62.343 M312.186 78.771 C 312.175 78.966,312.298 79.229,312.458 79.355 C 312.712 79.554,312.725 79.551,312.560 79.333 C 312.455 79.196,312.332 78.933,312.287 78.750 C 312.209 78.433,312.204 78.434,312.186 78.771 M279.929 90.254 C 279.752 90.387,279.659 90.548,279.722 90.611 C 279.785 90.674,279.930 90.606,280.043 90.460 C 280.157 90.314,280.400 90.160,280.583 90.117 L 280.917 90.039 280.583 90.025 C 280.400 90.017,280.105 90.120,279.929 90.254 M278.792 92.565 C 278.631 92.687,278.500 92.846,278.500 92.919 C 278.500 92.992,278.631 92.937,278.792 92.798 C 278.952 92.658,279.196 92.502,279.333 92.452 C 279.556 92.370,279.556 92.359,279.333 92.352 C 279.196 92.347,278.952 92.444,278.792 92.565 M242.562 96.247 C 242.421 96.613,242.576 96.727,242.818 96.436 C 242.954 96.271,242.961 96.162,242.840 96.088 C 242.743 96.028,242.618 96.099,242.562 96.247 M239.500 100.667 C 239.500 100.758,239.408 100.815,239.296 100.792 C 239.183 100.769,239.074 100.938,239.054 101.167 C 239.017 101.572,239.019 101.573,239.133 101.198 C 239.197 100.987,239.305 100.816,239.373 100.819 C 239.441 100.822,239.666 100.756,239.873 100.673 L 240.250 100.521 239.875 100.511 C 239.669 100.505,239.500 100.575,239.500 100.667 M228.513 115.375 C 228.522 115.626,228.558 115.667,228.621 115.500 C 228.674 115.362,228.799 115.195,228.900 115.128 C 229.013 115.052,228.972 115.004,228.792 115.003 C 228.596 115.001,228.504 115.123,228.513 115.375 M261.857 134.690 C 261.740 134.879,261.680 135.069,261.725 135.114 C 261.770 135.159,261.893 135.032,262.000 134.833 C 262.107 134.634,262.166 134.444,262.132 134.410 C 262.098 134.376,261.975 134.502,261.857 134.690 M223.515 138.706 C 223.660 138.822,223.815 139.025,223.859 139.158 C 223.926 139.361,223.955 139.358,224.040 139.137 C 224.108 138.958,223.999 138.814,223.695 138.685 C 223.330 138.529,223.298 138.532,223.515 138.706 " stroke="none" fill="#bbeafb" fill-rule="evenodd"></path><path id="path3" d="M288.333 53.260 C 288.012 53.382,287.140 53.485,286.395 53.491 C 285.482 53.497,284.981 53.572,284.857 53.721 C 284.607 54.023,283.871 56.004,283.584 57.149 C 283.455 57.663,283.155 58.646,282.917 59.333 C 282.679 60.021,282.420 60.883,282.341 61.250 C 282.262 61.617,282.014 62.404,281.791 63.000 C 281.567 63.596,281.329 64.380,281.261 64.742 C 281.194 65.105,281.001 65.672,280.832 66.002 C 280.664 66.333,280.401 67.086,280.248 67.677 C 280.095 68.267,279.900 68.835,279.814 68.939 C 279.728 69.044,279.435 69.737,279.164 70.480 C 278.893 71.223,278.598 71.963,278.509 72.124 C 278.076 72.904,277.400 74.797,277.578 74.729 C 277.853 74.623,278.333 73.578,278.333 73.084 C 278.333 72.862,278.481 72.542,278.661 72.375 C 279.024 72.036,279.498 71.007,279.503 70.547 C 279.505 70.384,279.723 69.929,279.989 69.537 C 280.255 69.145,280.525 68.508,280.590 68.121 C 280.654 67.733,280.850 67.215,281.025 66.968 C 281.199 66.722,281.485 65.972,281.659 65.302 C 281.834 64.632,282.121 63.783,282.297 63.417 C 282.473 63.050,282.716 62.262,282.837 61.667 C 282.958 61.071,283.152 60.433,283.270 60.250 C 283.387 60.067,283.679 59.139,283.920 58.187 C 284.160 57.236,284.430 56.336,284.520 56.187 C 284.611 56.039,284.816 55.467,284.976 54.917 L 285.269 53.917 286.759 53.820 C 288.233 53.725,290.660 53.002,289.417 53.029 C 289.142 53.035,288.654 53.139,288.333 53.260 M321.856 53.257 C 321.547 53.390,320.963 53.500,320.558 53.500 C 320.152 53.500,319.542 53.640,319.202 53.811 C 318.862 53.982,318.021 54.247,317.333 54.399 C 316.585 54.564,315.789 54.874,315.350 55.171 C 314.947 55.444,314.522 55.667,314.406 55.667 C 314.171 55.667,314.022 55.784,311.999 57.548 C 311.220 58.228,310.474 59.002,310.341 59.267 C 310.208 59.533,309.922 59.946,309.706 60.187 C 309.490 60.427,309.186 60.846,309.031 61.119 C 308.877 61.391,308.600 61.859,308.417 62.157 C 306.995 64.473,306.967 64.541,307.287 64.861 C 307.576 65.150,307.609 65.148,308.169 64.797 C 308.488 64.597,309.141 64.234,309.620 63.991 C 310.098 63.748,310.601 63.457,310.738 63.344 C 311.235 62.931,311.333 63.326,311.333 65.730 C 311.333 68.100,311.528 69.285,312.091 70.333 C 312.215 70.563,312.435 71.021,312.582 71.352 C 312.894 72.055,314.385 73.332,314.897 73.336 C 315.091 73.337,315.887 73.571,316.667 73.855 C 318.058 74.363,318.154 74.374,322.083 74.483 C 326.531 74.605,326.304 74.554,326.901 75.571 C 327.588 76.744,326.900 80.000,325.965 80.000 C 325.877 80.000,325.465 80.244,325.051 80.542 L 324.297 81.083 321.607 81.138 C 319.661 81.178,318.623 81.125,317.858 80.948 C 316.394 80.610,316.820 81.042,318.333 81.432 C 319.557 81.747,324.221 81.687,325.000 81.347 C 325.749 81.020,326.911 80.067,327.167 79.570 C 327.304 79.302,327.481 79.036,327.560 78.979 C 328.042 78.627,328.100 76.312,327.650 75.383 C 327.141 74.332,326.938 74.268,323.667 74.133 C 320.638 74.009,319.443 73.867,317.750 73.432 C 317.200 73.290,316.312 73.091,315.777 72.989 C 315.188 72.877,314.665 72.661,314.452 72.443 C 314.259 72.245,313.914 71.956,313.686 71.801 C 312.537 71.020,311.481 66.137,311.988 63.950 C 312.304 62.588,310.193 62.181,309.175 63.407 C 309.056 63.550,308.856 63.667,308.730 63.667 C 308.380 63.667,308.456 63.030,308.833 62.795 C 309.017 62.680,309.167 62.508,309.167 62.412 C 309.167 62.118,309.747 61.078,310.149 60.652 C 310.358 60.431,310.629 60.063,310.753 59.833 C 311.022 59.334,313.373 57.000,313.608 57.000 C 313.699 57.000,313.929 56.821,314.119 56.602 C 314.310 56.383,314.754 56.109,315.108 55.993 C 315.461 55.878,315.988 55.602,316.280 55.381 C 316.643 55.105,317.245 54.907,318.196 54.751 C 318.959 54.626,319.862 54.406,320.203 54.262 C 320.544 54.118,320.994 54.000,321.203 53.999 C 321.412 53.999,321.921 53.774,322.333 53.500 C 323.154 52.954,322.877 52.813,321.856 53.257 M237.167 60.566 C 237.167 60.693,237.054 60.841,236.917 60.894 C 236.779 60.946,236.667 61.114,236.667 61.265 C 236.667 61.471,236.721 61.496,236.881 61.363 C 237.111 61.172,237.459 61.182,237.792 61.390 C 238.070 61.563,238.057 62.737,237.770 63.391 C 237.643 63.680,237.411 64.442,237.255 65.083 C 237.099 65.725,236.836 66.587,236.670 67.000 C 236.504 67.412,236.202 68.425,235.999 69.250 C 235.796 70.075,235.571 70.825,235.499 70.917 C 235.428 71.008,235.207 71.683,235.010 72.417 C 234.812 73.150,234.388 74.612,234.068 75.667 C 233.216 78.472,232.332 81.344,232.144 81.917 C 231.927 82.580,231.430 84.252,231.204 85.083 C 231.105 85.450,230.863 86.193,230.668 86.734 C 230.204 88.016,230.319 88.128,232.389 88.417 C 233.269 88.540,234.067 88.688,234.161 88.747 C 234.256 88.805,234.333 88.810,234.333 88.757 C 234.333 88.482,233.171 88.001,232.500 87.998 C 231.574 87.995,230.974 87.844,231.096 87.646 C 231.147 87.564,231.373 86.733,231.599 85.801 C 231.825 84.869,232.082 84.018,232.172 83.911 C 232.261 83.803,232.519 82.968,232.745 82.054 C 232.971 81.140,233.268 80.176,233.405 79.912 C 233.542 79.648,233.781 78.865,233.935 78.174 C 234.089 77.482,234.356 76.608,234.528 76.230 C 234.701 75.853,234.924 75.103,235.025 74.564 C 235.126 74.025,235.387 73.163,235.603 72.648 C 235.820 72.134,236.118 71.133,236.265 70.423 C 236.411 69.713,236.666 68.896,236.831 68.608 C 236.996 68.319,237.260 67.483,237.418 66.750 C 237.576 66.017,237.851 65.129,238.030 64.778 C 238.208 64.426,238.437 63.470,238.537 62.653 C 238.638 61.835,238.783 61.167,238.860 61.167 C 239.280 61.167,238.904 60.718,238.336 60.541 C 237.476 60.272,237.167 60.279,237.167 60.566 M249.250 60.833 C 249.193 60.925,249.010 61.000,248.842 61.000 C 248.216 61.000,247.828 61.552,247.496 62.917 C 247.317 63.650,247.066 64.438,246.937 64.667 C 246.808 64.896,246.613 65.533,246.502 66.083 C 246.391 66.633,246.122 67.537,245.903 68.091 C 244.959 70.477,244.745 72.572,245.376 73.239 C 245.852 73.742,245.858 73.744,245.771 73.333 C 245.443 71.784,245.461 71.542,246.043 69.726 C 246.865 67.163,247.579 64.772,247.923 63.430 C 248.287 62.012,249.094 61.000,249.863 61.000 C 250.147 61.000,250.310 60.930,250.250 60.833 C 250.193 60.742,249.968 60.667,249.750 60.667 C 249.532 60.667,249.307 60.742,249.250 60.833 M251.111 61.129 C 251.218 61.197,251.467 61.719,251.665 62.289 L 252.023 63.326 251.580 64.788 C 250.567 68.135,250.022 69.978,249.743 71.000 C 249.216 72.935,248.365 74.333,247.715 74.333 C 247.413 74.333,247.167 74.408,247.167 74.500 C 247.167 75.367,249.714 73.915,249.908 72.937 C 250.266 71.133,250.612 69.833,250.844 69.417 C 250.997 69.142,251.253 68.279,251.413 67.500 C 251.573 66.721,251.853 65.836,252.037 65.533 C 252.552 64.685,252.554 62.718,252.042 62.376 C 251.803 62.217,251.667 61.958,251.667 61.664 C 251.667 61.397,251.556 61.160,251.403 61.101 C 251.042 60.963,250.875 60.978,251.111 61.129 M321.226 62.382 C 319.169 63.969,319.112 66.418,321.109 67.407 C 321.945 67.821,325.679 67.767,326.650 67.327 C 327.493 66.944,327.497 66.762,326.657 67.003 C 326.343 67.093,325.088 67.167,323.869 67.167 L 321.653 67.167 320.995 66.458 C 319.989 65.374,320.316 63.482,321.623 62.829 C 321.876 62.702,322.256 62.447,322.468 62.261 C 322.866 61.912,324.576 61.802,325.755 62.049 C 326.177 62.138,326.152 62.106,325.583 61.831 C 325.106 61.600,324.554 61.507,323.642 61.504 L 322.368 61.500 321.226 62.382 M261.380 67.120 C 260.760 67.197,259.442 69.600,259.241 71.019 C 259.116 71.896,258.884 72.738,258.581 73.417 C 258.220 74.223,257.979 75.983,258.033 77.404 L 258.083 78.724 259.247 79.571 L 260.411 80.417 266.497 80.417 C 272.951 80.417,273.065 80.405,274.250 79.593 C 274.525 79.404,274.810 79.156,274.883 79.042 C 274.957 78.927,275.196 78.833,275.415 78.833 C 275.634 78.833,275.860 78.758,275.917 78.667 C 276.080 78.403,275.142 78.471,274.840 78.744 C 273.669 79.803,269.647 80.291,263.750 80.088 L 260.750 79.984 259.848 79.370 C 259.352 79.032,258.846 78.655,258.723 78.533 C 258.395 78.204,258.445 76.460,258.821 75.178 C 258.997 74.576,259.269 73.483,259.425 72.750 C 259.581 72.017,259.844 71.042,260.009 70.583 C 260.175 70.125,260.475 69.281,260.675 68.708 C 260.983 67.831,261.102 67.667,261.431 67.667 C 261.651 67.667,261.900 67.521,262.000 67.333 C 262.098 67.150,262.120 67.012,262.048 67.027 C 261.976 67.041,261.675 67.083,261.380 67.120 M290.500 71.833 C 290.317 72.017,290.169 72.260,290.172 72.375 C 290.175 72.493,290.249 72.460,290.343 72.298 C 290.435 72.141,290.674 71.897,290.875 71.756 C 291.076 71.615,291.149 71.500,291.037 71.500 C 290.925 71.500,290.683 71.650,290.500 71.833 M228.353 73.320 C 228.342 73.542,228.230 73.842,228.103 73.987 C 227.977 74.132,227.786 74.775,227.679 75.417 C 227.572 76.058,227.304 77.146,227.082 77.833 C 226.861 78.521,226.588 79.405,226.477 79.799 C 226.366 80.192,226.101 80.750,225.888 81.039 C 225.674 81.328,225.500 81.683,225.500 81.828 C 225.500 81.972,225.257 82.389,224.960 82.754 C 224.663 83.118,224.345 83.516,224.252 83.637 C 223.849 84.164,222.222 85.523,221.650 85.811 C 221.412 85.931,221.018 86.201,220.774 86.410 C 220.530 86.620,220.037 86.838,219.678 86.895 C 219.282 86.959,218.838 87.188,218.548 87.477 C 218.286 87.740,217.830 88.079,217.535 88.232 C 217.241 88.384,217.000 88.580,217.000 88.667 C 217.000 88.903,217.808 88.521,218.652 87.886 C 219.057 87.582,219.520 87.333,219.680 87.333 C 220.355 87.333,222.483 86.117,223.574 85.108 C 223.936 84.774,224.292 84.500,224.366 84.500 C 224.440 84.500,224.500 84.415,224.500 84.311 C 224.500 84.207,224.669 83.963,224.875 83.769 C 225.925 82.784,227.676 78.822,227.905 76.917 C 227.971 76.367,228.136 75.367,228.272 74.695 C 228.408 74.022,228.486 73.347,228.446 73.195 C 228.398 73.016,228.365 73.062,228.353 73.320 M289.528 74.175 C 289.342 74.375,289.138 74.848,289.074 75.228 C 289.011 75.607,288.828 76.104,288.668 76.333 C 287.665 77.769,288.029 79.281,289.583 80.139 C 290.248 80.506,300.039 80.543,302.417 80.188 C 304.645 79.855,304.819 80.060,304.018 82.072 C 303.760 82.720,303.496 83.550,303.433 83.917 C 303.047 86.143,302.466 87.055,301.291 87.278 C 300.993 87.335,300.531 87.491,300.264 87.626 C 299.455 88.033,295.101 88.216,289.583 88.075 C 282.378 87.890,282.569 87.886,282.194 88.225 C 282.015 88.387,281.655 88.583,281.393 88.662 C 280.932 88.800,280.930 88.805,281.333 88.817 C 281.563 88.823,282.050 88.730,282.417 88.610 C 282.929 88.442,284.066 88.414,287.333 88.488 C 300.841 88.792,303.080 88.394,303.716 85.577 C 303.881 84.847,304.120 84.025,304.248 83.750 C 304.376 83.475,304.638 82.575,304.831 81.750 C 305.024 80.925,305.250 80.086,305.333 79.886 C 305.621 79.187,304.303 78.874,302.913 79.310 C 301.058 79.892,299.306 80.032,294.632 79.973 L 290.246 79.917 289.456 79.256 C 288.365 78.343,288.428 77.096,289.691 74.620 C 290.080 73.857,290.008 73.660,289.528 74.175 M277.167 75.401 C 277.167 75.560,276.972 76.023,276.734 76.429 C 276.272 77.218,276.329 77.408,276.843 76.792 C 277.173 76.396,277.445 75.390,277.270 75.214 C 277.213 75.158,277.167 75.242,277.167 75.401 M307.321 81.321 C 307.053 81.588,306.833 81.916,306.833 82.048 C 306.833 82.180,306.698 82.467,306.532 82.686 C 306.210 83.110,305.166 85.671,305.167 86.033 C 305.167 86.152,305.430 85.729,305.751 85.093 C 306.071 84.456,306.333 83.781,306.333 83.592 C 306.333 83.403,306.548 83.046,306.811 82.798 C 307.074 82.550,307.331 82.135,307.383 81.876 C 307.447 81.558,307.658 81.315,308.030 81.130 C 308.522 80.885,308.540 80.853,308.196 80.844 C 307.978 80.838,307.593 81.048,307.321 81.321 M331.027 85.413 C 330.538 85.620,329.812 86.019,329.414 86.299 C 328.973 86.611,328.378 86.852,327.887 86.920 C 327.445 86.980,326.333 87.217,325.417 87.446 C 324.047 87.788,323.125 87.886,320.250 87.993 C 317.994 88.076,316.587 88.199,316.292 88.338 C 315.663 88.634,315.714 88.837,316.375 88.668 C 316.673 88.592,318.754 88.490,321.000 88.442 C 324.911 88.358,325.806 88.254,326.917 87.754 C 327.192 87.630,327.852 87.449,328.384 87.352 C 328.966 87.245,329.629 86.978,330.050 86.679 C 330.435 86.407,330.953 86.135,331.201 86.076 C 331.450 86.016,331.740 85.862,331.847 85.734 C 332.084 85.447,332.696 85.429,332.967 85.700 C 333.122 85.856,333.167 85.838,333.167 85.623 C 333.167 84.951,332.318 84.868,331.027 85.413 M305.028 87.421 C 304.997 88.167,305.362 88.834,305.801 88.833 C 306.016 88.832,305.976 88.743,305.631 88.458 C 305.310 88.191,305.162 87.892,305.118 87.417 L 305.056 86.750 305.028 87.421 M250.846 88.125 C 251.080 88.499,251.667 88.906,251.667 88.694 C 251.667 88.546,251.246 88.144,250.863 87.925 C 250.683 87.822,250.680 87.860,250.846 88.125 M273.556 99.905 C 273.661 100.127,273.773 100.283,273.805 100.250 C 273.909 100.147,273.649 99.500,273.504 99.500 C 273.428 99.500,273.451 99.682,273.556 99.905 " stroke="none" fill="#3a5072" fill-rule="evenodd"></path><path id="path4" d="M289.908 52.975 C 289.469 53.368,288.103 53.735,286.759 53.821 L 285.269 53.917 284.976 54.917 C 284.816 55.467,284.611 56.039,284.520 56.187 C 284.430 56.336,284.160 57.236,283.920 58.187 C 283.679 59.139,283.387 60.067,283.270 60.250 C 283.152 60.433,282.958 61.071,282.837 61.667 C 282.716 62.262,282.473 63.050,282.297 63.417 C 282.121 63.783,281.834 64.632,281.659 65.302 C 281.485 65.972,281.190 66.733,281.004 66.994 C 280.548 67.635,280.530 68.143,280.979 67.715 C 281.479 67.237,281.833 66.401,281.833 65.698 C 281.833 65.224,281.970 64.874,282.333 64.417 C 282.608 64.071,282.837 63.742,282.841 63.685 C 282.956 62.083,283.177 61.094,283.496 60.754 C 283.917 60.306,284.157 59.422,284.163 58.298 C 284.165 57.754,284.262 57.422,284.477 57.215 C 284.966 56.746,285.117 56.333,285.243 55.125 L 285.360 54.000 286.661 54.000 C 288.092 54.000,289.495 53.633,289.938 53.143 C 290.221 52.830,290.200 52.714,289.908 52.975 M322.333 53.500 C 321.921 53.774,321.412 53.999,321.203 53.999 C 320.994 54.000,320.544 54.118,320.203 54.262 C 319.862 54.406,318.959 54.626,318.196 54.751 C 317.245 54.907,316.643 55.105,316.280 55.381 C 315.988 55.602,315.461 55.878,315.108 55.993 C 314.754 56.109,314.310 56.383,314.119 56.602 C 313.929 56.821,313.699 57.000,313.608 57.000 C 313.373 57.000,311.022 59.334,310.753 59.833 C 310.629 60.063,310.358 60.431,310.149 60.652 C 309.747 61.078,309.167 62.118,309.167 62.412 C 309.167 62.508,309.017 62.680,308.833 62.795 C 308.456 63.030,308.380 63.667,308.730 63.667 C 308.856 63.667,309.056 63.550,309.175 63.407 C 310.193 62.181,312.304 62.588,311.988 63.950 C 311.481 66.137,312.537 71.020,313.686 71.801 C 313.914 71.956,314.259 72.245,314.452 72.443 C 314.665 72.661,315.188 72.877,315.777 72.989 C 316.312 73.091,317.200 73.290,317.750 73.432 C 319.443 73.867,320.638 74.009,323.667 74.133 C 326.938 74.268,327.141 74.332,327.650 75.383 C 328.100 76.312,328.042 78.627,327.560 78.979 C 327.481 79.036,327.304 79.302,327.167 79.570 C 326.916 80.058,325.780 80.996,325.000 81.359 C 324.275 81.697,318.574 81.643,317.688 81.291 C 317.098 81.056,316.999 81.047,317.165 81.247 C 317.538 81.697,318.552 81.831,321.583 81.831 C 324.867 81.831,325.700 81.692,326.104 81.075 C 326.251 80.850,326.507 80.667,326.671 80.667 C 327.566 80.667,328.404 78.564,328.298 76.583 C 328.171 74.197,327.873 74.016,323.876 73.886 C 321.881 73.821,320.835 73.722,320.667 73.581 C 320.382 73.344,318.710 73.029,316.750 72.843 C 314.771 72.656,313.457 71.512,313.066 69.638 C 312.810 68.408,312.582 67.835,312.267 67.631 C 312.033 67.479,312.018 64.201,312.250 64.036 C 312.850 63.607,312.886 63.334,312.398 62.914 C 311.900 62.486,311.754 62.448,310.504 62.429 C 309.544 62.413,309.473 62.112,310.229 61.262 C 310.544 60.908,310.842 60.423,310.892 60.184 C 310.945 59.931,311.194 59.632,311.491 59.466 C 311.771 59.310,312.000 59.070,312.000 58.934 C 312.000 58.797,312.206 58.587,312.458 58.467 C 312.710 58.347,312.987 58.088,313.073 57.892 C 313.160 57.696,313.508 57.414,313.847 57.264 C 314.186 57.115,314.497 56.861,314.539 56.701 C 314.589 56.512,314.924 56.330,315.493 56.185 C 315.985 56.059,316.517 55.791,316.704 55.576 C 316.938 55.307,317.292 55.163,317.894 55.092 C 320.980 54.730,321.396 54.623,322.167 53.996 C 322.579 53.660,323.067 53.301,323.250 53.198 C 323.484 53.066,323.509 53.009,323.333 53.006 C 323.196 53.003,322.746 53.226,322.333 53.500 M238.044 59.620 C 237.907 59.829,237.696 60.000,237.576 60.000 C 237.325 60.000,236.833 60.449,236.833 60.679 C 236.833 60.764,236.908 60.833,237.000 60.833 C 237.092 60.833,237.167 60.721,237.167 60.583 C 237.167 60.279,237.463 60.268,238.336 60.541 C 238.904 60.718,239.280 61.167,238.860 61.167 C 238.783 61.167,238.638 61.835,238.537 62.653 C 238.437 63.470,238.208 64.426,238.030 64.778 C 237.851 65.129,237.576 66.017,237.418 66.750 C 237.260 67.483,236.996 68.319,236.831 68.608 C 236.666 68.896,236.411 69.713,236.265 70.423 C 236.118 71.133,235.820 72.134,235.603 72.648 C 235.387 73.163,235.126 74.025,235.025 74.564 C 234.924 75.103,234.701 75.853,234.528 76.230 C 234.356 76.608,234.089 77.482,233.935 78.174 C 233.781 78.865,233.542 79.648,233.405 79.912 C 233.268 80.176,232.971 81.140,232.745 82.054 C 232.519 82.968,232.261 83.803,232.172 83.911 C 232.082 84.018,231.825 84.869,231.599 85.801 C 231.373 86.733,231.144 87.568,231.090 87.656 C 230.966 87.857,231.950 88.052,232.599 87.955 C 232.960 87.902,232.897 87.877,232.353 87.858 L 231.623 87.833 231.726 87.208 C 231.783 86.865,231.830 86.276,231.831 85.901 C 231.833 85.414,231.953 85.080,232.252 84.734 C 232.754 84.154,232.998 83.360,232.999 82.304 C 233.000 81.714,233.103 81.404,233.423 81.022 C 233.833 80.536,234.049 79.743,234.260 77.958 C 234.312 77.523,234.422 77.167,234.506 77.167 C 234.804 77.167,235.130 76.231,235.248 75.033 C 235.342 74.091,235.463 73.705,235.786 73.321 C 236.110 72.935,236.239 72.523,236.366 71.455 C 236.490 70.421,236.643 69.911,236.990 69.384 C 237.328 68.871,237.478 68.387,237.555 67.564 C 237.631 66.749,237.781 66.260,238.107 65.767 C 238.455 65.242,238.596 64.744,238.736 63.558 C 238.878 62.356,238.998 61.939,239.292 61.627 C 239.753 61.137,239.758 60.915,239.330 59.948 C 238.949 59.086,238.473 58.965,238.044 59.620 M248.502 60.482 C 247.882 60.655,247.382 61.527,247.250 62.667 C 247.186 63.217,247.068 63.667,246.988 63.667 C 246.685 63.667,246.308 64.734,246.214 65.864 C 246.141 66.729,246.019 67.151,245.747 67.476 C 245.297 68.015,245.220 68.254,245.002 69.808 C 244.907 70.481,244.718 71.191,244.582 71.386 C 244.094 72.082,244.276 73.122,244.947 73.475 C 245.571 73.803,245.713 73.687,245.295 73.190 C 244.754 72.546,245.018 70.330,245.903 68.091 C 246.122 67.537,246.391 66.633,246.502 66.083 C 246.613 65.533,246.808 64.896,246.937 64.667 C 247.066 64.438,247.317 63.650,247.496 62.917 C 247.828 61.552,248.216 61.000,248.842 61.000 C 249.010 61.000,249.193 60.925,249.250 60.833 C 249.392 60.603,250.057 60.624,250.300 60.867 C 250.411 60.978,250.500 60.993,250.500 60.900 C 250.500 60.391,249.546 60.191,248.502 60.482 M322.000 61.350 C 321.679 61.446,321.185 61.781,320.902 62.095 C 320.619 62.410,320.302 62.667,320.197 62.667 C 319.080 62.667,319.173 66.685,320.309 67.446 C 321.253 68.079,326.968 67.926,327.223 67.261 C 327.292 67.080,327.152 67.098,326.615 67.342 C 325.678 67.767,321.926 67.811,321.109 67.407 C 319.112 66.418,319.169 63.969,321.226 62.382 L 322.368 61.500 323.606 61.500 C 324.310 61.500,325.093 61.604,325.422 61.741 C 326.050 62.004,326.225 61.799,325.640 61.486 C 325.152 61.225,322.722 61.134,322.000 61.350 M251.680 61.855 C 251.673 62.004,251.835 62.238,252.042 62.376 C 252.554 62.718,252.552 64.685,252.037 65.533 C 251.853 65.836,251.573 66.721,251.413 67.500 C 251.253 68.279,250.997 69.142,250.844 69.417 C 250.611 69.834,250.272 71.109,249.906 72.944 C 249.779 73.580,248.570 74.572,247.786 74.683 L 247.083 74.783 247.778 74.808 C 249.546 74.872,250.207 74.171,250.430 72.000 C 250.503 71.291,250.651 70.796,250.858 70.568 C 251.259 70.127,251.451 69.454,251.596 67.986 C 251.676 67.172,251.797 66.760,251.997 66.619 C 252.794 66.054,253.023 63.042,252.315 62.431 C 252.076 62.225,251.838 61.950,251.786 61.820 C 251.713 61.635,251.690 61.643,251.680 61.855 M261.300 66.992 C 260.561 67.135,260.167 67.432,260.167 67.845 C 260.167 68.013,259.946 68.360,259.676 68.617 C 259.237 69.033,259.167 69.243,259.024 70.578 C 258.936 71.400,258.781 72.101,258.679 72.135 C 258.167 72.305,257.956 73.255,257.872 75.763 C 257.769 78.820,257.826 79.111,258.589 79.430 C 258.907 79.563,259.167 79.765,259.167 79.879 C 259.167 80.523,259.706 80.582,266.167 80.637 C 273.306 80.699,273.920 80.634,274.596 79.749 C 274.831 79.440,275.237 79.141,275.498 79.084 C 275.759 79.027,276.020 78.853,276.079 78.698 C 276.165 78.473,276.145 78.458,275.977 78.625 C 275.861 78.740,275.598 78.833,275.392 78.833 C 275.185 78.833,274.957 78.927,274.883 79.042 C 274.810 79.156,274.525 79.404,274.250 79.593 C 273.065 80.405,272.951 80.417,266.497 80.417 L 260.411 80.417 259.247 79.571 L 258.083 78.724 258.033 77.404 C 257.979 75.983,258.220 74.223,258.581 73.417 C 258.884 72.738,259.116 71.896,259.241 71.019 C 259.431 69.681,260.775 67.167,261.301 67.164 C 261.548 67.163,261.862 67.089,262.000 67.000 C 262.279 66.820,262.190 66.819,261.300 66.992 M280.513 68.433 C 280.506 68.626,280.276 69.113,280.003 69.517 C 279.730 69.920,279.511 70.362,279.516 70.500 C 279.525 70.719,279.538 70.719,279.623 70.503 C 279.677 70.367,279.893 70.120,280.104 69.954 C 280.487 69.652,280.778 68.711,280.613 68.301 C 280.565 68.180,280.520 68.238,280.513 68.433 M279.264 71.421 C 279.206 71.652,279.010 71.990,278.829 72.171 C 278.458 72.542,278.597 72.606,279.041 72.268 C 279.201 72.147,279.379 71.812,279.437 71.524 C 279.561 70.901,279.416 70.815,279.264 71.421 M228.278 72.944 C 228.217 73.006,228.167 73.204,228.167 73.384 C 228.167 73.565,228.053 73.797,227.914 73.898 C 227.774 74.001,227.583 74.567,227.487 75.167 C 227.387 75.789,227.181 76.392,227.002 76.583 C 226.794 76.806,226.628 77.386,226.500 78.333 C 226.354 79.419,226.218 79.847,225.919 80.167 C 225.705 80.396,225.440 80.917,225.332 81.325 C 225.224 81.733,224.957 82.258,224.739 82.492 C 224.216 83.051,222.651 84.630,222.333 84.917 C 222.196 85.041,221.987 85.261,221.868 85.405 C 221.750 85.549,221.487 85.667,221.285 85.667 C 221.082 85.667,220.711 85.883,220.462 86.147 C 220.197 86.428,219.747 86.676,219.379 86.745 C 218.701 86.871,218.167 87.250,218.167 87.606 C 218.167 87.728,217.982 87.873,217.757 87.930 C 217.531 87.986,217.250 88.149,217.132 88.292 C 216.764 88.736,218.002 88.023,218.548 87.477 C 218.838 87.188,219.282 86.959,219.678 86.895 C 220.037 86.838,220.530 86.620,220.774 86.410 C 221.018 86.201,221.412 85.931,221.650 85.811 C 222.222 85.523,223.849 84.164,224.252 83.637 C 224.345 83.516,224.663 83.118,224.960 82.754 C 225.257 82.389,225.500 81.972,225.500 81.828 C 225.500 81.683,225.674 81.328,225.888 81.039 C 226.101 80.750,226.366 80.192,226.477 79.799 C 226.588 79.405,226.861 78.521,227.082 77.833 C 227.304 77.146,227.572 76.058,227.679 75.417 C 227.786 74.775,227.967 74.137,228.081 74.000 C 228.196 73.862,228.327 73.544,228.372 73.292 C 228.459 72.802,228.451 72.771,228.278 72.944 M278.105 73.957 C 278.035 74.163,277.865 74.444,277.727 74.582 C 277.589 74.720,277.545 74.833,277.629 74.833 C 277.912 74.833,278.363 74.194,278.297 73.887 C 278.239 73.622,278.215 73.631,278.105 73.957 M289.330 74.087 C 289.214 74.227,289.153 74.375,289.193 74.416 C 289.234 74.457,289.394 74.342,289.549 74.162 C 289.704 73.981,289.765 73.833,289.685 73.833 C 289.606 73.833,289.446 73.948,289.330 74.087 M288.458 76.250 C 288.122 76.771,288.005 77.154,288.020 77.688 L 288.039 78.417 288.172 77.629 C 288.245 77.196,288.467 76.614,288.665 76.335 C 288.864 76.057,289.002 75.763,288.971 75.684 C 288.941 75.605,288.710 75.859,288.458 76.250 M276.833 76.750 C 276.716 76.892,276.657 77.046,276.702 77.091 C 276.748 77.137,276.882 77.059,277.000 76.917 C 277.118 76.775,277.177 76.621,277.131 76.575 C 277.085 76.529,276.951 76.608,276.833 76.750 M288.013 78.784 C 287.951 80.519,288.248 80.581,296.712 80.601 C 304.422 80.619,304.426 80.620,303.864 81.218 C 303.504 81.601,303.167 82.906,303.167 83.917 C 303.167 84.223,303.005 84.659,302.792 84.929 C 302.585 85.190,302.342 85.707,302.250 86.077 C 302.106 86.659,302.015 86.756,301.583 86.798 C 300.409 86.910,299.282 87.218,298.995 87.505 C 298.825 87.675,298.363 87.846,297.968 87.886 C 297.573 87.925,297.820 87.937,298.516 87.913 C 299.212 87.888,300.000 87.759,300.266 87.625 C 300.532 87.491,300.993 87.335,301.291 87.278 C 302.466 87.055,303.047 86.143,303.433 83.917 C 303.496 83.550,303.760 82.720,304.018 82.072 C 304.819 80.060,304.645 79.855,302.417 80.188 C 300.039 80.543,290.248 80.506,289.583 80.139 C 289.034 79.836,288.260 79.058,288.117 78.667 C 288.057 78.501,288.022 78.540,288.013 78.784 M308.030 81.130 C 307.658 81.315,307.447 81.558,307.383 81.876 C 307.331 82.135,307.074 82.550,306.811 82.798 C 306.548 83.046,306.338 83.362,306.345 83.499 C 306.352 83.657,306.422 83.612,306.535 83.379 C 306.634 83.174,306.851 82.964,307.018 82.911 C 307.199 82.853,307.365 82.586,307.428 82.246 C 307.490 81.916,307.658 81.639,307.829 81.585 C 307.990 81.533,308.257 81.343,308.421 81.162 C 308.773 80.773,308.751 80.771,308.030 81.130 M305.924 84.710 C 305.744 85.099,305.494 85.637,305.369 85.906 C 305.162 86.349,305.166 86.375,305.403 86.178 C 305.548 86.058,305.667 85.881,305.667 85.784 C 305.667 85.688,305.771 85.491,305.898 85.346 C 306.105 85.111,306.442 83.997,306.305 84.002 C 306.275 84.003,306.103 84.321,305.924 84.710 M330.583 85.167 C 330.237 85.442,329.820 85.667,329.656 85.667 C 329.350 85.667,328.950 85.988,328.701 86.433 C 328.596 86.620,328.037 86.723,326.489 86.840 C 324.017 87.026,322.649 87.278,322.402 87.592 C 322.270 87.760,321.655 87.840,320.152 87.886 C 319.014 87.921,319.396 87.927,321.000 87.899 C 323.321 87.859,324.172 87.778,325.167 87.504 C 325.854 87.314,326.933 87.078,327.564 86.980 C 328.388 86.851,328.928 86.650,329.481 86.267 C 330.715 85.410,332.122 84.910,332.690 85.125 C 333.126 85.289,333.149 85.278,332.992 84.985 C 332.703 84.445,331.364 84.546,330.583 85.167 M282.542 87.696 C 282.244 87.880,282.000 88.089,282.000 88.161 C 282.000 88.233,281.756 88.348,281.458 88.418 C 281.056 88.511,280.997 88.564,281.229 88.621 C 281.401 88.664,281.776 88.523,282.062 88.308 C 282.531 87.956,282.752 87.918,284.250 87.926 C 285.167 87.931,285.669 87.907,285.365 87.873 C 285.062 87.839,284.773 87.703,284.723 87.572 C 284.584 87.211,283.199 87.290,282.542 87.696 M250.847 87.877 C 250.885 87.901,251.085 88.062,251.292 88.236 C 251.498 88.410,251.667 88.508,251.667 88.454 C 251.667 88.286,251.151 87.833,250.960 87.833 C 250.860 87.833,250.809 87.853,250.847 87.877 M233.347 88.050 C 234.083 88.585,234.353 88.681,234.173 88.345 C 234.071 88.155,233.828 88.000,233.633 88.000 C 233.438 88.000,233.309 88.023,233.347 88.050 M289.375 88.125 C 290.635 88.153,292.698 88.153,293.958 88.125 C 295.219 88.096,294.188 88.073,291.667 88.073 C 289.146 88.073,288.115 88.096,289.375 88.125 M305.577 88.415 C 305.848 88.637,306.103 88.786,306.142 88.747 C 306.238 88.651,305.462 88.011,305.250 88.012 C 305.158 88.012,305.305 88.193,305.577 88.415 M315.979 88.281 C 315.775 88.532,315.787 88.547,316.083 88.425 C 316.267 88.350,316.679 88.232,317.000 88.163 L 317.583 88.038 316.895 88.019 C 316.434 88.006,316.132 88.092,315.979 88.281 " stroke="none" fill="#2c4064" fill-rule="evenodd"></path></g></svg>