<svg xmlns="http://www.w3.org/2000/svg" enable-background="new 0 0 1600 1200" viewBox="0 0 1600 1200"><path d="M589.3 284.5c2.2-5.5 5.3-11.9 8.2-11.6 2 .2 1.9 4.4 5.3 10.1 1.5 2.6 2.4 3.2 10.1 10.9 10.1 10.2 10.9 11.4 13.6 11.8 4.8.7 10.7-2 12.6-6.3 2.1-4.8-2.4-9.9.5-13.5 1.4-1.7 4-2.7 5.8-1.9 4.5 1.9 2.6 14.3 2.4 15.5-1 6.9-3.9 11.6-4.8 13-2.1 3.3-5.9 9.2-12.1 11.1-9 2.8-18.1-4.2-22.7-7.7C595 305.8 590.7 291.3 589.3 284.5zM585.9 430.3c1.2-6.4 3.6-11.1 5.3-14 1.6-2.7 7.4-12 18.4-15.9 3.5-1.3 8.1-2.9 11.6-.5 2.7 1.9 4.2 5.9 3.4 9.2-1.1 4.2-5.3 4-13 9.7-4 2.9-10.1 7.4-14 15-2.3 4.4-2.6 7.5-4.3 7.7C590.6 441.7 587.8 435.6 585.9 430.3zM588.8 104.6c-3.5-3-12.5-10.2-22.2-8.2-14.6 2.9-20.2 24.1-22.7 33.4-1.7 6.3-2.5 12.5-2.1 35.8.8 41.7 3.9 40.2 1.6 53.9-3.7 22.9-11.8 25.5-10.3 43.2.6 7.1 2.6 14.5 1.2 26.8-.9 8.3-2.8 14.4-1.6 14.8 1.7.7 8.1-11.7 9.9-15.2 9-17.7 9.8-24.6 16.5-38.7 8.5-18.1 11.7-16.5 15.2-27.2.2-.7.4-1.3.5-2 1.1-5.6-1.8-36.8-2.2-40.4-1.5-15.5-2.2-23.3 2.2-29.8 1.8-2.7 5.7-7 9.7-15.1.9-1.8 2.3-4.5 3.3-7.4C591.1 119 589.8 109.5 588.8 104.6zM590.9 144.2c1.1-2.6 2.7-6.2 4.9-10.3 4.1-7.4 8.6-15.5 16.9-21.8 12.4-9.5 26.4-9.9 29.7-9.9 12.7 0 21.8 5 28.4 8.6 14 7.7 13.8 13.3 31.3 23.5 8.3 4.8 9.9 4.5 14.8 8.6 3 2.6 12.7 10.9 15.2 24.7.6 3 2.6 14-1.6 16.5-4.8 2.8-10.5-13.8-27.6-18.9-10.1-3-15.3.5-25.9-4.5-6-2.8-10.1-6.6-12.8-9.5-1.3 3.5-3.6 8.6-7.4 14-4.3 6.1-8.7 12.3-16.1 15.2-9.6 3.8-14.2-2-19.6 2-1.4 1.1-4.2 3.7-5.9 26-.5 7-.7 12.8-.8 16.9-4-3-9.2-7.5-14.2-14.1-8.4-11.1-11.4-21.7-12.1-24.6C582.7 166 588.9 149.1 590.9 144.2z"/><path fill="#383533" d="M1006.8,589.3c3.6,42,6.3,76.3,8.1,99.4c8.8,115.9,10.7,170.9,26.5,254.1c1.9,9.7,3.5,17.7,4.6,22.8
	c2.2,0.8,4.5,1.5,7,2.1c21.6,4.7,40.9-6.3,49.7-12.1c-8.6-49-18-99-28.3-149.9c-8.8-43.5-18-86.2-27.4-128c4.9,3.7,9.7,7.3,14.6,11
	c0.7,6.9,2,17.7,3.9,30.7c6.5,44.3,15.3,76.7,18.2,87.6c7.3,27.8,17.5,72.6,29.1,145c-0.3,8-0.6,16-0.9,24c6.7,1.6,18.2,3.4,32,0.7
	c18.1-3.5,30.2-12.7,35.6-17.4c-5.5-25.3-13-60.7-21-103.3c-8.3-44.1-12.7-67.2-16.5-96.9c-3.8-30.3-7.7-72.3-7.6-123.5
	c-19.6-15.3-34.2-26.2-35.4-26.4c-1.6-0.3-2.8,0.3-2.8,0.3s0,0,0,0c0,0,0,0,0,0c-2.1,0.7-3.1,2.1-5.1,4.4c0,0-3.4,3.8-7.2,6.9
	c-1.6,1.3-2.9,2.2-3.8,2.8c3.4-8.9,6.8-17.8,10.2-26.6c-6.4,3.1-16.6,7.2-29.7,8.6c-5.5,0.6-13.8,1.4-24.1-0.9
	C1022.6,601.6,1012.6,594.4,1006.8,589.3z"/><path fill="#ff4f03" d="M502.5 541.7c-4 13-8.6 30.8-11.5 52.3-2.1 15.4-2.6 27.1-2.7 31-.9 27.6 2.4 48.8 3.9 57.7 6 37.3 10.7 74.9 16.6 112.2 7.9 49.7 12.7 82.1 10.3 107.9-2.2 23.7-3.3 35.5-5.3 41.4-3.1 9.2-6.8 15.4-4 22.3 3.3 7.9 13.8 13.4 21.2 11.1 6.4-2 8.9-10.5 10.2-14.8 26.5-92.1 24.9-112.7 24.9-112.7 0-.4 9.3-192.4 14.8-192.1.6 0 1.3 7.9 2.6 23.6 1 12.3 1.9 23.5 2.1 38.2.1 10.6-.2 24.3-1.7 40.2 3.5 4.7 8.3 11.5 13.7 19.8 4.1 6.4 16.6 27.7 31.4 60.9 17.3 38.9 27.2 78.7 32.3 103.4 3.5 1.2 10.5 3 19.3 1.8 9.1-1.3 15.5-5.2 18.6-7.4.5-12.3.6-30.6-1.8-52.6-5.5-50-17.9-62.5-39.7-136.7-17.4-59-24-100-26.8-120-2.4-16.8-3.8-30.8-4.6-40.6-15.9 2-28.5.7-36.9-.9-25-4.7-43.8-17.1-68.3-33.2C513.1 549.5 506.8 544.9 502.5 541.7zM592.7 108.2c-2.4 3.6-3.2 6.7-3.6 8.9-.9 5.6 1.1 7.4-.4 12.4-1.1 3.7-2.9 4.8-2.2 7.1.7 2.4 3.4 4.5 5.3 4 2.7-.7 1-6.3 4.9-12.4 3.5-5.6 7.4-5.2 8.4-9.8.6-2.8 0-6.9-3.1-9.3C599.5 107.2 595.9 106.9 592.7 108.2zM935.7 472.3c-4.2-3.2-6.4-7.6-6.2-12.9.3-6.4-9.7-6.4-10 0-.3 7.6 3 15.2 9.1 20 2.1 1.7 5 2.1 7.1 0C937.5 477.7 937.9 474 935.7 472.3zM1140 546.1c-3.9.2-7.3-.9-10.2-3.6-4.7-4.4-11.7 2.6-7.1 7.1 4.7 4.4 10.8 6.9 17.2 6.5C1146.4 555.7 1146.5 545.7 1140 546.1zM1030.4 271.6c.1 8.2-.3 14.9-.6 19.6-1.1 16-3.1 23 1.2 30.7 1.4 2.4 4 7.1 7.7 7.2 5.9.1 6.9-12 18.4-26.1 7.4-9.1 17.4-16.9 20.6-19.3 8.2-6.2 15.1-9.9 14.9-15.4-.1-2.3-1.5-4.8-3.5-5.6-1.9-.7-5.3-.2-13 7.7-12.3 12.6-12.2 19.8-22.7 29.7-5 4.7-11.1 10.5-15.9 9C1027.9 306.1 1030.1 276.1 1030.4 271.6zM999.8 1083.2c-1.5-4.5-2.8-10.7 0-16.1 3.1-5.8 8.4-5.7 20-11.6 17.7-9.1 18.2-16.1 27.7-16.1 8.8 0 11.9 6.2 19.3 3.9 5.7-1.8 5.6-5.9 12.2-8.4 1-.4 10.2-3.6 16.7 1.3 6.6 4.9 6.4 15.1 4.5 21.3-2.3 7.4-8.1 11.4-12.9 14.8-7.6 5.3-15 7.4-19.3 8.4C1043.3 1086.3 1005.8 1083.7 999.8 1083.2zM1080.3 1104.5c-2.8-2.7-6.2-6.9-5.8-11.6.4-5.7 6-8.8 16.1-15.5 12.8-8.4 23.9-15.7 33.5-23.2 11.2-8.8 17.3-15.7 21.9-13.5 4 1.9 3.3 8.9 7.1 9.7 3.5.7 5.4-5.3 11.6-6.4 3.1-.6 7.6 0 10.3 2.6 4 3.8 2.4 9.9 1.9 25.1-.2 7.1-.1 12.7 0 16.1-11.7 2.2-23.5 4.3-35.4 6.4C1120.9 1097.8 1100.5 1101.2 1080.3 1104.5zM947.8 178.4c-2.6-.6-6.8-2.1-9.6-5.7-4.8-6.4-2.1-15.3-.1-21.8 1.7-5.7 6.1-19.9 20.7-29.3 18.3-11.8 37.6-6.5 40.5-5.6-.1-1-2-15.8 6.5-21.5 9.2-6.3 24.6 2.5 26.7 3.7 2.7 1.5 4.4 3 12.9 8.1 6.4 3.9 7.7 4.4 8.6 4.8 7.7 3 11 .6 15.8 2.4 7.9 3 11.7 14.4 12.4 22 1.3 14-7.6 20.9-2.9 29.6 2 3.7 3.6 2.3 6.7 7.2 3.8 5.9 6.9 16.2 2.9 23.9-1.6 3-3.6 4.2-3.8 7.6-.3 3.9 2 4.8 1.9 8.1-.2 7.1-10.8 11.9-12 12.4-3.7 1.7-7 3.4-10.5 2.4-4.6-1.3-6.8-9.4-9.1-18.6-1.4-5.7-2-10.5-2.4-13.9 1.7-1.8 4.5-5.1 5.7-10 .4-1.7 2.3-9.1-1.9-15.3-1-1.4-3.6-5.2-8.1-5.7-4.5-.5-7.9 2.6-8.1 2.9-2.3 2.3-1.5 3.8-4.3 8.6-1.7 2.9-2.9 4.9-5.3 6.2-4.4 2.4-9.5.3-10 0-6.5-2.9-9.6-11-8.1-12.4.9-.9 3.9.4 3.8 1-.1 1-10.3 3-17.2-1.4-6.6-4.2-6.9-12.1-10.5-12-2.1.1-2.3 2.8-6.2 6.7-2 2-7.1 7-13.9 6.7-4.4-.2-8.5-2.6-11-5.7-2.5-3.2-2.3-6.1-3.3-6.2C953.3 157.3 951.2 161.4 947.8 178.4z"/><path fill="#e8bfa5" d="M953.8 171.5c2.7 19.5 9 34.1 13.8 43.3 6.7 12.8 17.4 33 35.5 36.1 5.7 1 9.6 0 9.6 0 8.9-1.8 12-8 16.3-6.6 1.7.6 1.7 1.7 6.1 9 5.1 8.3 5.4 7.4 6.6 10.4.5 1.3 3.2 8.5 1 16.6-1.7 6.2-4.9 7.7-4.2 12 .4 2.9 2.5 6.6 5.4 7.2 5 1 7.8-8.3 18.6-19.2 12.3-12.4 23-14.8 22.2-21-.3-2.9-2.9-3.9-7.2-7.8-6.2-5.6-9.2-11.2-15-22.2-9.9-18.7-12.2-35-12.6-34.9-.2.1.5 5.3 1.8 5.4 1.5.1 3-6.8 4.2-12 2.2-9.9 3.2-14.8 1.2-18-2.8-4.3-9.3-6.6-13.2-4.8-2 1-1.9 2.3-6.6 8.4-2.5 3.2-3.7 4.8-5.4 6-.6.4-7.3 5.3-11.4 3-4.5-2.5-1.6-11.1-6-13.2-2.6-1.3-4.2 1.5-9.6 1.2-5.2-.3-9-3.2-10.2-4.2-4.9-3.9-4.1-9.4-6.6-9.6-2.2-.2-3 3.6-7.2 7.8-.8.8-8.1 8-14.4 6.6-7.4-1.6-9.8-13.2-12-12.6C953.3 158.6 952.7 161.4 953.8 171.5zM1124.4 554.9c-4.5 9.8-8 17.7-10.2 22.8-6.5 14.8-6.9 16.3-9.6 19.2-5.7 6-10.5 6.4-16.2 14.4-3.2 4.5-5 9.1-4.2 9.6 1.2.9 7.5-9.7 12.6-8.4 3.8.9 2.6 7.3 8.4 17.4 5.3 9.1 11.8 13.5 13.2 14.4 4.6 3 7.8 5.9 10.8 4.8 3.5-1.2 4.6-6.4 5.4-10.8 1.6-8.1.8-15.3-.6-22.2-1.3-6.3-3.7-15.1-8.4-25.2 3.4-5.5 11.4-18.6 15.6-28.2.5-1 1.8-4.1.6-5.4-1.5-1.6-5.4 1.4-10.8.6C1128.1 557.4 1125.9 556 1124.4 554.9zM1066.7 966.5c1.5 11.3 2.7 23.4 3.6 36.1.7 10 1.1 19.6 1.2 28.8 3.7 2.3 6.8 2.9 9 3 5.2.3 7.5-1.9 12-.6 3.8 1.1 4.8 3.5 6 3 2.6-1.1-1.3-11.7-1.8-25.2-.2-6.5.6-6.5 3.6-30.6 2.4-19.1 2.5-24 0-25.2-2.6-1.3-5.6 2.5-13.2 6C1079.3 965.3 1071.9 966.3 1066.7 966.5zM1135.8 979.7c1.7 8.1 3.1 16.9 4.2 26.4 1.2 10.4 1.7 20 1.8 28.8-1-3.3-.9-4.1-.6-4.2.9-.4 5.3 5.4 8.4 12 2.6 5.3 2.5 7.4 4.2 7.8 3 .7 4.8-5.8 12.6-9 3.7-1.5 4.4-.5 6-1.8 4.3-3.4 1.2-11.5-1.2-28.8-2-14.9-3.1-22.3-3-29.4 0-6.6.6-12.2-1.8-13.2-2.2-.9-4.9 2.9-9.6 6C1152.7 977 1146.1 979.8 1135.8 979.7zM532.2 979c-5.9 17.8-12.7 36.3-20.5 55.3-4 9.9-8.1 19.4-12.3 28.7-6.8.6-12.4.4-16.4 0-7.1-.7-8.4-1.7-8.9-2.7-1.5-3.1 3.1-8.1 5.5-10.9 4.1-5 4.3-7.4 13.7-38.3 2.5-8.2 6.4-21 11.6-37.6 1.8-4.3 3.5-5.3 4.8-5.5 3.2-.3 4.9 4.9 10.2 8.2C524.2 979 528.9 979.2 532.2 979zM659.9 944.2c7.3.7 15.3 1 23.9.7 3.8-.1 7.4-.4 10.9-.7 1.4 11.6 2.4 24.2 2.7 37.6 1 34.7-.5 49.8-2.7 60.8-.8 3.8-1.5 6.9-2 8.9-3.2-.4-7.4-.7-12.3 0-6.6.9-11.7 3.1-15 4.8 2.5-19.4 2.6-35.3 2-46.4-.5-11.1-1.7-20.9-3.4-35.5C662.5 961.8 661 951.4 659.9 944.2zM595.7 444.2c.8-3.6 2.3-8.5 5.5-13.7 5.1-8.5 11.9-13.4 15.7-15.7 7.2 6.4 14.9 14.1 22.5 23.2 11.7 13.8 20.3 27.3 26.6 38.9 10.8 1.7 25.8 3.7 43.7 4.8 18.1 1.1 39.8 2.4 66.9-.7 11.1-1.3 29.3-4 57.4-6.1 8-.6 18.8-1.3 29.4 4.8 6.9 4 16.7 12.6 15 20.5-1.2 5.3-7.2 8.6-13 11.6-4.9 2.6-9 3.5-14.3 4.8-7 1.6-12.9 3-20.5 2-5.5-.7-13-1.6-15.7-6.8-1.9-3.7-1-8.8-.7-10.2.9-4.8 3-6.9 2-8.2-1.6-2.2-9.2 1-10.2 1.4-13.1 5.3-27.9 4.6-41.7 7.5-28.8 6-43.2 9-56 9.6-16.8.7-31.3 1.2-47.1-6.1-4.3-2-10.5-5.4-27.3-21.2C623.9 475.1 610.5 461.7 595.7 444.2zM629.2 550.1c1-.3 5.9 9.7 8.9 22.5 2.1 9.3.9 9.9 2.7 21.9 2.3 15.4 5.9 19.3 7.5 37.6.5 5.7 1.7 13.4.7 13.7-1.7.4-6.8-18.8-8.2-18.4-1.3.3 5.5 26 3.4 26.6-1.7.5-8.6-14.8-13-30.1-3.2-11-5.4-19.3-4.1-30.1 1-8.3 3.1-8.9 4.1-17.8C632.9 560.9 628.1 550.4 629.2 550.1zM713.3 177.3c-1.5 9.6-4.6 22.9-11.6 37.5-6.3 13.3-13.8 23.3-19.8 30.3-1.9 3-6.8 10-16 14.3-4.1 1.9-11.5 5.4-18.7 3.3-1.2-.3-2-.7-3.3-.6-3.9.5-5.5 4.9-9.9 12.7-6.1 10.7-9.1 13.1-7.7 16 1.2 2.5 4.1 1.9 7.2 6.1.5.6 3.4 4.6 2.2 6.6-1.4 2.3-7.6 1-9.4.6-13.2-3-23.4-22-28.1-32 5.5-8 8.6-15.2 10.5-20.4 5.7-15.8.9-16.7 6.4-30 1.6-3.9 4.9-10.6 2.1-15.3-.9-1.6-3.1-3.8-2.8-4.1.2-.2 1.5.6 1.4.9-.2.5-4.5.5-7.3-1.6-3.6-2.7-3.4-8.1-3.1-12.2.2-3 .5-11.4 5-13.2 3-1.2 6.7 1.2 7.3 1.6 2.1 1.3 2.5 2.6 3.7 3.8 3.8 3.6 11.2 1.8 13.8 1.2 12.3-3 19.7-14 23.7-19.8 2.7-4 4.5-7.6 5.5-9.9 8.2 7.4 14.8 8.9 19.3 8.8 5.7-.1 9.1-2.6 14.3-1.1 5.2 1.5 8.5 6 10.5 9.4C710 172.5 711.7 174.9 713.3 177.3zM819.8 466.6c.7-1.4 5.1-9.7 12.5-10.3 3.8-.3 7.3 1.8 14.1 6 5.1 3.1 7.9 4.8 7.6 6C853.6 469.8 847.4 470.6 819.8 466.6z"/><path fill="#e8bfa5" d="M864.8,473.5c6.5,0.6,16,0.7,27.1-2c10.7-2.5,19-6.7,24.5-10c0.7,4.7,2.3,10.8,6.5,16.6c2.8,3.8,5,5.2,4.7,7.2
	c-0.2,1.6-2.2,4-24.5,7.6c-11.9,1.9-17.9,2.8-21.7,1.4C870.7,490.5,866.2,478.1,864.8,473.5z"/><path stroke="#000" stroke-miterlimit="10" d="M1004.2 253.3c-.1.2-1.5-.1-3.9-1.1-2.4-.9-5.8-2.5-9.8-5-4-2.4-8.4-5.8-12.9-10-4.5-4.2-8.9-9.4-12.8-15.3-7.8-11.9-12.1-24.2-14.1-33.2-2.1-9-2.3-14.7-1.9-14.8.5-.1 1.5 5.5 4.2 14.2 2.6 8.7 7.1 20.5 14.6 32 3.8 5.7 8 10.8 12.2 15 4.2 4.2 8.4 7.6 12.1 10.2C999.1 250.6 1004.4 252.8 1004.2 253.3zM1049.4 217c.7.5-5.5 10.8-15.8 21.4-2.6 2.7-5.1 5.1-7.6 7.2-2.5 2.1-4.9 3.7-7.2 4.9-2.2 1.1-4.2 1.7-5.5 1.9-1.4.2-2.2.2-2.2 0-.1-.5 2.7-1.3 6.6-3.9 1.9-1.3 4.1-3 6.4-5.1 2.3-2.1 4.7-4.6 7.2-7.2C1041.3 225.8 1048.6 216.5 1049.4 217z"/><path stroke="#000" stroke-miterlimit="10" d="M1039.7 277.2c-1 .1-1.8-7.9-6.4-16.3-4.5-8.5-10.7-13.5-10.1-14.3.2-.3 2.2.5 4.8 2.6 1.3 1.1 2.7 2.5 4.2 4.2 1.4 1.7 2.8 3.7 4 6 1.2 2.3 2.1 4.5 2.8 6.7.6 2.1 1 4.1 1.2 5.8C1040.4 275.1 1040.1 277.1 1039.7 277.2zM1083 254.9c-.2.3-3.8-1-8.5-5.1-2.3-2-4.9-4.7-7.3-8-2.4-3.3-4.7-7.2-6.6-11.5-3.8-8.6-5.7-16.8-6.8-22.8-1.1-5.9-1.5-9.7-1.1-9.8.4-.1 1.6 3.5 3.3 9.2 1.7 5.7 3.9 13.7 7.6 22 3.7 8.2 8.4 14.9 12.5 19.1C1080.2 252.4 1083.3 254.5 1083 254.9zM1050.1 195.1c-.3-.5 2.6-2 4.9-6.2 1.1-2.1 2-4.8 2.3-8 .3-3.1-.2-6.6-1.7-9.8-.8-1.6-1.8-2.9-3-3.9-1.2-1-2.6-1.6-4-1.9-2.9-.5-5.6.4-7.2 1.9-1.7 1.5-2.4 3.3-2.8 4.6-.4 1.3-.4 2.1-.6 2.1-.2 0-.6-.7-.7-2.3 0-1.5.5-3.9 2.4-6.1 1.9-2.2 5.4-3.8 9.3-3.2 1.9.2 3.9 1.1 5.5 2.4 1.7 1.3 2.9 3.1 3.9 5 1.8 3.9 2.2 8 1.7 11.5-.5 3.6-1.8 6.6-3.3 8.9-1.6 2.2-3.3 3.6-4.6 4.3-.6.4-1.2.6-1.6.7C1050.4 195.2 1050.2 195.2 1050.1 195.1z"/><path stroke="#000" stroke-miterlimit="10" d="M1043.8,184.9c-0.4,0.2-1.3-0.6-1.9-2.3c-0.3-0.8-0.6-1.9-0.7-3.1c-0.1-1.2,0-2.5,0.4-3.9
				c0.4-1.3,0.9-2.6,1.6-3.6c0.7-1,1.4-1.8,2.1-2.4c1.4-1.1,2.6-1.4,2.8-1c0.3,0.4-0.3,1.3-1.1,2.6c-0.4,0.6-0.8,1.4-1.2,2.3
				c-0.4,0.9-0.8,1.9-1,2.9c-0.3,1.1-0.4,2.1-0.5,3.1c-0.1,1-0.1,1.8-0.1,2.6C1044.2,183.7,1044.2,184.7,1043.8,184.9z"/><path stroke="#000" stroke-miterlimit="10" d="M1050.7 184.5c-.5 0-.8-.8-1.2-1.8-.2-.5-.5-1-.8-1.4-.3-.4-.8-.8-1.3-1-.5-.2-1-.3-1.3-.2-.3 0-.7.3-1 .5-.3.3-.5.5-.6.8-.2.3-.3.5-.5.6-.2.1-.5 0-.8-.4-.3-.4-.4-1.1-.2-2 .2-.8.8-1.8 2-2.3 1.2-.6 2.6-.5 3.8.1 1.2.5 2 1.5 2.5 2.5.4 1 .5 1.9.5 2.6C1051.7 183.8 1051.1 184.5 1050.7 184.5zM1034.4 175c.2.1.2.7-.1 1.6-.3 1-1.1 2.3-2.4 3.6-1.3 1.3-3.3 2.6-5.8 3.1-1.2.2-2.6.5-4.3 0-.8-.2-1.7-.8-2.2-1.4-.6-.6-1-1.2-1.4-1.8-.8-1.2-1.4-2.4-1.8-3.7-.5-1.2-.8-2.5-1-3.7-.4-2.4-.3-4.6 0-6.4.7-3.6 2.1-5.4 2.4-5.2.5.2-.1 2.2-.1 5.5 0 3.2.7 7.7 3.3 11.7.3.5.6 1 .9 1.3.3.3.5.5.9.6.7.3 1.8.2 2.7.1 1.9-.3 3.6-1.1 4.9-1.9C1032.9 176.7 1033.9 174.8 1034.4 175zM986.7 210.8c.1.2-.1.6-.7 1-.6.4-1.7.7-3 .6-1.3-.1-2.9-.7-4.2-1.9-1.3-1.2-2.2-2.9-2.7-4.8-1-3.7-.5-7 .3-9.2.8-2.2 1.9-3.3 2.3-3.1.4.2.2 1.6 0 3.6-.2 2.1-.2 5 .5 7.9.4 1.4 1 2.6 1.7 3.5.7.9 1.6 1.4 2.5 1.8C985.1 210.8 986.4 210.3 986.7 210.8zM964.7 195c-.3.3-1.2 0-2.3-1-1.1-.9-2.2-2.5-3.1-4.5-.8-2-1.1-3.9-1.1-5.3.1-1.4.4-2.3.9-2.3.9 0 1.7 3 3.2 6.3C963.7 191.7 965.3 194.3 964.7 195zM989.3 186.6c-.4.3-1.2-.1-2.2-1.1-1-1-2.1-2.5-2.9-4.4-.8-1.9-1.2-3.8-1.2-5.2 0-1.4.3-2.2.7-2.3.9-.1 2 2.8 3.5 6.2C988.7 183.2 990 186 989.3 186.6zM1013.5 213c.3.2-.4 2.2-2.5 4.7-2.1 2.6-5.5 5.7-9.9 8.2-2.2 1.2-4.5 2.1-6.6 2.7-2.1.6-4.2.9-5.9.8-1.7-.1-3.1-.5-4-1-.8-.5-1.2-.9-1.1-1.1.2-.4 2.1.3 5-.2 1.5-.2 3.2-.6 5-1.3 1.9-.7 3.9-1.6 6-2.8C1007.8 218.6 1012.8 212.4 1013.5 213zM945.8 178.6c.1.2-.6.9-2.2 1.4-1.6.5-4.3.6-7.1-.8-1.4-.7-2.8-1.6-4-3-1.2-1.4-2.2-3.1-2.8-5-1.3-3.9-1.2-8.4-.2-12.7.5-2.2 1.3-4.3 2.1-6.2.9-1.9 1.9-3.7 2.9-5.3 2.1-3.2 4.5-5.8 6.5-7.7 4.2-3.9 7.4-5.5 7.6-5.2.3.4-2.3 2.7-6 6.8-1.8 2.1-3.8 4.6-5.7 7.7-.9 1.5-1.8 3.2-2.5 5-.7 1.8-1.4 3.7-1.9 5.6-.9 3.9-1 7.9-.1 11.1.5 1.6 1.2 3.1 2 4.2.9 1.2 2 2 3 2.7 2.2 1.3 4.3 1.6 5.8 1.5C944.8 178.6 945.7 178.3 945.8 178.6zM985.2 159.8c.1.2-.3.8-1.2 1.9-.9 1.1-2.3 2.5-4.2 4.1-1.9 1.6-4.4 3.4-7.6 4.8-1.6.7-3.5 1.2-5.5 1.2-2 0-4.3-.6-6-1.9-1.8-1.3-3.1-2.9-4.1-4.5-1-1.6-1.7-3.3-2.2-5-1-3.3-1.2-6.5-.7-9.1.4-2.6 1.4-4.5 2.2-5.7.2-.3.4-.5.6-.7.2-.2.4-.4.5-.5.3-.2.5-.3.6-.3.4.3-1.5 2.8-1.7 7.4-.1 2.3.3 5 1.3 7.9 1 2.8 2.7 5.9 5.3 7.7 2.5 1.9 5.8 1.6 8.6.6 2.8-1 5.3-2.5 7.3-3.8 2-1.4 3.6-2.5 4.7-3.3C984.4 160 985.1 159.6 985.2 159.8zM960 170.3c.2.4-.2 1-1 1.7-.7.7-1.7 1.4-2.5 2.3-.8.8-1.4 1.7-1.8 2.4-.4.7-.7 1.3-1.1 1.4-.4.1-1-.5-1.1-1.8-.1-1.2.4-3 1.8-4.3 1.3-1.3 2.8-1.9 3.8-2C959.1 169.7 959.8 169.9 960 170.3z"/><path stroke="#000" stroke-miterlimit="10" d="M988.6 167.3c-.3.9-2.4 1-4.8.5-.6-.1-1.2-.3-1.7-.5-.3-.1-.5-.2-.7-.3-.1-.1-.2-.1-.3-.1-.1 0-.1 0-.1-.1 0 0 0 0 0-.1-.1-.1-.2-.1-.2-.2 0 0 0 0-.1-.1-.1-.1-.2-.2-.2-.2 0 0-.1 0-.1 0 0 0 .1 0 0 0-.1.1-.2.1-.3.2-.1 0-.2 0-.3 0-.1-.1-.2-.4-.1-.7.2-.6.7-1 1.4-1.1.1 0 .2 0 .3 0 .1 0 .2 0 .3 0 .1 0 .2 0 .4 0 .3 0 .5 0 .8 0 .6 0 1.2.1 1.8.2C987.1 165.1 988.9 166.4 988.6 167.3zM1019.4 165.3c.2.4-1.7 2.1-5.5 3.8-1.9.8-4.3 1.6-7.2 1.9-1.4.1-2.9.1-4.5-.1-1.6-.2-3.2-.7-4.7-1.5-1.5-.7-2.9-1.7-4-2.8-1.2-1.1-2.1-2.3-2.8-3.5-1.5-2.4-2.3-4.9-2.7-7-.8-4.2-.1-6.8.3-6.7.5 0 .7 2.5 1.9 6.1.6 1.8 1.5 3.9 3 5.9.7 1 1.5 2 2.5 2.8 1 .9 2.1 1.7 3.3 2.2 1.2.6 2.5 1 3.8 1.2 1.3.2 2.6.3 3.8.3 2.5-.1 4.7-.6 6.6-1.1C1016.8 165.8 1019.1 164.8 1019.4 165.3zM987.8 111.2c-.1.5-3.4-.3-8.8-.3-5.3 0-12.7 1-19.8 4.8-7.1 3.8-12.1 9.4-15 13.8-3 4.4-4.1 7.6-4.6 7.5-.4-.1 0-3.6 2.7-8.6 1.3-2.5 3.2-5.3 5.8-8 2.6-2.7 5.8-5.3 9.7-7.4 3.9-2 7.8-3.3 11.5-3.9 3.7-.6 7.1-.6 9.9-.3C984.7 109.2 987.9 110.8 987.8 111.2zM1048.5 109.4c-.2.1-.8-.9-1.9-2.8-1.1-1.8-2.6-4.5-4.8-7.4-2.2-2.9-5.2-6.2-9.2-8.7-2-1.3-4.3-2.3-6.7-3-2.4-.7-5.1-.9-7.8-.7-2.7.2-5.4.7-8 1.4-2.5.7-4.9 1.6-7.1 2.7-4.3 2.1-7.8 4.8-10.4 7.4-2.6 2.6-4.3 5.1-5.5 6.8-1.1 1.7-1.8 2.8-2 2.7-.2-.1 0-1.3.9-3.3.8-2 2.4-4.8 4.9-7.8 2.5-3 6.1-6.1 10.7-8.6 4.6-2.4 10.1-4.2 16.2-4.6 3-.2 6.1.1 8.9.9 2.8.8 5.3 2.1 7.5 3.6 4.4 2.9 7.4 6.7 9.5 9.9 2.1 3.3 3.3 6.2 4 8.2C1048.5 108.1 1048.7 109.3 1048.5 109.4zM1078.3 172.1c-.4-.1-.1-4.9.9-12.7.5-3.9 1.1-8.5 1.8-13.7.7-5.1 1.5-10.7.1-16.1-1.4-5.4-5-9.8-8.8-13-3.8-3.2-7.9-5.1-11.6-5.6-3.7-.5-6.7.2-8.7.9-2 .7-3 1.4-3.2 1.2-.1-.1.6-1.2 2.6-2.4 2-1.2 5.3-2.3 9.4-2.1 4.2.2 9 2.1 13.2 5.5 2.1 1.7 4.1 3.7 5.9 6.1 1.8 2.4 3.3 5.2 4.1 8.3.8 3.1 1 6.3.8 9.2-.2 2.9-.6 5.7-1.1 8.2-.9 5.1-1.8 9.7-2.5 13.6C1079.9 167.4 1078.7 172.2 1078.3 172.1z"/><path stroke="#000" stroke-miterlimit="10" d="M1084.6,205c-0.3-0.4,1.5-2.2,2.7-6c0.6-1.9,0.9-4.2,0.9-6.8c0-2.6-0.4-5.6-0.9-8.7c-0.5-3.1-1.1-6-2-8.4
				c-0.9-2.4-2.2-4.4-3.4-5.8c-1.4-1.4-2.7-2.8-3.1-4.2c-0.4-1.3-0.1-2.1,0.1-2c0.2,0,0.4,0.7,1,1.5c0.6,0.8,1.9,1.7,3.6,3.1
				c1.7,1.5,3.4,3.7,4.6,6.4c1.2,2.7,2,5.8,2.5,9c0.5,3.2,0.8,6.3,0.7,9.3c-0.1,2.9-0.8,5.6-1.7,7.6c-0.9,2-2.1,3.5-3.1,4.3
				C1085.4,204.9,1084.7,205.2,1084.6,205z"/><path stroke="#000" stroke-miterlimit="10" d="M1065 225.2c.1-.5 2.2-.4 5.4-1 1.6-.3 3.4-.7 5.3-1.5 1.9-.8 3.9-1.9 5.6-3.5 1.7-1.6 2.9-3.5 3.8-5.3.9-1.9 1.3-3.7 1.6-5.2.5-3.1.2-5.2.7-5.3.4-.1 1.5 1.9 1.6 5.5 0 1.8-.3 4-1.1 6.2-.9 2.3-2.3 4.6-4.3 6.6-2.1 2-4.5 3.2-6.8 4-2.3.8-4.4 1-6.2 1C1067 226.5 1064.9 225.6 1065 225.2zM961.7 427.7c-.1-.1.3-.6 1-1.5.4-.5.9-1 1.4-1.7.5-.7 1.1-1.5 1.8-2.4 2.7-3.6 6.2-9.1 9.4-16.4 3.2-7.4 5.9-16.6 7.8-27 1.9-10.5 3.1-22.2 4.7-34.5 1.6-12.3 3.8-24.1 7.6-34.3 3.7-10.2 8.9-18.8 14.3-25 5.4-6.2 10.9-10.2 15-12.3 1-.5 1.9-1 2.7-1.3.8-.4 1.5-.6 2.1-.8 1.1-.4 1.8-.6 1.8-.5 0 .1-.5.5-1.5 1.1-.5.3-1.2.6-1.9 1.1-.7.5-1.6 1-2.5 1.6-3.8 2.4-8.9 6.5-13.9 12.7-5 6.2-9.7 14.6-13.2 24.6-3.5 10-5.6 21.5-7.2 33.7-1.6 12.2-2.8 24-5 34.6-2.1 10.6-5.1 20-8.6 27.4-3.5 7.4-7.4 12.9-10.5 16.3-.8.8-1.5 1.6-2.1 2.2-.6.6-1.2 1.1-1.6 1.5C962.3 427.4 961.7 427.8 961.7 427.7z"/><path stroke="#000" stroke-miterlimit="10" d="M1012.8 363.7c-.9.3-3.4-5.5-6.6-12.5-3.2-7-5.9-12.6-5.1-13.1.7-.5 4.8 4.6 8.1 11.8C1012.5 357.1 1013.7 363.5 1012.8 363.7zM1000.9 572.6c-.2 0-.6-3.1-1.1-8.6-.1-1.4-.3-2.9-.4-4.6-.1-1.7-.2-3.5-.4-5.5-.2-4-.5-8.5-.7-13.5-.1-2.5-.2-5.1-.3-7.9-.1-2.7-.1-5.6-.1-8.5-.1-5.9 0-12.2 0-18.8.2-13.3.8-27.8 2-43.1 1.2-15.3 2.9-29.7 4.7-42.9 1-6.6 1.9-12.8 2.9-18.6.5-2.9 1-5.7 1.5-8.4.5-2.7 1-5.3 1.5-7.7.9-4.9 1.9-9.3 2.8-13.2.4-1.9.8-3.7 1.2-5.4.4-1.7.8-3.2 1.1-4.5 1.4-5.4 2.3-8.4 2.5-8.4.2 0-.2 3.1-1.2 8.6-.3 1.4-.5 2.9-.9 4.6-.3 1.7-.6 3.5-1 5.5-.7 3.9-1.5 8.4-2.3 13.3-.4 2.5-.8 5-1.3 7.7-.4 2.7-.8 5.5-1.3 8.4-.9 5.8-1.7 12-2.6 18.6-1.7 13.1-3.2 27.5-4.4 42.7-1.2 15.2-1.9 29.7-2.3 42.9-.1 6.6-.3 12.9-.3 18.7 0 2.9-.1 5.8 0 8.5 0 2.7 0 5.3.1 7.8 0 5 .1 9.5.2 13.5 0 2 .1 3.8.1 5.5 0 1.7.1 3.3.1 4.7C1001.2 569.5 1001.2 572.6 1000.9 572.6zM1128.4 516.4c-.4.1-1.7-5.8-2.8-15.5-.3-2.4-.5-5.1-.7-7.9-.2-2.9-.3-5.9-.4-9.1-.1-6.4 0-13.5.4-21 .5-7.4 1.3-14.5 2.3-20.8.5-3.2 1-6.2 1.6-9 .5-2.8 1.1-5.4 1.7-7.8 2.3-9.5 4.4-15.1 4.8-15 .5.1-.8 6-2.5 15.5-.4 2.4-.9 5-1.3 7.8-.5 2.8-.9 5.8-1.3 9-.8 6.3-1.5 13.3-2 20.6-.5 7.3-.6 14.3-.7 20.7 0 3.2 0 6.2.1 9.1 0 2.8.2 5.5.3 7.9C1128.4 510.4 1128.9 516.4 1128.4 516.4zM1110.4 574.3c-.4-.1 1.6-6.8 5.5-17.3 2-5.2 4.5-11.4 7.4-18.2 3-6.8 6.4-14.2 10.1-21.8 3.8-7.6 7.6-14.8 11.3-21.3 3.6-6.4 7.1-12.2 10-16.9 6-9.5 10.1-15 10.4-14.8.4.3-3 6.3-8.4 16-2.7 4.9-5.9 10.7-9.4 17.2-3.5 6.5-7.2 13.7-11 21.3-3.8 7.6-7.2 14.9-10.3 21.6-3.1 6.7-5.8 12.7-8 17.9C1113.6 568.1 1110.9 574.5 1110.4 574.3zM1124 592.9c-.2-.1.6-2.3 2.3-6.1 1.8-3.8 4.5-9.2 8.4-15.6 3.8-6.4 8.7-13.9 14.4-21.9 5.7-8 12.2-16.7 18.9-25.8 6.7-9.1 13.1-17.9 18.2-26.1 5.2-8.3 9.1-16.1 11.7-23 2.6-6.9 3.7-12.8 4.3-16.8.1-1 .3-1.9.4-2.7.1-.8.1-1.5.2-2 .1-1.1.2-1.7.4-1.7.1 0 .2.6.3 1.7 0 .6.1 1.2.1 2 0 .8 0 1.7-.1 2.8-.2 4.2-1 10.3-3.3 17.5-2.3 7.2-6.1 15.4-11.3 23.8-5.1 8.5-11.4 17.3-18.2 26.5-6.8 9.1-13.3 17.7-19.1 25.6-5.8 7.9-10.8 15.2-14.9 21.4-4.1 6.2-7 11.4-9.2 15C1125.4 591 1124.2 593 1124 592.9zM1080.6 625.3c-.4 0-1-3 0-7.8.5-2.4 1.4-5.2 2.7-8.1 1.3-2.9 3.1-6 5.1-9 4.1-6.1 8.2-11.1 10.9-14.9 2.8-3.7 4.4-6.2 4.8-6 .4.2-.5 3.1-2.9 7.2-2.3 4.2-6.2 9.5-10.2 15.4-4 5.9-6.8 11.6-8.2 15.9C1081.4 622.4 1081.1 625.3 1080.6 625.3z"/><path stroke="#000" stroke-miterlimit="10" d="M1097.1 611.7c.6.6-2.1 4.4-6.4 7.9-4.3 3.6-8.6 5.5-9 4.7-.5-.8 2.8-3.8 7-7.3C1092.8 613.7 1096.4 611 1097.1 611.7zM1121.4 647.3c-.2.4-2.5-.4-5.8-2.5-1.6-1-3.5-2.5-5.4-4.2-1.9-1.8-3.8-3.9-5.6-6.2-1.8-2.4-3.2-4.8-4.4-7.1-1.1-2.3-2-4.5-2.5-6.3-1.1-3.7-1.2-6.2-.8-6.2.5-.1 1.3 2.1 2.9 5.4.8 1.7 1.8 3.6 3 5.8 1.2 2.1 2.7 4.4 4.3 6.6 1.7 2.2 3.4 4.3 5.1 6 1.7 1.8 3.3 3.3 4.6 4.5C1119.9 645.4 1121.7 646.9 1121.4 647.3zM1121.9 646.5c-.8.4-4.5-5.8-6.7-14.4-1.7-6.4-1.9-12.2-1.6-14.6l1.2-.2c0 .8-.1 1.3-.4 1.3-.2 0-.5-.3-.9-1l1.2-.2c.8 2.3 1.9 7.7 3.5 13.9C1120.4 639.5 1122.7 646.1 1121.9 646.5z"/><path stroke="#000" stroke-miterlimit="10" d="M1130.8,649.5c-0.1,0.4-0.7,0.8-1.8,0.8c-1.1,0-2.6-0.3-4-1.1c-1.4-0.8-2.5-1.9-3-2.8
				c-0.5-0.9-0.6-1.7-0.3-2c0.7-0.5,2.6,0.7,4.9,2C1128.8,647.7,1130.9,648.6,1130.8,649.5z"/><path stroke="#000" stroke-miterlimit="10" d="M1132,650.3c-0.1,0.2-0.7,0-1.4-0.7c-0.7-0.6-1.6-1.8-2.3-3.3c-0.7-1.6-1.2-3.5-1.6-5.6
				c-0.4-2.1-0.7-4.3-1.1-6.7c-1.3-9.6-1.7-17.4-0.8-17.5c0.9-0.1,2.7,7.5,4,17.1c0.3,2.4,0.6,4.7,0.8,6.7c0.2,2.1,0.5,3.8,0.8,5.3
				C1131.2,648.4,1132.4,649.9,1132,650.3z"/><path stroke="#000" stroke-miterlimit="10" d="M1131.8 649.3c-1-.2 2-12.8.7-28.4-1.1-15.6-5.8-27.6-4.9-28 .4-.2 2.1 2.6 3.9 7.6.5 1.2.9 2.6 1.3 4.1.5 1.5.8 3.1 1.2 4.8.7 3.4 1.3 7.2 1.6 11.3.3 4 .2 7.9 0 11.4-.2 1.7-.3 3.4-.5 4.9-.2 1.5-.5 3-.7 4.3C1133.5 646.4 1132.2 649.5 1131.8 649.3zM1091.6 595.2c.1.2-1 1.1-3.1 2.4-2.2 1.3-5.4 3-9.7 4.6-4.2 1.6-9.5 3.1-15.5 4-6 .9-12.7 1.1-19.6.3-6.9-.8-13.4-2.6-19-4.8-5.6-2.2-10.4-4.9-14.2-7.4-3.8-2.6-6.6-5-8.4-6.7-1.8-1.8-2.7-2.9-2.5-3.1.4-.4 4.5 3.4 12.1 7.8 3.8 2.2 8.5 4.6 14 6.6 5.5 2 11.7 3.6 18.3 4.4 6.7.7 13.1.6 18.9-.1 5.8-.7 10.9-1.9 15.1-3.2C1086.4 597.4 1091.3 594.7 1091.6 595.2zM1099.4 567c.1.2-.7 1.1-2.4 2.6-.4.4-.9.8-1.4 1.3-.5.4-1.2.9-1.8 1.4-1.3.9-2.8 2.1-4.6 3.1-.9.5-1.8 1.1-2.8 1.6-1 .6-2 1-3.1 1.6-2.1 1.1-4.6 2-7.1 3-5.1 1.8-11 3.3-17.2 4.1-6.3.7-12.3.6-17.7 0-2.7-.4-5.3-.7-7.6-1.3-1.2-.3-2.3-.5-3.4-.8-1.1-.3-2.1-.7-3.1-1-2-.6-3.7-1.3-5.2-2-.7-.3-1.4-.6-2.1-.9-.6-.3-1.2-.6-1.7-.9-2-1.1-3-1.8-2.9-2s1.3.1 3.5.9c.5.2 1.1.4 1.8.6.6.2 1.4.4 2.1.6 1.5.4 3.2 1 5.2 1.4 1 .2 2 .5 3 .7 1.1.2 2.2.4 3.3.6 2.3.5 4.8.7 7.4 1 5.2.4 11 .4 17-.3 6-.7 11.6-2.1 16.6-3.7 2.5-.9 4.8-1.7 7-2.6 1.1-.5 2.1-.9 3.1-1.4 1-.5 1.9-1 2.8-1.4 1.8-.8 3.3-1.8 4.7-2.6.7-.4 1.3-.8 1.9-1.1.6-.4 1.1-.7 1.6-1C1098.2 567.4 1099.3 566.8 1099.4 567zM1106.6 555.6c.2.9-6.2 3.1-13.6 6.7-7.5 3.5-13.2 7-13.8 6.3-.3-.4.9-1.7 3.1-3.5 2.2-1.8 5.5-3.9 9.3-5.7 3.9-1.8 7.6-3 10.4-3.6C1104.7 555.2 1106.5 555.2 1106.6 555.6zM1029.8 951.1c-.1 0-.4-1.2-.8-3.5-.4-2.3-1-5.8-1.6-10.2-.7-4.4-1.5-9.8-2.3-16.1-.9-6.3-1.9-13.5-2.9-21.4-2.1-15.9-4.3-34.8-6.7-55.8-2.3-21-4.7-44.2-6.9-68.5-2.2-24.3-4-47.5-5.5-68.6-1.5-21.1-2.6-40.1-3.5-56.1-.4-8-.8-15.2-1-21.6-.3-6.3-.5-11.8-.6-16.3-.1-4.5-.2-7.9-.2-10.3 0-2.4 0-3.6.1-3.6.1 0 .3 1.2.5 3.6.2 2.3.5 5.8.8 10.3.6 8.9 1.6 21.8 2.7 37.8 1.1 15.9 2.5 34.9 4.2 56 1.7 21.1 3.6 44.2 5.8 68.5 2.2 24.3 4.5 47.4 6.6 68.4 2.2 21 4.2 39.9 6 55.8 1.7 15.9 3.2 28.8 4.1 37.6.5 4.4.8 7.9 1 10.3C1029.9 949.9 1030 951.1 1029.8 951.1zM1100.4 955.2c.2.4-3 2.9-8.9 5.7-3 1.4-6.6 2.9-10.7 4.2-4.2 1.3-8.8 2.3-13.8 3-5 .6-9.8.8-14.1.6-4.3-.2-8.2-.7-11.5-1.4-6.4-1.3-10.2-2.9-10.1-3.3.1-.5 4.1.3 10.4 1 3.2.3 7 .6 11.2.6 4.2 0 8.8-.2 13.7-.8 4.8-.6 9.4-1.6 13.4-2.7 4.1-1.1 7.7-2.3 10.7-3.4C1096.6 956.6 1100.2 954.8 1100.4 955.2zM1055.1 682.4c-.6.7-7.6-4.6-15.6-11.9-4-3.6-7.5-7-10-9.6-1.2-1.3-2.1-2.4-2.8-2.9-.7-.5-1.2-.7-1.2-.9 0-.2.6-.5 1.8-.2.6.2 1.2.5 1.8.9.6.4 1.3.9 2 1.4 2.8 2.1 6.6 5.3 10.6 8.9C1049.7 675.4 1055.7 681.8 1055.1 682.4z"/><path stroke="#000" stroke-miterlimit="10" d="M1106.3 969.3c-.1 0-.4-1-.9-2.9-.5-1.9-1.2-4.8-2-8.5-1.7-7.4-4-18.2-6.8-31.5-5.6-26.7-13.2-63.5-21.3-104.3-4-20.4-7.9-39.8-11.4-57.5-3.5-17.7-6.4-33.6-9.2-47-2.7-13.3-5.3-24-7.2-31.4-1.9-7.4-3.1-11.4-2.8-11.5.1 0 .5.9 1.2 2.8.7 1.9 1.7 4.7 2.8 8.3 2.3 7.3 5.2 18 8.2 31.3 3 13.3 6.2 29.2 9.8 46.8 3.6 17.7 7.5 37.1 11.6 57.4 8.1 40.8 15.3 77.7 20.4 104.5 2.5 13.4 4.5 24.2 5.8 31.7.7 3.8 1.1 6.7 1.4 8.7C1106.3 968.3 1106.4 969.3 1106.3 969.3zM1181.4 962.6c-.1 0-.5-1-1.1-2.9-.6-2-1.5-4.9-2.6-8.6-.6-1.9-1.2-4-1.8-6.2-.6-2.3-1.3-4.8-2-7.5-1.4-5.4-3.1-11.5-4.8-18.3-.8-3.4-1.7-6.9-2.6-10.7-.9-3.7-1.8-7.6-2.7-11.6-1.9-8-3.7-16.6-5.6-25.7-3.7-18.1-7.3-38.1-10.5-59.2-3.1-21.1-5.5-41.3-7.4-59.7-.8-9.2-1.7-18-2.2-26.2-.3-4.1-.6-8.1-.8-11.9-.2-3.8-.4-7.5-.6-11-.4-7-.6-13.3-.8-18.9-.1-2.8-.2-5.4-.2-7.7 0-2.4-.1-4.6-.1-6.5 0-3.9 0-6.9 0-9 0-2.1.1-3.1.2-3.1.1 0 .3 1.1.4 3.1.2 2.1.4 5.1.6 9 .1 1.9.2 4.1.4 6.5.2 2.4.3 4.9.5 7.7.4 5.5.7 11.8 1.3 18.8.3 3.5.5 7.1.8 10.9.3 3.8.7 7.7 1 11.8.7 8.2 1.6 16.9 2.5 26.1 2 18.3 4.5 38.5 7.6 59.5 3.2 21.1 6.7 41 10.2 59.1 1.8 9 3.5 17.7 5.3 25.7.9 4 1.7 7.9 2.5 11.6.8 3.7 1.7 7.3 2.4 10.7 1.5 6.8 3 12.9 4.3 18.3.6 2.7 1.2 5.2 1.8 7.5.6 2.3 1.1 4.4 1.6 6.3.9 3.8 1.6 6.7 2.1 8.8C1181.4 961.5 1181.5 962.6 1181.4 962.6z"/><path stroke="#000" stroke-miterlimit="10" d="M1181.9 959c.1.2-.6 1-2.1 2.4-.4.3-.8.7-1.3 1.1-.5.4-1 .8-1.6 1.2-1.2.9-2.4 1.9-4 2.8-.8.5-1.6 1-2.4 1.5-.8.5-1.8 1-2.7 1.5-1.9 1.1-4 2-6.2 2.9-4.4 1.8-9.5 3.5-14.9 4.6-5.5 1.1-10.7 1.5-15.6 1.6-2.4-.1-4.7-.1-6.8-.3-1.1-.1-2.1-.2-3.1-.3-1-.2-1.9-.3-2.8-.5-1.8-.3-3.4-.7-4.8-1-.7-.2-1.3-.3-1.9-.5-.6-.2-1.1-.4-1.6-.6-1.9-.7-2.9-1.2-2.9-1.4.1-.5 4.5.5 11.5 1.2.9.1 1.8.2 2.8.2 1 .1 2 .1 3 .1 2.1.1 4.3 0 6.6 0 4.6-.2 9.7-.7 15-1.8 5.2-1.1 10.1-2.6 14.5-4.2 2.1-.9 4.2-1.7 6.1-2.6.9-.4 1.9-.8 2.7-1.3.8-.4 1.7-.9 2.4-1.3C1178 961.2 1181.6 958.5 1181.9 959zM1097.1 1033.6c-.8.1-2.6-13.5-1.4-30.2 1.1-16.8 4.7-29.9 5.6-29.7.9.2-1.2 13.5-2.3 30C1097.8 1020.1 1098.1 1033.5 1097.1 1033.6zM1054.2 1016.3c-.9 0-1.5-10.7-2.2-23.8-.7-13.1-1.2-23.8-.3-23.9.9-.1 2.9 10.5 3.6 23.8C1056 1005.6 1055.1 1016.3 1054.2 1016.3zM1021 1045.4c.4.9-11.4 5.8-23.7 15.2-6.2 4.7-11.3 9.4-15 13-.9.9-1.8 1.7-2.3 2.4-.6.7-.9 1.4-1.1 2-.4 1.1.4 1.7.2 1.9-.1.1-.3.1-.7-.2-.4-.2-.8-.9-.8-1.8 0-.9.3-1.8.8-2.9.3-.5.7-1 1-1.5.4-.5.7-.9 1.1-1.5 3.2-4.1 8.3-9.3 14.7-14.1 6.4-4.8 12.8-8.2 17.6-10.2C1017.7 1045.7 1020.9 1045 1021 1045.4z"/><path stroke="#000" stroke-miterlimit="10" d="M1052.5 1020c.4.9-8.6 4.8-17.8 12.3-9.3 7.4-15 15.3-15.9 14.7-.4-.2.6-2.5 3-5.9 1.2-1.7 2.7-3.5 4.5-5.5 1.8-1.9 4-4 6.4-5.9 2.4-1.9 4.9-3.6 7.2-4.9 2.3-1.3 4.5-2.4 6.3-3.2C1049.8 1020 1052.3 1019.6 1052.5 1020zM1071.4 1036.6c-.8.4-3.7-4.1-8.3-8.6-4.6-4.5-9.1-7.3-8.7-8.2.2-.4 1.6-.2 3.7.7 2.1.9 4.8 2.7 7.3 5.1 2.5 2.5 4.3 5.1 5.2 7.2C1071.6 1035 1071.8 1036.4 1071.4 1036.6zM1095.4 1035.7c-.3.4-1.5.1-3.3-.4-.9-.2-2-.4-3.2-.6-1.2-.1-2.6-.2-4-.2-1.4.1-2.7.2-3.9.5-1.2.2-2.3.5-3.2.8-1.8.5-3 1-3.3.6-.3-.3.5-1.5 2.3-2.7.9-.6 2.1-1.2 3.4-1.6 1.4-.4 2.9-.7 4.6-.8 1.7-.1 3.2.1 4.6.5 1.4.4 2.6.8 3.5 1.4C1094.8 1034.2 1095.7 1035.3 1095.4 1035.7zM1100.6 1057.8c-.9-.3.1-4.8-.7-10.2-.7-5.4-3-9.4-2.2-10 .3-.3 1.4.5 2.6 2.1 1.2 1.7 2.4 4.3 2.8 7.4.4 3.1 0 6-.6 7.9C1101.8 1057 1101 1058 1100.6 1057.8zM1082.7 1077.3c.2.3-5 3.2-14.3 5.3-4.6 1.1-10.2 1.9-16.4 2.4-6.2.5-13.1.6-20.2.6-14.3 0-27.2-.2-36.6-.5-9.4-.3-15.1-.7-15.1-1.2 0-.5 5.8-.9 15.1-1.2 9.4-.3 22.3-.5 36.6-.5 7.1 0 13.9 0 20-.3 6.1-.3 11.6-.9 16.2-1.6C1077.1 1078.9 1082.5 1076.8 1082.7 1077.3zM1039.2 1041.8c.2-.1.6.3 1 1.2.2.5.4 1.3.5 2.2 0 .5 0 .9 0 1.4 0 .3 0 .5 0 .8 0 .1 0 .3 0 .4l-.2.2c-.7-.2-1.5-.5-2.3-.8-.4-.1-.9-.3-1.3-.4-.2 0-.3-.1-.5-.1l-.4-.1-.4-.1c-.2 0-.2 0-.2 0-.1 0-.2 0-.3 0-.2 0-.4 0-.6 0-.2 0-.4 0-.5.1l-.1 0c0 0 0 0 0 0l.1.1.3.2c.2.1.3.3.5.4l.2.2c.4.4.9.8 1.3 1.3.5.5.9 1 1.1 1.4.2.4.4.8.4 1.3 0 .4-.1 1-.5 1.4-.3.3-.6.5-1 .7-.4.2-1 .3-1.6.3-.6 0-1.2 0-1.8.1-.7 0-1.5 0-2.2 0-2.7 0-5.1 0-7.1-.1-1 0-1.9-.1-2.7-.1-.4 0-.8-.1-1.1-.1-.3 0-.7-.1-.9-.1-.2 0-.4 0-.5.1-.1.1 0 .2.1.2.1 0 .2 0 .2-.1 0-.1 0-.2 0-.2 0-.1 0-.1-.1-.1 0 0 0 0-.1 0 0 0-.1-.1-.1-.1-.1 0-.2-.1-.3-.1-.2-.1-.4-.3-.2-.5.1-.2.4-.4.8-.5.4-.1.6-.1 1-.2.3-.1.7-.1 1.1-.2.8-.1 1.7-.2 2.7-.3 2-.2 4.4-.4 7.1-.6.6 0 1.3-.1 1.9-.1.2 0 .3 0 .5-.1.1 0 .2 0 .2-.1.1 0 .1-.2 0-.2-.1-.2-.2-.3-.4-.4-.7-.7-1.4-1.4-2-2.1-.5-.5-1-1-1.5-1.5-.3-.3-.4-.5-.6-.7l-.5-.6c-.3-.4-.7-.8-1-1.3l-.5-.6c0 0-.1-.1-.1-.1l.2 0 .5 0c1.2 0 2.3 0 3.4 0 1.1 0 2.2.1 3.2.3 1 .1 2.3.5 2.8.6l.5.1c.1 0 .4.1.4.1.1.1.2.1.4.2.2.1.5.3.8.4l.2.1c.1 0 0-.1.1-.1 0-.1.1-.2.1-.2.1-.2.1-.3.1-.5.1-.4.1-.7.1-1.1C1039.1 1042.4 1039 1041.9 1039.2 1041.8zM1137.4 1031.8c-.9.1-2.9-12-6.2-26.8-3.2-14.7-6.5-26.6-5.6-26.9.8-.3 5.5 11.2 8.8 26.2C1137.6 1019.3 1138.2 1031.8 1137.4 1031.8zM1173.5 1043.9c-.9 0-2.3-17.2-3.9-38.5-1.6-21.3-2.7-38.6-1.8-38.6.9-.1 3.5 17.1 5 38.4C1174.5 1026.5 1174.4 1043.9 1173.5 1043.9z"/><path stroke="#000" stroke-miterlimit="10" d="M1105.6,1060.5c0.2,0.4-2.7,2.1-7.1,5c-4.4,2.9-10.2,7.3-16.3,12.6c-6.1,5.3-11.4,10.5-15.3,14.1
				c-2,1.8-3.7,3.2-4.7,4.2c-1.1,1-1.6,1.6-1.8,1.5c-0.2-0.1,0-1,0.8-2.3c0.8-1.4,2.3-3,4-5c3.6-4,8.6-9.4,14.8-14.9
				c6.2-5.5,12.4-9.7,17.3-12.2C1102.1,1061,1105.4,1060.2,1105.6,1060.5z"/><path stroke="#000" stroke-miterlimit="10" d="M1140.3,1032.3c0.1,0.5-2.4,1.4-6.2,3.4c-0.5,0.2-1,0.5-1.5,0.8c-0.5,0.3-1,0.6-1.6,0.9
				c-1.1,0.6-2.2,1.4-3.4,2.1c-2.3,1.6-4.8,3.5-7.2,5.6c-4.9,4.3-9,8.7-11.9,11.8c-3,3.2-4.9,5.1-5.2,4.8c-0.3-0.3,0.9-2.7,3.5-6.3
				c2.6-3.6,6.4-8.3,11.6-12.8c2.6-2.2,5.2-4.1,7.8-5.7c1.3-0.7,2.5-1.4,3.7-2c0.6-0.3,1.2-0.6,1.7-0.8c0.6-0.2,1.1-0.4,1.6-0.6
				C1137.4,1032.1,1140.2,1031.9,1140.3,1032.3z"/><path stroke="#000" stroke-miterlimit="10" d="M1152.4 1049.1c-.9.2-2.4-4.5-6.1-8.8-3.7-4.4-8-6.5-7.7-7.4.1-.4 1.5-.4 3.5.4 1 .4 2.1 1 3.3 1.8 1.2.8 2.3 1.9 3.4 3.1 1.1 1.3 1.9 2.6 2.6 3.8.6 1.3 1 2.5 1.3 3.5C1153 1047.7 1152.8 1049.1 1152.4 1049.1zM1171.9 1041.8c-.2.9-4.2.9-8.4 3-4.3 2-6.8 5.1-7.6 4.7-.4-.2-.2-1.4.8-3 .5-.8 1.2-1.6 2.1-2.5.9-.8 2-1.6 3.3-2.2 1.3-.6 2.6-1 3.8-1.2 1.2-.2 2.3-.2 3.2-.1C1171 1040.8 1172 1041.4 1171.9 1041.8zM1177.7 1078c-.9 0-1.7-7.6-2.2-17-.2-4.7-.3-8.9-.3-12 0-.8 0-1.5.1-2.1 0-.3 0-.5.1-.8 0-.2 0-.4 0-.6 0-.3-.2-.6-.3-.7-.1-.1-.2-.1-.2-.2.1-.1.2-.3.5-.3.3 0 .7.2 1.1.7.2.2.3.5.4.8.1.4.2.6.2.9.1.6.3 1.3.4 2.1.5 3.1 1 7.3 1.2 12C1179.3 1070.3 1178.6 1077.9 1177.7 1078zM1169.1 1089.5c.1.4-5.5 1.9-14.6 4-9.1 2-21.7 4.6-35.6 7.3-7 1.3-13.7 2.5-19.8 3.3-6.1.8-11.7 1.2-16.4 1.2-9.4 0-15.1-1.4-15.1-1.8.1-.5 5.8.1 15-.5 4.6-.3 10.1-.9 16.1-1.8 6-.9 12.6-2.2 19.6-3.5 13.9-2.7 26.6-4.9 35.8-6.4C1163.3 1089.7 1169 1089 1169.1 1089.5zM1129.8 1054.4c0 .2-.3.3-.8.4-.2.1-.5.1-.9.2-.4.1-.6.2-.8.3-.2.1-.5.2-.7.4 0 0-.1 0-.1.1l.1.1.1.2c.1.1.1.3.2.4.1.2.1.2.2.6.2.5.4 1.1.6 1.6.4 1.1.8 2.4 1.2 3.7-1-.1-2-.2-3.1-.4-.5-.1-1.1-.1-1.6-.2l-.4 0-.3 0-.5 0c-1.2 0-2.5 0-3.8 0-.7 0-1.4.1-2.1.2l1.3-2.2c.2.5.4 1.1.6 1.6.1.3.2.6.3.9.1.4.3.9.4 1.3.3.9.5 1.7.7 2.5.1.4.2.8.3 1.2l.1.6c0 .1-.1 0-.1 0l-.2 0-.3-.1c-.8-.2-1.5-.3-2.3-.5-.7-.2-1.4-.3-2.1-.5-.3-.1-.6-.2-.9-.2-.2-.1-.4-.1-.6-.2-.4-.1-.7-.2-1.1-.3-2.8-.9-4.4-1.6-4.3-2 .1-.4 1.9-.4 4.8-.2.4 0 .7.1 1.1.1.2 0 .4 0 .6.1.1 0 .2 0 .2 0l.1 0c.3 0 .6 0 .9 0 0 0 .1 0 .1 0l-.1-.1-.1-.2c-.1-.1-.1-.3-.2-.4l-.1-.2c-.1-.2-.2-.4-.2-.6-.2-.5-.4-1-.6-1.5l-.8-1.9 2.1-.3c.7-.1 1.5-.2 2.3-.2 1.4-.1 2.8-.1 4.1 0l.5 0 .1 0 0 0 .1 0 .3 0c.2 0 .4.1.6.1 0-.1 0-.4-.1-.6 0-.1 0-.3 0-.4-.1-.5-.2-.9-.3-1.3-.1-.2-.1-.5-.2-.7 0-.2-.1-.4-.1-.6 0-.2-.1-.4-.1-.6l0-.3c.1 0 .2-.1.3-.1.8-.2 1.5-.4 2.2-.5.7-.1 1.3-.1 1.6 0 .4.1.7.1 1 .2C1129.6 1054 1129.9 1054.2 1129.8 1054.4zM1028 328.9c-.4.1-1.6-2.5-2.4-7-.4-2.3-.7-5-.8-8 0-3 .1-6.4.4-9.8.7-6.9 2-13 3-17.4 1-4.4 1.8-7.1 2.3-7 .4.1.4 2.9 0 7.4-.4 4.5-1.3 10.6-2 17.4-.3 3.4-.6 6.6-.7 9.5-.1 2.9-.1 5.6 0 7.8C1028.1 326.1 1028.5 328.8 1028 328.9zM1092 271c.3.4-3.3 3.1-8.8 7.6-1.4 1.1-2.9 2.4-4.4 3.8-1.6 1.4-3.2 2.9-5 4.5-3.4 3.3-7.1 6.9-10.7 11-3.6 4.1-6.8 8.1-9.7 11.9-1.4 1.9-2.7 3.7-3.9 5.5-1.2 1.7-2.3 3.4-3.3 4.9-3.9 6-6.1 9.9-6.6 9.7-.4-.2 1.1-4.4 4.6-10.8.9-1.6 1.8-3.3 3-5.1 1.1-1.8 2.4-3.7 3.7-5.7 2.8-3.9 6-8.1 9.7-12.3 3.7-4.1 7.5-7.8 11.1-11 1.8-1.6 3.5-3.1 5.3-4.4 1.7-1.3 3.3-2.5 4.8-3.6C1087.8 272.6 1091.8 270.7 1092 271zM1082.2 261c.1.2-.7 1.1-2.3 2.6-1.6 1.6-3.9 3.8-6.5 6.7-2.6 2.9-5.6 6.5-8.9 10.7-3.2 4.1-6.7 8.8-10.5 13.5-1.9 2.4-3.9 4.7-5.8 6.8-1 1.1-2.2 2.3-4.1 2.9-.9.3-2 .2-3-.1-1-.3-1.7-1-2.2-1.6-1.1-1.3-1.5-2.7-1.9-4-.3-1.3-.5-2.5-.7-3.7-.3-2.4-.4-4.7-.3-6.7.2-4.1 1-7.3 1.8-9.5.8-2.1 1.4-3.2 1.6-3.1.2.1 0 1.3-.4 3.5-.4 2.2-.8 5.3-.7 9.2.1 1.9.3 4 .7 6.3.2 1.1.5 2.3.8 3.4.3 1.1.8 2.1 1.4 2.9.6.7 1.3.9 2 .7.8-.2 1.7-1.1 2.6-2.1 1.8-2.1 3.7-4.4 5.6-6.7 3.8-4.7 7.3-9.3 10.7-13.4 3.4-4.1 6.6-7.6 9.5-10.4 2.9-2.8 5.5-4.8 7.3-6.1C1081 261.4 1082.1 260.8 1082.2 261zM1105.3 350.1c-.4.8-5.1-.6-10.9-1.9-5.8-1.3-10.6-2.1-10.6-3 0-.9 5.2-1.6 11.3-.2C1101.3 346.4 1105.6 349.3 1105.3 350.1z"/><path stroke="#000" stroke-miterlimit="10" d="M1162.6 462.3c-.5.2-3.3-6.5-8.3-17.1-.6-1.3-1.3-2.7-2-4.2-.7-1.4-1.5-2.9-2.2-4.5-1.5-3.1-3.2-6.4-5-9.8-3.6-6.9-7.7-14.3-12.2-22.1-9-15.5-17.7-29.2-23.8-39.2-6.2-10-9.9-16.3-9.5-16.6.4-.2 4.7 5.6 11.4 15.3 6.7 9.7 15.6 23.3 24.7 38.9 4.5 7.8 8.6 15.4 12.1 22.3 1.7 3.5 3.4 6.8 4.8 10 .7 1.6 1.4 3.1 2.1 4.6.6 1.5 1.2 2.9 1.8 4.3C1160.9 455.1 1162.9 462.2 1162.6 462.3zM1199.8 434c-.2.1-1.8-2.3-4.2-6.9-2.5-4.6-5.7-11.4-9.3-20.1-3.6-8.6-7.3-19.1-11.4-30.7-4.1-11.6-8.5-24.4-14-37.4-2.8-6.5-5.7-12.7-8.9-18.6-3.1-5.9-6.5-11.3-9.9-16.4-6.9-10-14.3-18.3-21.3-24.3-3.5-3-6.8-5.5-9.8-7.6-1.5-1-3-1.9-4.3-2.8-1.4-.8-2.6-1.5-3.7-2.1-.6-.3-1.1-.6-1.6-.9-.5-.3-1-.5-1.4-.7-.9-.4-1.6-.8-2.3-1.1-1.2-.6-1.8-1-1.8-1.1 0-.1.7.1 2 .5.7.2 1.5.5 2.4.9.5.2 1 .4 1.5.6.5.2 1.1.5 1.7.8 1.2.6 2.5 1.2 3.9 1.9 1.4.8 2.9 1.7 4.5 2.6 3.2 2 6.7 4.4 10.3 7.4 7.3 5.9 15 14.2 22.2 24.3 3.5 5.1 7.1 10.6 10.3 16.6 3.2 5.9 6.3 12.2 9.1 18.8 5.5 13.2 9.9 26 13.8 37.7 3.9 11.7 7.4 22.2 10.7 30.8 3.3 8.7 6.2 15.6 8.3 20.4C1198.8 431.3 1200 433.9 1199.8 434zM1096.3 262.6c-.7.6-3-1.2-5.8-3.3-2.7-2.1-5.1-3.7-4.8-4.6.2-.4 1-.5 2.3-.2 1.3.3 2.9 1 4.4 2.2 1.6 1.2 2.7 2.5 3.4 3.6C1096.5 261.5 1096.7 262.3 1096.3 262.6zM1165.4 316.3c-.9.3-5.1-12-13.2-25.5-2-3.4-4-6.6-6.1-9.2-2.1-2.6-4.2-4.8-6.1-6.3-3.9-3.1-7.2-3.8-7-4.3 0-.1.2-.2.6-.2.4 0 1 0 1.7.2 1.5.3 3.6 1 6 2.4 2.3 1.4 4.8 3.6 7.1 6.3 2.3 2.7 4.5 6 6.5 9.4 4.1 7 7 13.8 8.6 18.8C1165.3 312.9 1165.8 316.2 1165.4 316.3zM952.2 433.8c.2.3-3.8 4.2-11.1 9.4-.9.6-1.9 1.3-2.9 2-1 .7-2.1 1.4-3.2 2.1-2.2 1.5-4.7 2.8-7.3 4.3-5.2 2.9-11.1 5.8-17.5 8.4-6.4 2.6-12.7 4.6-18.4 6.2-2.9.7-5.6 1.5-8.2 2-1.3.3-2.6.5-3.8.8-1.2.2-2.4.4-3.5.6-8.9 1.4-14.5 1.4-14.6 1-.1-.5 5.4-1.3 14.1-3.2 1.1-.2 2.2-.5 3.4-.8 1.2-.3 2.4-.6 3.7-.9 2.5-.6 5.2-1.4 8-2.2 5.6-1.7 11.7-3.8 18-6.3 6.3-2.6 12.1-5.3 17.3-8 2.6-1.4 5.1-2.7 7.3-4 1.1-.7 2.2-1.3 3.3-1.9 1-.6 2-1.2 3-1.8C947.3 436.6 951.9 433.4 952.2 433.8zM1001.2 444.8c.2.2-1.1 1.6-3.4 4-.6.6-1.3 1.3-2 2-.7.7-1.6 1.4-2.5 2.2-1.8 1.6-3.8 3.4-6.2 5.2-1.2.9-2.4 1.9-3.7 2.9-1.3 1-2.7 1.9-4.2 3-2.9 2.1-6.1 4.1-9.5 6.2-6.9 4.1-14.7 8.1-23.2 11.7-8.5 3.5-17 6.1-24.7 8-3.9.9-7.6 1.8-11.1 2.3-1.8.3-3.4.6-5.1.8-1.6.2-3.2.4-4.7.6-3 .4-5.7.5-8.1.6-1.2.1-2.3.1-3.3.2-1 0-2 0-2.8 0-3.4 0-5.2-.2-5.2-.4 0-.2 1.8-.5 5.2-.9.8-.1 1.8-.2 2.8-.3 1-.1 2.1-.3 3.3-.4 2.3-.3 5-.6 8-1.1 1.5-.2 3-.5 4.6-.8 1.6-.3 3.2-.7 5-1 3.4-.6 7.1-1.6 10.9-2.5 7.6-2.1 15.8-4.7 24.2-8.1 8.4-3.5 16.1-7.4 22.9-11.2 3.4-2 6.6-3.9 9.5-5.8 1.5-1 2.9-1.8 4.2-2.8 1.3-.9 2.6-1.8 3.8-2.7 2.5-1.7 4.6-3.4 6.4-4.8.9-.7 1.8-1.4 2.6-2 .8-.6 1.5-1.2 2.2-1.8C999.5 445.7 1001 444.6 1001.2 444.8z"/><path stroke="#000" stroke-miterlimit="10" d="M930 484c-.2.3-2-.3-4.4-2.2-.6-.5-1.2-1.1-1.8-1.7-.6-.6-1.2-1.4-1.8-2.2-1.2-1.7-2.3-3.6-3.1-5.8-.8-2.2-1.3-4.4-1.5-6.4-.1-1-.1-2-.1-2.9 0-.9.1-1.7.2-2.5.5-3 1.5-4.7 1.9-4.6.5.1.3 1.9.4 4.7 0 .7.1 1.5.2 2.3 0 .8.2 1.7.3 2.6.3 1.8.8 3.7 1.5 5.7.7 2 1.6 3.7 2.5 5.3.5.8.9 1.5 1.4 2.2.5.7.9 1.3 1.4 1.8C928.9 482.3 930.2 483.6 930 484zM944.7 480.3c-.3.3-1.9-.7-4-2.7-2.1-2.1-4.7-5.3-6.9-9.3-1.1-2-2-3.9-2.7-5.8-.7-1.9-1.2-3.7-1.3-5.2-.1-1.6.2-2.9.5-3.7.4-.8.8-1.2 1-1.1.4.2.1 1.9.8 4.4.3 1.3.9 2.8 1.7 4.4.8 1.7 1.7 3.5 2.8 5.4C940.7 474.3 945.3 479.6 944.7 480.3zM1144 554.8c.2.4-.9 1.6-3.4 2.4-2.4.9-6.3 1.2-10.1-.4-3.8-1.6-6.4-4.5-7.5-6.8-1.2-2.4-1.1-4-.7-4.1.5-.1 1.2 1.2 2.7 2.9 1.4 1.7 3.7 3.8 6.8 5.1 3 1.2 6.2 1.3 8.4 1.1C1142.4 554.8 1143.8 554.4 1144 554.8zM1150.2 543.1c0 .4-1.2.9-3.2 1.2-2 .3-4.9.4-8.1-.5-3.2-.9-5.8-3-6.9-4.9-1.2-1.9-1.2-3.4-.8-3.5.4-.2 1.2.8 2.5 2 1.3 1.2 3.5 2.5 6.1 3.2 2.7.8 5.3 1 7.2 1.3C1149 542.3 1150.2 542.7 1150.2 543.1zM824.8 488.6c.2.4-.8 1.3-2.3 2.7-.7.7-1.6 1.6-2.5 2.6-.9 1-1.8 2.2-2.6 3.5-.8 1.3-1.5 2.6-2.1 3.8-.5 1.2-1 2.3-1.3 3.3-.7 1.9-1.1 3.2-1.5 3.2-.4 0-.9-1.4-.7-3.7.1-1.1.3-2.5.8-3.9.5-1.4 1.2-3 2.1-4.5 1-1.5 2.1-2.7 3.2-3.8 1.1-1 2.2-1.8 3.3-2.4C823.2 488.4 824.7 488.3 824.8 488.6zM829.4 518.3c-.4.2-1.5-1.1-2.8-3.4-1.3-2.4-2.7-5.9-3.6-9.9-.4-2-.7-4-.8-5.8-.1-1.8 0-3.5.3-4.9.3-1.4.8-2.5 1.2-3.1.5-.7.8-.9 1-.8.4.2 0 1.8 0 4.2 0 2.4.6 5.9 1.4 9.8C827.8 511.9 830.2 517.9 829.4 518.3z"/><path stroke="#000" stroke-miterlimit="10" d="M833.3 490c-.4.3-1 0-1.8-.2-.8-.2-1.8-.4-3-.3-1.2.1-2.2.3-3 .6-.8.2-1.4.5-1.8.3-.4-.2-.4-1.1.4-2.1.4-.5 1-1 1.7-1.4.7-.4 1.6-.6 2.6-.6.9 0 1.9.2 2.6.5.8.3 1.4.8 1.8 1.2C833.7 488.9 833.7 489.8 833.3 490zM839.5 518.2c-.4.2-1.5-1-2.9-3.2-1.3-2.3-2.8-5.6-3.6-9.6-.9-3.9-1-7.6-.8-10.2.2-2.6.8-4.2 1.2-4.2.9.1 1.1 6.3 2.8 13.6C837.8 512.1 840.3 517.8 839.5 518.2zM855.5 515.6c-.4.2-1.5-1.3-3-3.8-1.5-2.5-3.4-6-5.9-9.4-1.3-1.7-2.6-3.2-3.9-4.4-1.3-1.2-2.6-2.2-3.8-3-2.3-1.5-4-2.3-3.9-2.7.1-.4 2-.4 4.9.7 1.4.6 3.1 1.5 4.7 2.8 1.6 1.3 3.2 2.9 4.6 4.8 2.8 3.8 4.4 7.6 5.4 10.4C855.6 513.6 855.9 515.4 855.5 515.6z"/><path stroke="#000" stroke-miterlimit="10" d="M853.7,521.4c0.1,0.4-2,1.3-5.7,1.9c-3.6,0.6-8.8,0.7-14.4-0.3c-2.8-0.5-5.4-1.2-7.7-2.1
				c-2.3-0.8-4.3-1.7-5.9-2.8c-1.6-1-2.8-2.1-3.4-3c-0.6-0.9-0.8-1.5-0.6-1.6c0.4-0.3,1.9,1.3,5.1,2.6c1.6,0.7,3.6,1.3,5.8,1.9
				c2.2,0.6,4.7,1.2,7.3,1.7c5.2,0.9,10.1,1.1,13.6,1.2C851.4,521,853.6,520.9,853.7,521.4z"/><ellipse cx="798.1" cy="541.2" stroke="#000" stroke-miterlimit="10" rx="15.7" ry="1.6" transform="rotate(124.451 798.083 541.184)"/><ellipse cx="822.1" cy="540.3" stroke="#000" stroke-miterlimit="10" rx="4.8" ry="1.6" transform="scale(-1) rotate(-66.616 -822.278 1251.12)"/><path stroke="#000" stroke-miterlimit="10" d="M886 555.7c-.8.5-5.8-5.5-12-12.9-6.1-7.4-11.1-13.5-10.4-14.2.6-.6 6.7 4.5 12.9 12.1C882.8 548.2 886.8 555.2 886 555.7zM894.8 538.5c-.6.6-4.9-2.6-9.8-6.7-4.9-4.2-8.8-7.8-8.3-8.5.5-.7 5.3 1.7 10.4 6C892.2 533.6 895.5 537.9 894.8 538.5zM663.6 505.9c-.1.2-2.7-1.4-7.4-4.3-2.3-1.5-5.1-3.4-8.3-5.7-3.2-2.2-6.7-5-10.6-8-7.7-6.2-16.7-13.7-26-22.9-9.3-9.2-19-19.8-28.3-31.6-9.3-11.8-17.4-23.8-24.1-35-1.6-2.8-3.3-5.5-4.8-8.2-1.5-2.7-2.9-5.4-4.3-7.9-1.4-2.6-2.6-5.1-3.8-7.5-1.2-2.4-2.3-4.7-3.3-7-2-4.5-3.7-8.7-4.8-12.5-1.2-3.8-1.9-7.1-2.2-9.9-.4-2.8-.4-4.9-.3-6.4.1-1.5.2-2.2.3-2.2.3 0 .2 3.1 1.3 8.4 1 5.3 3.6 12.8 7.9 21.6 1.1 2.2 2.3 4.5 3.5 6.8 1.3 2.4 2.5 4.9 3.9 7.4 1.4 2.5 2.9 5.1 4.4 7.8 1.5 2.7 3.2 5.3 4.9 8.1 6.8 11 14.8 22.8 24.1 34.5 9.2 11.7 18.7 22.3 27.8 31.5 9.1 9.2 17.9 16.9 25.3 23.3 3.8 3.1 7.2 6 10.3 8.3 3.1 2.4 5.7 4.5 7.9 6.1C661.3 503.8 663.7 505.8 663.6 505.9zM589.4 343.7c-.9.1-1.9-4-1.7-9.2.2-5.2 1.6-9.2 2.4-9 .9.1 1 4.2.8 9.2C590.7 339.5 590.3 343.6 589.4 343.7zM677 474.9c-.2.1-1.7-1.4-4.3-4.2-2.6-2.9-6.2-7.1-10.6-12.5-4.4-5.3-9.4-11.8-14.9-19.1-5.5-7.3-11.4-15.4-17.4-24.1-6-8.7-11.5-17-16.4-24.7-4.9-7.7-9.1-14.7-12.6-20.7-3.5-6-6.2-10.8-7.9-14.3-1.8-3.4-2.7-5.4-2.5-5.5.4-.2 5 7 12.4 18.6 3.7 5.8 8.1 12.7 13.1 20.3 5 7.6 10.6 15.9 16.5 24.5 6 8.6 11.8 16.8 17.1 24.1 5.3 7.3 10.2 13.9 14.3 19.4C672.2 467.8 677.3 474.6 677 474.9zM495 571.7c-.1 0-.2-.7-.2-2.1 0-.7 0-1.6 0-2.6 0-.5 0-1.1 0-1.6.1-.6.1-1.2.2-1.9.2-1.3.3-2.8.5-4.4.3-1.6.7-3.3 1.1-5.1.9-3.7 2.1-7.8 3.8-12.2.4-1.1.8-2.2 1.3-3.4.5-1.1 1-2.3 1.5-3.5 1.1-2.4 2.2-4.8 3.4-7.3 2.5-5 5.3-10.2 8.3-15.7 6-10.9 12.8-22.7 18-35.9 2.5-6.6 4.5-13.3 5.9-19.8 1.5-6.5 2.4-12.9 3.1-19.1 1.3-12.3 1.5-23.4 1.5-32.8 0-9.4-.2-17-.3-22.2-.1-5.3 0-8.2.2-8.2.2 0 .6 2.9 1.1 8.1.5 5.2 1 12.8 1.3 22.3.3 9.4.3 20.7-.8 33.1-.6 6.2-1.5 12.8-3 19.4-1.5 6.7-3.4 13.5-6 20.3-5.3 13.5-12.3 25.4-18.4 36.2-6.1 10.8-11.5 20.6-14.9 29.2-1.8 4.3-3.1 8.3-4.1 11.8-.5 1.8-.9 3.4-1.3 5-.3 1.6-.6 3-.8 4.3-.1.6-.2 1.2-.4 1.8-.1.6-.1 1.1-.2 1.6-.1 1-.2 1.8-.3 2.5C495.2 571 495.1 571.7 495 571.7zM507.9 969.8c-.1 0 .1-1.4.7-4 .3-1.3.7-2.9 1.1-4.7.2-.9.5-1.9.7-3 .2-1.1.4-2.2.7-3.5.5-2.4 1-5.2 1.6-8.1.5-3 .9-6.3 1.5-9.7.1-.9.3-1.8.4-2.7.1-.9.2-1.8.3-2.8.2-1.9.4-3.8.6-5.8.5-4 .7-8.2 1-12.6.1-1.1.1-2.2.2-3.4 0-1.1.1-2.3.1-3.5.1-2.3.1-4.7.2-7.1.1-2.4 0-4.9 0-7.4 0-2.5 0-5.1-.1-7.7-.2-5.2-.3-10.6-.7-16.2-.2-2.8-.3-5.6-.5-8.5-.2-2.9-.5-5.8-.7-8.7-1.1-11.7-2.5-24-4.4-36.7-1.8-12.7-4-25.8-6.3-39.2-4.6-26.8-9.2-52.4-12.2-75.9-1.5-11.7-2.7-22.9-3.5-33.4-.2-2.6-.3-5.2-.5-7.7-.1-2.5-.3-5-.4-7.5-.1-2.4-.2-4.8-.2-7.2 0-1.2-.1-2.3-.1-3.5 0-1.1 0-2.3 0-3.4 0-4.5-.1-8.7.1-12.8.1-2 .1-4 .2-5.9 0-.9.1-1.9.1-2.8.1-.9.1-1.8.2-2.7.3-3.5.5-6.8.8-9.9.4-3 .7-5.8 1-8.3.2-1.2.3-2.4.4-3.5.2-1.1.4-2.1.5-3.1.3-1.9.6-3.5.9-4.8.5-2.6.8-3.9.9-3.9.1 0 0 1.4-.3 4-.1 1.3-.3 2.9-.5 4.8-.1 1-.2 2-.4 3.1-.1 1.1-.2 2.3-.3 3.5-.2 2.5-.4 5.2-.7 8.3-.2 3-.3 6.3-.5 9.8 0 .9-.1 1.8-.1 2.7 0 .9 0 1.8 0 2.8 0 1.9-.1 3.8-.1 5.8-.1 4 0 8.2.1 12.7 0 1.1 0 2.2.1 3.4.1 1.1.1 2.3.2 3.5.1 2.3.2 4.7.3 7.1.1 2.4.3 4.9.5 7.4.2 2.5.3 5.1.6 7.7.9 10.4 2.2 21.6 3.8 33.2 3.2 23.3 7.8 48.9 12.4 75.7 2.3 13.4 4.4 26.6 6.2 39.3 1.8 12.7 3.2 25.1 4.2 36.9.2 3 .5 5.9.7 8.7.2 2.9.3 5.7.5 8.5.4 5.6.4 11 .5 16.3.1 2.6 0 5.2 0 7.8 0 2.5 0 5-.1 7.5-.1 2.4-.2 4.8-.3 7.2-.1 1.2-.1 2.3-.2 3.5-.1 1.1-.2 2.3-.3 3.4-.4 4.5-.6 8.7-1.2 12.7-.3 2-.5 3.9-.7 5.8-.1.9-.2 1.9-.4 2.8-.2.9-.3 1.8-.5 2.7-.6 3.5-1.2 6.8-1.7 9.8-.7 3-1.3 5.7-1.9 8.1-.3 1.2-.6 2.4-.8 3.4-.3 1.1-.6 2.1-.9 3-.5 1.8-1 3.4-1.4 4.7C508.5 968.6 508 969.9 507.9 969.8zM578.2 666.7c-.8-.4 3.3-10.7 11.2-22 7.8-11.3 16.1-18.8 16.7-18.1.7.7-6.4 9-14 20C584.3 657.5 579 667.1 578.2 666.7zM550.2 972c-.2-.1 1.4-4.2 3.7-11.8 2.4-7.6 5.4-18.6 8.1-32.5 5.3-27.9 11.3-66.7 15.3-109.8 2-21.6 3.4-42.1 4.2-60.9.8-18.7 1.1-35.6 1.2-49.8 0-14.2-.1-25.7-.1-33.6-.1-4-.1-7.1 0-9.2 0-2.1.1-3.2.2-3.2.1 0 .3 1.1.4 3.2.2 2.1.4 5.2.7 9.1.5 7.9.9 19.4 1.2 33.7.2 14.2.1 31.2-.5 50-.6 18.8-1.9 39.5-3.9 61.1-4 43.3-10.4 82.1-16.3 109.9-3 13.9-6.4 25-9.1 32.5-1.4 3.7-2.6 6.6-3.4 8.5C550.8 971.1 550.3 972 550.2 972zM661.7 1073.1c-.3-.1 1-4.5 2.3-12.7 1.4-8.2 2.5-20.1 2.2-35-.1-3.7-.2-7.6-.4-11.6-.2-4-.6-8.2-.8-12.6-.2-2.2-.3-4.4-.5-6.6-.2-2.2-.5-4.5-.7-6.8-.2-2.3-.5-4.7-.7-7-.1-1.2-.3-2.4-.4-3.6-.2-1.2-.3-2.4-.5-3.6-2.5-19.5-6.4-40.7-12.1-62.6-5.7-21.9-12.6-42.4-19.9-60.6-7.3-18.2-15-34.2-21.7-47.4-6.9-13.1-13-23.5-17.2-30.7-2.2-3.5-3.8-6.3-4.9-8.2-1.1-1.9-1.6-2.9-1.5-3 .1-.1.8.8 2.1 2.6 1.3 1.8 3.1 4.4 5.5 7.9 4.6 6.9 11 17.2 18.2 30.3 7.1 13.1 15 29.1 22.5 47.3 7.5 18.3 14.5 38.9 20.3 60.9 5.8 22.1 9.6 43.5 12 63.1.2 1.2.3 2.4.5 3.6.1 1.2.2 2.4.4 3.6.2 2.4.5 4.8.7 7.1.2 2.3.5 4.6.6 6.9.1 2.3.3 4.5.4 6.7.2 4.4.6 8.6.7 12.7.1 4.1.2 8 .2 11.7 0 15-1.5 27-3.3 35.2-.4 2-.9 3.9-1.3 5.4-.4 1.6-.8 2.9-1.1 3.9C662.2 1072 661.8 1073.1 661.7 1073.1zM700.2 1049.1c-.1 0-.2-1.6-.1-4.7 0-3.1.1-7.7.2-13.6.2-11.8.5-28.9.5-49.9-.1-21.1-.5-46.2-2.4-73.9-.3-3.5-.6-7-.8-10.5-.1-1.8-.3-3.6-.4-5.4-.2-1.8-.4-3.6-.5-5.4-.4-3.6-.7-7.3-1.1-11-.5-3.7-.9-7.4-1.4-11.2-.4-3.8-1-7.5-1.6-11.3-.6-3.8-1.1-7.7-1.8-11.5-.7-3.9-1.3-7.7-2-11.6-.8-3.9-1.6-7.8-2.4-11.7-.7-3.9-1.7-7.8-2.6-11.7-.9-3.9-1.7-7.7-2.8-11.5-1-3.8-1.9-7.6-3-11.2-1-3.7-2.1-7.4-3.1-11-4.3-14.5-8.8-28.4-13.1-41.7-4.3-13.2-8.5-25.8-12.3-37.7-3.8-11.8-7.1-22.9-9.9-33.1-5.7-20.4-9-37.2-10.8-48.8-1-5.8-1.4-10.4-1.8-13.5-.3-3.1-.4-4.7-.3-4.7.1 0 .4 1.6 1 4.6.6 3.1 1.2 7.6 2.4 13.4 2.1 11.6 5.8 28.2 11.8 48.4 3 10.1 6.4 21.1 10.2 32.9 3.9 11.8 8.1 24.3 12.6 37.5 4.4 13.2 9 27.2 13.3 41.7 1 3.7 2.1 7.3 3.2 11.1 1.1 3.7 2 7.5 3 11.3 1 3.8 1.9 7.7 2.8 11.5.9 3.9 1.9 7.8 2.6 11.7.8 4 1.6 7.9 2.4 11.8.7 3.9 1.3 7.8 2 11.7.7 3.9 1.2 7.7 1.8 11.6.5 3.8 1.2 7.6 1.6 11.4.5 3.8.9 7.5 1.3 11.2.4 3.7.7 7.4 1.1 11 .2 1.8.3 3.6.5 5.4.1 1.8.3 3.6.4 5.4.3 3.6.5 7.1.8 10.6 1.7 27.9 2 53.1 1.7 74.2-.3 21.1-1 38.2-1.5 50-.3 5.9-.6 10.5-.8 13.6C700.5 1047.5 700.3 1049.1 700.2 1049.1z"/><path stroke="#000" stroke-miterlimit="10" d="M502.4 1061.4c-.4-.3 3.1-6 8.6-15.2 2.7-4.6 5.9-10.2 9.4-16.4 3.4-6.2 7.1-13.1 10.8-20.4 3.7-7.3 7-14.4 9.9-20.9 2.9-6.5 5.5-12.4 7.5-17.3 4.2-9.9 6.6-16.1 7.1-16 .4.1-1.3 6.6-4.9 16.8-1.8 5.1-4.1 11.1-6.9 17.7-2.8 6.6-6.1 13.7-9.8 21.1-3.7 7.4-7.5 14.3-11.1 20.5-3.6 6.2-7 11.6-10 16.1C506.9 1056.4 502.8 1061.7 502.4 1061.4zM476.9 1054.3c-.4-.2 1.8-5.6 5.3-14.3 1.8-4.4 3.8-9.6 6-15.4 2.2-5.8 4.5-12.2 6.8-19 2.3-6.8 4.3-13.3 6.1-19.2 1.8-5.9 3.3-11.3 4.5-15.9 2.5-9.1 4-14.7 4.5-14.6.4.1-.3 5.9-2.2 15.2-1 4.6-2.3 10.1-3.9 16.1-1.6 6-3.6 12.6-5.9 19.5-2.3 6.8-4.8 13.3-7.1 19.1-2.4 5.8-4.7 10.9-6.7 15.2C480.3 1049.4 477.3 1054.5 476.9 1054.3zM463 1096c-.9-.1-.5-9.4 3-20.3 3.4-10.9 8.5-18.7 9.3-18.2.8.4-2.9 8.7-6.2 19.2C465.6 1087.2 463.9 1096.1 463 1096zM549.6 1114.5c-.8.6-9.3-11.3-22.1-23.8-12.7-12.6-24.7-20.9-24.2-21.7.2-.4 3.6 1.3 8.5 4.6 2.5 1.7 5.3 3.8 8.4 6.2 3.1 2.5 6.3 5.4 9.6 8.6 3.2 3.2 6.2 6.4 8.7 9.4 2.5 3 4.7 5.9 6.4 8.3C548.2 1111 549.9 1114.3 549.6 1114.5zM538.1 1124.9c0 .4-4.4.8-11.5-.2-7.1-.9-16.7-3.5-26.7-7.8-10-4.2-18.6-8.9-24.7-12.4-3.1-1.7-5.6-3.3-7.1-4.6-1.5-1.3-2.2-2.3-2-2.4.2-.2 1.1.5 2.8 1.4 1.7 1 4.2 2.1 7.4 3.6 6.4 2.9 15.1 7.3 24.9 11.4 9.8 4.2 19 7.1 25.8 8.5C533.8 1124 538.2 1124.4 538.1 1124.9zM500.4 1064.9c-.3.4-1.6 0-3.6-.5-2-.5-4.8-1-7.8-1-3.1.1-5.8.6-7.8 1.2-.5.2-1 .3-1.5.4-.6.2-1.2 0-1.4-.3-.1-.2.1-.3.2-.4.1-.1.1-.1.2-.2.1-.1.1-.1.2-.2.1-.2.1-.1.1-.1 0 0 0-.1 0-.1 0-.1 0-.3-.2-.3-.1-.1-.3 0-.3.2.1.1.4 0 .6-.1.1-.1.1-.1.2-.2.1-.1.2-.1.3-.2.2-.1.4-.3.7-.5 2-1.2 5.1-2.3 8.7-2.4 3.6-.1 6.7.9 8.7 2.1C499.7 1063.4 500.6 1064.6 500.4 1064.9z"/><path stroke="#000" stroke-miterlimit="10" d="M522.4 1094.6c-.3.4-1.9-1-4.9-1.8-.8-.2-1.5-.3-2.5-.4-.3 0-.6-.1-1.1-.3-.2-.1-.4-.2-.7-.5l0 0 0 0-.1-.1-.1-.2c-.1-.1-.2-.2-.2-.4-.3-.6-.3-1.3-.2-1.8.1-.3.1-.5.2-.7l.2-.3c.1-.3.4-.4.6-.6 0-.1.1-.1.1-.2 0 0 0-.1 0-.1 0 0-.1 0-.1 0-.1 0-.3 0-.5.1-.1 0-.3 0-.4 0l-.2 0c-.3 0-.6.1-.8.1-1.2.1-2.3.3-3.4.4-2.2.2-4.1.4-5.7.6-3.3.3-5.3.4-5.5 0-.1-.4 1.8-1.3 5-2.2 1.6-.5 3.5-.9 5.7-1.3 1.1-.2 2.2-.4 3.4-.6.3 0 .6-.1.9-.1.5-.1 1.1-.1 1.6-.2.5-.1 1.1-.1 1.6-.2.5 0 1.1-.1 1.6-.1.5 0 .9 0 1.4 0 .2 0 .1 0 .2.1l.1.1.2.3c.1.1.1.2.2.3 0 .2.1.4.1.6.1.4 0 .7 0 .9-.1.6-.4 1-.8 1.5-.2.2-.5.5-.9.9-.4.4-.9.7-1.3 1-.1.1-.2.2-.3.3-.1.1-.1.1-.1.1 0 0 0 .1 0 .1-.1 0-.3-.1-.4 0 0 0-.1 0-.1 0l0 0 0 0 0 0c0 0 .1 0 .1 0 0 0 0 0 .1-.1l0 0c-.3.1-.1 0-.1.1l0 0 0 0 0 0c0 0 0 0 0-.1l.1-.1c.1-.1.1-.2.1-.1 0 0 .1.1.3.1 1 .2 2 .5 2.8.9 1.6.8 2.8 1.7 3.4 2.5C522.4 1094 522.6 1094.5 522.4 1094.6zM750.2 1099.3c0 .4-5 1-13.1 1.1-8.1.1-19.4-.2-31.7-2.2-6.1-1-11.9-2.3-17.1-3.8-2.6-.8-5-1.5-7.3-2.4-1.1-.4-2.2-.8-3.2-1.2-1-.4-2-.9-2.9-1.3-7.4-3.4-11.6-6.3-11.4-6.6.3-.5 4.7 1.8 12.2 4.5.9.3 1.9.7 3 1.1 1 .4 2.1.7 3.2 1 2.2.8 4.7 1.4 7.2 2.1 5.1 1.3 10.8 2.5 16.8 3.5 12.1 1.9 23.2 2.6 31.2 3.1C745.2 1098.6 750.2 1098.8 750.2 1099.3zM757.7 1095.7c-.3.3-3.4-2.4-8-6.9-2.3-2.3-5-5-8-8.1-3-3-6.3-6.4-9.9-9.5-7.3-6.3-15.2-10.4-21.1-12.8-5.9-2.4-9.8-3.3-9.7-3.8.1-.4 4.2-.2 10.5 1.7 6.3 1.9 14.8 5.8 22.5 12.5 3.8 3.3 7.1 6.7 10 9.9 2.9 3.2 5.4 6.1 7.5 8.6C755.6 1092.2 758 1095.4 757.7 1095.7zM718.4 1075.4c0 .1-.2.4-.8.5-.5.1-1.4.1-2.4-.4-1-.5-2.1-1.5-2.4-3.2-.1-.8-.1-1.7.3-2.6.1-.2.2-.4.3-.6l.2-.3c.1-.1.1-.2.2-.3 0 0 .1-.1.1-.1 0 0 0 0 .1 0 0 0 0 0 0 0l0 0c-.1-.1-.3-.1-.4-.2-.1-.1-.2-.1-.4-.1-.2-.1-.4-.1-.7-.2-1.5-.4-3.2-.5-5-.3-.6.1-1.2.2-1.8.3-.2 0-.9.2-1.4.3-.6.1-1.1.3-1.7.5-2.2.7-4.5 1.6-6.5 2.2.1-.2.1-.4.1-.5 0-.2 0-.2.1-.4.3-.6.6-1.2.9-1.8.6-1.1 1.1-2 1.8-2.9.7-.9 1.5-1.7 2.3-2.4.4-.4.8-.7 1.2-.9.2-.2.4-.2.5-.3.1-.1.3-.2.4-.2 2.3-1.2 3.9-1.1 3.9-.8.1.4-1.2 1-2.9 2.4-.1.1-.2.2-.3.3-.1.1-.2.2-.3.2-.1.1-.2.3-.3.4-.2.2-.4.5-.5.7-.1.2-.2.5-.3.7 0 .1 0 .2-.1.3.1 0 .4-.2.5-.2.4-.2.7-.3 1-.4l.2-.1c.1 0 0 0 .5-.1.7-.1 1.4-.3 2.1-.3 2.1-.2 4.3-.1 6.2.5l.4.1c.1 0 .2.1.4.2.3.2.7.3 1 .5.3.2.7.3.9.5.3.2.6.4.8.6.5.4 1 .8 1.5 1.2l.2.1c0 0 0 0 0 .1 0 .1 0 .1 0 .2 0 .1.1.1.1.2l.3.3c-1.2.5-2.3.9-3 1.2l-.4.3c-.1.1-.1.1-.2.2-.1.1-.1.2-.2.3-.2.4-.4.9-.3 1.3 0 .8.5 1.6 1 2.1C717.2 1075.2 718.3 1075.1 718.4 1075.4z"/><path fill="none" stroke="#000" stroke-miterlimit="10" d="M686.2,1053.3"/><path stroke="#000" stroke-miterlimit="10" d="M695.4 1049.4c-.1.9-6.2 1-13.4 2.6-7.2 1.6-12.8 4-13.3 3.2-.2-.4 1-1.5 3.2-2.8 2.2-1.3 5.6-2.7 9.4-3.6 3.9-.8 7.5-1 10-.7C693.8 1048.4 695.4 1048.9 695.4 1049.4zM711.7 915.6c-.5-.1-.1-4.4.1-11.3 0-1.7.1-3.6.1-5.6 0-2-.1-4.2-.1-6.5-.2-4.6-.6-9.6-1.2-14.8-.7-5.2-1.6-10.1-2.6-14.6-.5-2.2-1-4.3-1.5-6.3-.5-2-1-3.8-1.5-5.4-1.9-6.6-3.4-10.7-2.9-10.9.4-.2 2.6 3.6 5.1 10.2.6 1.6 1.3 3.5 1.9 5.4.7 2 1.2 4.1 1.8 6.3 1.1 4.5 2.2 9.5 2.9 14.9.7 5.3.9 10.5 1 15.1 0 2.3 0 4.5-.2 6.6-.1 2.1-.3 4-.5 5.7C713.3 911.5 712.1 915.7 711.7 915.6zM697.2 940c.2.4-1.3 1.6-4.1 3.1-2.7 1.5-6.8 3.2-11.7 3.7-4.9.6-9.5-.4-12.3-1.9-2.9-1.4-4.2-3.1-3.9-3.4.3-.4 2 .5 4.8 1.2 2.8.8 6.8 1.3 11.1.8 4.4-.5 8.3-1.8 11.2-2.6C695.1 940.1 697 939.6 697.2 940zM675.2 932c.2.4-.4 1.1-1.6 1.8-1.2.7-3 1.2-5.1 1.3-2.1 0-3.9-.4-5.1-1-1.2-.6-1.8-1.3-1.7-1.7.4-.9 3.3-.4 6.7-.5C671.9 931.8 674.8 931.2 675.2 932zM544.4 978.3c.1.4-2.1 1.5-5.9 1.6-1.9.1-4.2-.1-6.7-.5-2.5-.4-5.1-1.1-7.8-2-3.9-1.2-7.6-2.5-10.5-4.4-1.4-.9-2.6-2-3.5-3-.9-1-1.4-2.1-1.7-2.9l-.7-1.7 1.4.7c1.1.5 1.7.9 1.6 1.2-.1.2-.8.3-2 .2l.8-1c.5.6 1.2 1.3 2 2 .9.7 2 1.5 3.3 2.1 2.6 1.4 6.2 2.4 10.1 3.6 2.7.8 5.2 1.6 7.4 2.1 2.3.6 4.4.9 6.1 1.1C542 978 544.3 977.8 544.4 978.3zM543.6 965.9c0 .4-1.8.8-4.8.6-2.9-.1-7-.8-11.3-2.2-4.3-1.4-7.9-3.4-10.3-5.1-1.2-.8-2.3-1.7-2.7-2.6-.4-1-.1-1.5.1-1.5.2 0 .4.4.9.8.5.4 1.4.8 2.8 1.4 2.6 1.1 6.2 2.6 10.2 4C536.7 964 543.7 965 543.6 965.9zM550.3 583.6c.3.2-1.1 3-4.4 6.7-3.3 3.7-8.6 8.3-15.4 11.7-3.4 1.7-6.8 3.1-9.9 4-1.6.4-3.1.8-4.5 1.1-1.4.3-2.8.5-4.1.6-2.5.2-4.7-.2-6-.7-1.3-.6-1.9-1.2-1.8-1.3.1-.2.8 0 2.1.1 1.3.1 3.1.1 5.4-.3 4.6-1 10.9-2.9 17.3-6.2 6.4-3.3 11.6-7.3 15.2-10.5C547.8 585.5 549.9 583.3 550.3 583.6zM515 646.4c-.9.1-2.1-4.5-2.2-10.2-.1-2.9.2-5.4.5-7.3 0-.2.1-.5.1-.7 0-.2.1-.5.2-.8.2-.5.7-.9.9-.7.1.1.1.3.2.4 0 .1 0 .2 0 .2 0 0 .1.1.1.1 0 0 0 .1 0 .1 0 .2 0 .1.1.1.1 0 .2.1.4.1.1-.1.2-.2.1-.3-.1 0-.2.2-.2.4 0 .1.1.3.1.4 0 .2.1.4.1.7.2 1.8.4 4.4.4 7.2C516.1 641.7 515.9 646.3 515 646.4z"/><ellipse cx="516.4" cy="670.5" stroke="#000" stroke-miterlimit="10" rx="9.5" ry="1.6" transform="rotate(84.082 516.415 670.486)"/><ellipse cx="521.3" cy="713.4" stroke="#000" stroke-miterlimit="10" rx="11" ry="1.6" transform="rotate(83.84 521.316 713.44)"/><ellipse cx="526.5" cy="755.1" stroke="#000" stroke-miterlimit="10" rx="8.9" ry="1.6" transform="rotate(84.414 526.51 755.118) scale(1.00005)"/><path stroke="#000" stroke-miterlimit="10" d="M529.6 810.3c-.9-.1-1.3-4.3-1.7-9.4-.4-5.1-.7-9.3.2-9.5.9-.2 2.6 3.9 3.1 9.3C531.6 806 530.5 810.3 529.6 810.3zM530.9 857.2c-.9-.1-1-4.9-1.1-10.6 0-5.8 0-10.5.9-10.6.9-.1 2.3 4.6 2.3 10.6C533.1 852.5 531.8 857.3 530.9 857.2zM528.5 896.8c-.9-.1-.8-5.3-.5-11.6.3-6.3.8-11.5 1.7-11.5.9-.1 1.9 5.2 1.6 11.7C530.9 891.8 529.3 896.9 528.5 896.8zM523.5 935.1c-.9-.3-.7-2.9-.4-5.8.2-3 .4-5.5 1.3-5.7.4-.1 1 .5 1.4 1.6.4 1.1.7 2.6.5 4.4-.1 1.7-.6 3.2-1.2 4.2C524.5 934.7 523.9 935.2 523.5 935.1zM619.1 591.5c0 .2-1.8.3-4.9.2-.8 0-1.7-.1-2.6-.1-1-.1-2-.2-3.1-.3-2.2-.2-4.8-.4-7.6-.9-1.4-.2-2.9-.4-4.4-.7-1.5-.2-3.1-.6-4.8-.9-3.3-.6-6.8-1.5-10.4-2.5-7.3-2-15.1-4.7-23.1-8.1-8-3.5-15.3-7.4-21.7-11.3-3.2-2-6.2-3.9-8.9-5.9-1.4-1-2.7-1.9-3.9-2.8-1.2-1-2.4-1.9-3.5-2.8-2.3-1.7-4.2-3.5-5.8-5-.8-.8-1.6-1.4-2.3-2.1-.7-.7-1.3-1.3-1.9-1.9-2.2-2.3-3.4-3.6-3.2-3.8.2-.2 1.6.8 4.1 2.8.6.5 1.3 1 2 1.6.8.6 1.6 1.2 2.5 1.9 1.8 1.3 3.8 2.9 6.1 4.5 1.1.8 2.3 1.7 3.6 2.6 1.2.9 2.6 1.7 4 2.6 2.7 1.9 5.8 3.6 8.9 5.6 6.4 3.7 13.6 7.5 21.5 10.9 7.9 3.4 15.5 6.1 22.6 8.2 3.6 1 6.9 2 10.2 2.7 1.6.4 3.1.8 4.6 1.1 1.5.3 2.9.6 4.3.9 2.7.6 5.3 1 7.5 1.3 1.1.2 2.1.4 3.1.5.9.1 1.8.3 2.6.4C617.4 590.9 619.1 591.3 619.1 591.5zM630 575.8c-.4.1-1.8-4.3-2.6-11.6-.1-.9-.2-1.9-.3-2.9-.1-1-.1-2-.2-3.1-.1-2.2-.1-4.5-.1-6.9.2-4.9.6-10.2 1.4-15.8 1.7-11.1 4.4-20.9 6.7-27.8 2.3-7 4-11.1 4.4-11 .4.1-.5 4.6-2.2 11.6-1.7 7.1-4 16.8-5.7 27.7-.8 5.4-1.4 10.7-1.7 15.4-.1 2.4-.3 4.6-.2 6.8 0 1.1 0 2.1 0 3.1 0 1 0 1.9.1 2.8C629.9 571.2 630.5 575.7 630 575.8zM627.6 586.6c-.3-.3-.1-1.1.3-2.1.4-1 .9-2.2 1.3-3.7.4-1.4.6-2.8.8-3.8.2-1 .4-1.8.8-1.9.4-.1 1 .5 1.5 1.7.4 1.2.6 3 0 4.9-.5 1.9-1.6 3.4-2.6 4.2C628.7 586.7 627.9 586.9 627.6 586.6z"/><path stroke="#000" stroke-miterlimit="10" d="M619.8 579.5c.1.2-1 .8-3.1 1.5-2.1.6-5.3 1-9.2.8-3.9-.2-8.4-1.1-13.3-2.2-4.9-1.2-10.3-2.8-15.7-4.8-11-4.1-20.2-9.2-26.6-13.5-6.3-4.2-9.8-7.5-9.6-7.8.3-.4 4.2 2.1 10.8 5.8 6.6 3.7 15.8 8.4 26.5 12.4 5.4 2 10.5 3.6 15.3 5 4.8 1.3 9.1 2.4 12.8 2.9C615.1 580.5 619.6 579 619.8 579.5zM648.2 650.7c-.6-.1 1-7.2.5-18.7-.2-5.8-1.1-12.6-2.5-20.1-1.4-7.5-3.5-15.7-5.8-24.3-2.3-8.6-4.5-16.8-6.1-24.4-1.6-7.6-2.7-14.5-3.1-20.4-.4-5.9-.3-10.6 0-13.9.3-3.3.7-5.1.9-5 .5 0-.1 7.2 1.4 18.7.7 5.7 2 12.5 3.7 20 1.7 7.5 4 15.6 6.3 24.2 2.3 8.6 4.3 16.9 5.6 24.5 1.3 7.7 1.9 14.7 1.8 20.6-.1 5.9-.6 10.7-1.3 13.9C649 649.1 648.4 650.8 648.2 650.7z"/><path stroke="#000" stroke-miterlimit="10" d="M647.9,650.6c-0.8,0.4-4.1-4.8-6.1-12.1c-2-7.3-1.7-13.4-0.8-13.5c0.9-0.1,2.1,5.7,4,12.6
				C646.8,644.7,648.7,650.2,647.9,650.6z"/><path stroke="#000" stroke-miterlimit="10" d="M643.6 665.9c-.9-.2-.2-6.3-.5-13.6-.2-7.4-1.3-13.4-.4-13.6.4-.1 1.3 1.3 2.1 3.7.8 2.4 1.5 5.9 1.6 9.8.1 3.9-.3 7.4-.9 9.9C644.7 664.5 644 666 643.6 665.9zM591.9 273.2c.2.4-3.6 2.6-9.8 6-6.2 3.4-14.8 8-23.1 14.6-4.1 3.3-7.8 6.8-10.8 10.3-3 3.5-5.3 6.9-7 9.9-3.4 6-4.5 10.3-5.1 10.2-.2 0-.2-1.2.2-3.2.4-2 1.3-4.8 2.8-8.1 1.5-3.3 3.8-7 6.8-10.8 3-3.7 6.7-7.5 11-10.9 8.7-6.8 17.6-11.2 24.1-14.1C587.5 274.3 591.7 272.8 591.9 273.2zM594.9 270c-.4-.3 2-3.4 5.3-8.8.4-.7.8-1.4 1.3-2.1.4-.7.8-1.5 1.3-2.3.9-1.6 1.7-3.4 2.6-5.2 1.7-3.8 3.3-8 4.6-12.5 1.2-4.6 2.1-9 2.6-13.1.2-2 .4-4 .5-5.8 0-.9.1-1.8.1-2.6 0-.9 0-1.7 0-2.4 0-6.2-.5-10.1 0-10.2.4-.1 1.7 3.7 2.3 10.1.1.8.1 1.6.2 2.5.1.9 0 1.8.1 2.7.1 1.9-.1 3.9-.2 6-.4 4.2-1.1 8.9-2.4 13.7-1.3 4.7-3.1 9.1-5 12.9-1 1.9-1.9 3.7-3 5.3-.5.8-1 1.6-1.5 2.3-.5.7-1 1.4-1.5 2.1C598.3 267.7 595.2 270.3 594.9 270z"/><path stroke="#000" stroke-miterlimit="10" d="M627.8 241.9c-.3.3-2.3-1.3-4.7-4.6-.6-.8-1.2-1.7-1.8-2.8-.6-1-1.2-2.2-1.8-3.4-1.2-2.4-2.2-5.2-3-8.3-.8-3-1.2-6-1.3-8.7 0-1.4-.1-2.6 0-3.8 0-1.2.1-2.3.3-3.3.5-4.1 1.5-6.4 1.9-6.3.5.1.3 2.6.4 6.4 0 1 0 2 .1 3.2 0 1.1.2 2.3.3 3.6.3 2.5.8 5.3 1.5 8.1.7 2.8 1.7 5.5 2.6 7.9.5 1.2 1 2.3 1.5 3.3.5 1 1 2 1.4 2.8C626.9 239.5 628.2 241.5 627.8 241.9zM627.5 292.9c-.7-.6 3.9-6.7 8.6-14.7 4.7-8 7.8-15 8.6-14.7.4.1.2 2.1-.8 5.1-.9 3-2.6 7-5.1 11.2-2.4 4.2-5.1 7.6-7.3 9.9C629.4 292 627.8 293.2 627.5 292.9zM681.5 363.8c-.2-.1.1-1.5.7-3.9.6-2.5 1.5-6 2.1-10.5.3-2.2.6-4.7.6-7.3.1-2.6 0-5.4-.4-8.3-.8-5.8-2.9-11.9-6.7-17.5-3.8-5.6-8.4-10.3-12.7-14.4-4.4-4.1-8.4-7.7-11.9-10.7-6.9-5.9-11.4-9.3-11.2-9.7.2-.3 5.2 2.4 12.6 7.9 3.7 2.8 8 6.2 12.5 10.3 4.5 4.1 9.4 8.8 13.4 14.8 2 3 3.7 6.2 4.8 9.4 1.2 3.2 1.8 6.5 2.2 9.6.4 3.1.3 6.1.1 8.8-.2 2.7-.6 5.3-1.1 7.6-1 4.6-2.2 8.1-3.2 10.5C682.4 362.6 681.7 363.9 681.5 363.8z"/><path stroke="#000" stroke-miterlimit="10" d="M667.9 435.8c-.4-.2 1.5-5.5 4.6-14.1 1.5-4.3 3.3-9.4 4.9-15.1 1.6-5.7 3.1-12.1 3.8-18.9.7-6.8.5-13.3-.4-19.1-.9-5.8-2.6-10.9-4.4-15-1.7-4.1-3.4-7.4-4.6-9.7-1.2-2.3-1.8-3.6-1.6-3.7.2-.1 1.1.9 2.6 3 1.5 2.1 3.5 5.2 5.6 9.4 2.1 4.1 4.1 9.4 5.2 15.5 1.2 6.1 1.4 12.9.7 20-.7 7.1-2.3 13.6-4.1 19.5-1.8 5.8-3.8 10.9-5.7 15.1C671 431 668.3 436 667.9 435.8zM639.3 292.9c.2 0 .4.9.4 2.7 0 .9-.1 1.9-.3 3.2-.2 1.2-.7 2.7-1.6 4.1-.9 1.4-2.4 2.8-4.3 3.6-1.9.8-4.1 1-6.3.6-2.2-.3-4.4-1.3-6.3-2.7-1.9-1.3-3.6-3-5.2-4.7-12.3-13.9-19.2-27.3-18.4-27.7.8-.5 8.9 12 20.8 25.5 1.5 1.7 3 3.2 4.6 4.3 1.6 1.2 3.3 2 5 2.3 1.7.4 3.4.3 4.8-.2 1.4-.5 2.5-1.3 3.3-2.4.8-1 1.3-2.2 1.7-3.3.4-1.1.6-2 .8-2.8C638.9 293.8 639.1 292.9 639.3 292.9z"/><path stroke="#000" stroke-miterlimit="10" d="M647.7,299.3c0.2,0.1,0.1,1.4-0.4,3.9c-0.5,2.5-1.4,6-3.4,10.2c-1,2-2.4,4.2-4.3,6.3c-1.9,2-4.3,3.9-7.2,5.2
				c-2.9,1.3-6.4,2-9.9,1.3c-3.5-0.6-6.7-2.3-9.6-4.4c-2.8-2.1-5.4-4.3-7.7-6.7c-2.3-2.4-4.3-4.8-6-7.3c-3.5-4.9-6-9.6-7.9-13.7
				c-1.9-4.1-3.1-7.5-3.8-9.9c-0.7-2.4-1-3.8-0.8-3.8c0.2-0.1,0.9,1.1,2,3.4c1.1,2.2,2.6,5.5,4.7,9.3c2.1,3.9,4.8,8.4,8.3,13
				c1.8,2.3,3.7,4.6,5.9,6.8c2.2,2.2,4.7,4.3,7.3,6.3c2.6,1.9,5.4,3.4,8.2,3.9c2.8,0.5,5.6,0.1,8.1-1c2.5-1.1,4.7-2.6,6.4-4.3
				c1.7-1.7,3.1-3.7,4.2-5.5c2.2-3.7,3.4-7.1,4.2-9.4C646.9,300.5,647.5,299.2,647.7,299.3z"/><path stroke="#000" stroke-miterlimit="10" d="M636.6 300.6c-.9-.3.3-4.9-.1-10.4-.3-5.6-2-9.9-1.1-10.4.4-.2 1.3.7 2.3 2.5 1 1.8 1.9 4.5 2.1 7.7.2 3.1-.4 6-1.1 7.9C637.9 299.7 637 300.7 636.6 300.6zM620.6 182.7c-.2.1-.7-.4-1.5-1.4-.8-.9-1.9-2.4-3.5-3.3-.8-.4-1.8-.6-2.8-.5-1 .1-2.1.6-3.1 1.3-1.9 1.5-3.3 4.2-3.8 7.3-1.2 6.1 1.1 12.2 3.8 15 1.3 1.4 2.9 1.8 4 1.8 1.1 0 1.7-.4 1.9-.2.1.1-.3.9-1.6 1.4-.7.2-1.6.3-2.6.2-1-.2-2.2-.7-3.2-1.5-1-.8-1.9-1.8-2.7-3-.8-1.2-1.5-2.5-2-4-1.1-3-1.5-6.6-.8-10.3.3-1.8.9-3.6 1.8-5.1.9-1.6 2-3 3.5-4 1.5-1 3.1-1.5 4.7-1.5 1.6-.1 3.1.5 4.2 1.2 1.1.8 1.8 1.7 2.3 2.5.5.8.8 1.5 1.1 2.1C620.7 181.8 620.8 182.5 620.6 182.7z"/><path stroke="#000" stroke-miterlimit="10" d="M612.7,193.4c-0.2-0.4,0.2-1.1,0.7-2.1c0.4-1,0.8-2.5,0.5-3.9c-0.3-1.4-1.2-2.7-1.9-3.4l-0.2-0.2l0,0l0,0
				l0,0c-0.2,0.3,0.2-0.4,0.2-0.3l0,0l0,0l0,0c0,0,0,0.1,0,0.1c0,0,0,0.1,0,0.1l0,0c0,0,0,0-0.1-0.1c-0.1-0.1-0.2-0.1-0.3-0.2
				c0,0-0.1-0.1-0.2-0.2c0,0-0.1-0.1-0.1-0.1c0,0,0,0,0,0c0,0,0,0,0.1,0c0,0,0,0.1-0.1,0.1c0,0.1-0.1,0.1-0.1,0.1
				c0,0-0.1,0.1-0.1,0.1c-0.1,0-0.1,0.1-0.2,0c-0.1-0.1-0.2-0.2-0.2-0.5c0-0.2,0.1-0.4,0.2-0.6c0.2-0.3,0.5-0.5,0.9-0.7
				c0.2-0.1,0.5-0.1,0.8-0.1c0.1,0,0.2,0,0.3,0.1l0.1,0c0,0,0,0,0.1,0l0,0l0.1,0c0.1,0,0.2,0,0.2,0.1c0.8,0.3,1.6,0.8,2.4,1.6
				c0.7,0.8,1.4,1.9,1.6,3.2c0.3,1.3,0.1,2.6-0.3,3.6c-0.4,1-1,1.8-1.6,2.4C614,193.7,612.9,193.7,612.7,193.4z"/><path stroke="#000" stroke-miterlimit="10" d="M612.7 198.4c-.2.4-1.1.4-2.2-.4-.5-.4-1.1-1.1-1.4-2-.3-.9-.5-2-.2-3.1.3-1.4 1.2-2.5 2.1-3.1.9-.7 1.8-.9 2.5-.9l.6 0 .1.1c.5.4.5.9.4 1.1-.1.3-.2.5-.4.6-.2.1-.3.1-.4.1-.1-.1-.1-.1-.1-.2 0-.1 0-.2 0-.3 0-.1-.1-.1-.1-.2 0 0-.1 0-.1 0 0 0 .2-.1.2-.1l.4.6c-.7.6-1.6 1.7-1.9 3-.2 1 0 2.1.2 2.9C612.6 197.4 612.9 198 612.7 198.4zM681.3 252.5c-.3-.4 3-3.4 7.8-8.8.6-.7 1.2-1.4 1.9-2.1.6-.7 1.2-1.6 1.9-2.4 1.4-1.6 2.6-3.5 4-5.4 2.7-3.9 5.4-8.4 7.9-13.2 2.4-4.9 4.4-9.7 5.9-14.2.7-2.3 1.4-4.4 1.9-6.5.3-1 .6-2 .8-3 .2-1 .4-1.9.6-2.8 1.5-7 1.9-11.5 2.4-11.5.4 0 .8 4.6-.2 11.9-.1.9-.3 1.9-.4 2.9-.2 1-.4 2-.6 3.1-.4 2.1-1 4.4-1.7 6.7-1.4 4.7-3.3 9.7-5.9 14.8-2.6 5-5.5 9.6-8.4 13.5-1.5 1.9-2.9 3.8-4.4 5.4-.7.8-1.4 1.6-2.1 2.3-.7.7-1.4 1.4-2.1 2C685.5 250.4 681.6 252.8 681.3 252.5zM657.1 263.2c.1.4-1.4 1.4-4.3 1.6-2.9.3-6.9-.5-10.7-2.7-3.7-2.2-6.4-4.9-8.2-7-1.8-2.1-2.6-3.5-2.3-3.9.3-.3 1.8.6 3.9 2.2 2.1 1.6 4.9 3.9 8.2 5.8 3.3 1.9 6.6 2.9 9.1 3.2C655.3 262.9 657 262.8 657.1 263.2z"/><path stroke="#000" stroke-miterlimit="10" d="M690.9 245.3c.3.4-1.4 2.1-4.4 4.6-3 2.5-7.3 5.7-12.6 8.6-2.6 1.4-5.3 2.6-7.7 3.5-2.5.9-4.8 1.5-6.7 1.8-3.9.6-6.4.4-6.4-.1 0-.5 2.3-1 5.9-2.2 1.8-.6 3.9-1.4 6.2-2.3 2.3-1 4.7-2.2 7.3-3.6 5.1-2.8 9.5-5.7 12.8-7.7C688.4 246.1 690.6 245 690.9 245.3zM676.9 213.3c-.4-.8 2.3-3 4.7-6.5 2.4-3.4 3.5-6.7 4.4-6.6.4.1.7 1.1.5 2.7-.2 1.6-.9 3.8-2.3 5.8-1.4 2-3.2 3.5-4.6 4.2C678.2 213.6 677.1 213.7 676.9 213.3zM652.9 216c0 .9-1.6 1.7-3.4 2.4-.4.1-.7.3-1 .4-.1 0-.3.1-.5.2-.2.1-.3.1-.5.2-.3.3-.3.4-.6.5-.4.1-1.1 0-1.3-.8-.1-.4 0-1 .2-1.4.2-.5.6-1 1.2-1.4.4-.3.8-.5 1.3-.7 1.2-.5 2.4-.6 3.2-.4C652.4 215.2 652.9 215.6 652.9 216z"/><path stroke="#000" stroke-miterlimit="10" d="M676.5 233.1c.1.2-.3.6-1.1 1-.8.4-2.1.9-3.8 1.1-3.3.4-8.2-.4-12.5-3.3-4.3-2.8-7-6.5-8.7-9.2-1.7-2.7-2.3-4.6-2-4.9.4-.3 1.8 1.2 3.8 3.5 2.1 2.3 4.9 5.4 8.7 7.9 3.7 2.5 7.7 3.5 10.6 3.7C674.4 233.1 676.3 232.6 676.5 233.1zM665.6 188c-.8-.5 0-3 1.2-5.9 1.2-2.8 2.5-5.2 3.4-5 .9.2 1 3.1-.4 6.2C668.5 186.6 666.4 188.5 665.6 188z"/><ellipse cx="700.2" cy="195.2" stroke="#000" stroke-miterlimit="10" rx="6.2" ry="1.6" transform="rotate(107.866 700.161 195.221)"/><ellipse cx="650" cy="187.8" stroke="#000" stroke-miterlimit="10" rx="2.6" ry="1.6" transform="rotate(129.747 650.016 187.783)"/><circle cx="655.3" cy="190.3" r="1.6" stroke="#000" stroke-miterlimit="10"/><path stroke="#000" stroke-miterlimit="10" d="M702.2,210.6c-0.4,0.2-0.9,0.2-1.3-0.1c-0.5-0.3-0.9-0.8-1-1.5c-0.2-0.7,0-1.4,0.3-1.8
				c0.3-0.5,0.7-0.7,1.2-0.6c0.9,0.1,1.5,0.9,1.7,1.7C703.2,209.1,703,210.1,702.2,210.6z"/><ellipse cx="705.2" cy="208.3" stroke="#000" stroke-miterlimit="10" rx="1.8" ry="1.6" transform="rotate(82.34 705.198 208.311)"/><path stroke="#000" stroke-miterlimit="10" d="M683.2 164.5c-.3.3-1.4-.3-3-.9-1.6-.6-3.8-1.3-6.3-1.2-2.5.1-4.7.9-6.2 1.7-1.6.8-2.5 1.4-2.9 1.1-.3-.3.1-1.5 1.6-3 1.5-1.4 4.2-2.9 7.4-3 3.3-.1 6.1 1.2 7.6 2.5C683.1 162.9 683.6 164.2 683.2 164.5zM714.1 177.5c-.4.2-1.2-.6-2.3-1.5-1.2-1-2.9-2.2-5-2.9-1-.4-2.1-.6-3-.7-1-.1-1.8-.1-2.2 0-.4 0-.7.3-.9.6-.1.1-.1.3-.2.4 0 .1-.1.3-.2.3-.1.1-.2.1-.4 0-.2-.1-.4-.3-.5-.6-.1-.3-.2-.8-.1-1.3.1-.2.2-.5.3-.8.1-.1.2-.3.3-.4 0-.1.2-.2.3-.3.5-.4 1.1-.6 1.7-.8.6-.1 1.2-.2 1.8-.2 1.3 0 2.7.2 4 .7 2.7 1 4.7 2.9 5.6 4.5C714.5 176.1 714.5 177.3 714.1 177.5zM611.4 221.4c-.1.2-1.2-.3-3.1-1.6-1.8-1.2-4.3-3.3-7-6.3-2.7-2.9-5.5-6.8-7.9-11.5-2.4-4.7-4.5-10.2-5.8-16.1-1.2-6-1.7-11.8-1.6-17 .1-5.2.6-9.9 1.3-13.8 1.4-7.8 3.1-12.4 3.5-12.3.5.1-.4 4.9-1.2 12.6-.8 7.7-1.2 18.4 1.2 29.8 1.2 5.7 3.1 10.9 5.3 15.5 2.2 4.5 4.7 8.4 7 11.4C607.8 218.1 611.8 221 611.4 221.4zM591.5 141.8c-.1.4-.7.7-1.6.6-.9-.1-2-.5-2.9-1.4-.9-.9-1.5-2-1.6-2.8-.1-.9.1-1.5.5-1.6.4-.2.9.1 1.5.5.6.4 1.2 1 1.8 1.6.7.6 1.3 1.2 1.7 1.7C591.3 140.9 591.6 141.4 591.5 141.8z"/><path stroke="#000" stroke-miterlimit="10" d="M588.8 129.8c.2.4 0 1-.3 1.6-.3.6-.6 1.4-.9 2.2-.3.9-.4 1.6-.5 2.3-.1.7-.3 1.2-.7 1.5-.4.2-1 0-1.6-.9-.5-.9-.8-2.4-.3-3.8.5-1.5 1.5-2.6 2.5-3C587.9 129.2 588.6 129.4 588.8 129.8zM603.3 102.4c-.1.2-.6.1-1.4.1-.7 0-1.8.1-2.9.8-1.1.6-2.2 1.7-3.4 3.3-1.1 1.5-2.2 3.3-3.2 5.3-1.9 4-2.6 7.9-2.8 10.8-.3 2.9-.2 4.8-.6 4.9-.4.1-1.3-1.7-1.7-4.9-.4-3.2.1-7.7 2.2-12.2 1-2.2 2.4-4.2 3.8-5.8 1.4-1.6 3.1-2.9 4.8-3.5 1.7-.6 3.3-.3 4.1.1C603.1 101.7 603.4 102.2 603.3 102.4zM611.1 110.7c-.5 0-.9-.5-1.3-1.3-.5-.7-1-1.7-1.7-2.7-.7-1-1.5-1.8-2-2.5-.6-.7-1-1.2-.8-1.7.1-.4.9-.6 2-.3 1.1.3 2.5 1.1 3.5 2.5 1 1.4 1.4 3 1.4 4.1C611.9 110 611.5 110.7 611.1 110.7z"/><path stroke="#000" stroke-miterlimit="10" d="M542.5,290.6c-0.2,0-0.3-2.4,0.5-6.6c0.8-4.2,2.5-10.1,5.8-17c3.2-6.9,7.8-14.6,12.8-23.2
				c2.4-4.3,5-8.8,7.1-13.7c1.1-2.4,2.1-4.9,3-7.5c0.9-2.6,1.6-5.2,2.1-8c1.1-5.5,1.1-10.9,0.6-16.2c-0.5-5.3-1.5-10.4-2.2-15.3
				c-0.7-4.9-1.3-9.7-1.2-14.3c0-2.3,0.2-4.5,0.5-6.5c0.3-2.1,0.7-4.1,1.2-5.9c2-7.4,5.3-12.8,7.9-16.2c2.6-3.4,4.4-4.9,4.6-4.8
				c0.2,0.2-1.3,2-3.5,5.5c-2.2,3.5-5,8.9-6.7,16.1c-0.4,1.8-0.7,3.7-1,5.7c-0.2,2-0.3,4.1-0.3,6.2c0,4.3,0.7,8.9,1.5,13.8
				c0.8,4.9,1.8,10,2.4,15.5c0.6,5.5,0.6,11.3-0.5,17.1c-0.5,2.9-1.3,5.7-2.3,8.4c-0.9,2.7-2,5.3-3.1,7.8c-2.3,5-4.9,9.6-7.4,13.9
				c-5.1,8.6-9.9,16.1-13.3,22.7c-3.5,6.6-5.5,12.3-6.6,16.3C543.1,288.4,542.7,290.7,542.5,290.6z"/><path stroke="#000" stroke-miterlimit="10" d="M534.8 290.2c-.1.1-.6-.7-1.5-2.1-.8-1.5-2-3.7-3-6.8-2.1-6.1-3.4-15.7-1.9-27.1.7-5.7 2-11.9 3.5-18.5 1.5-6.5 3.2-13.5 4.2-20.9 1.1-7.4 1.1-15.2.3-23.2-.8-8.1-2.5-16.4-4.2-24.9-.9-4.3-1.7-8.5-2.5-12.7-.8-4.2-1.4-8.5-1.4-12.7.1-4.3.7-8.5 2-12.4 1.2-3.9 2.9-7.5 4.9-10.9 3.9-6.7 8.7-12.2 13.5-17 4.8-4.7 9.7-9 15.2-11.4 5.4-2.5 11.1-2.9 15.7-1.6 2.3.7 4.3 1.8 5.8 3.1 1.5 1.4 2.7 2.9 3.4 4.4 1.5 3 1.6 5.7 1.4 7.4-.3 1.7-.8 2.5-.9 2.5-.1 0 .1-.9.2-2.5 0-1.6-.3-4.1-1.8-6.7-.8-1.3-1.9-2.6-3.3-3.8-1.4-1.1-3.2-2-5.3-2.5-4.2-1.1-9.4-.5-14.3 1.9-5 2.4-9.6 6.5-14.2 11.2-4.6 4.8-9.2 10.2-12.9 16.6-3.6 6.4-6.2 13.8-6.2 21.7 0 4 .6 8 1.4 12.1.8 4.1 1.6 8.3 2.5 12.6 1.7 8.5 3.4 16.9 4.2 25.2.8 8.3.7 16.4-.5 24-1.1 7.6-3 14.6-4.6 21.1-1.6 6.5-3 12.6-3.8 18.1-1.7 11.2-.8 20.4.9 26.5C533.1 287.1 535.1 290.1 534.8 290.2zM703.1 128.8c-.1.4-5.9-.9-14.1-5.6-4.1-2.3-8.8-5.4-13.9-8.8-2.6-1.7-5.3-3.4-8.1-5-1.4-.8-2.9-1.5-4.5-2.1-.8-.3-1.6-.6-2.3-.9-.8-.3-1.6-.5-2.4-.8-3.3-1-6.6-1.7-9.8-1.9-1.6-.2-3.2-.2-4.8-.2-.8 0-1.6.1-2.3.1-.8 0-1.5.1-2.3.2-6 .6-11.2 2-15.4 3.8-4.2 1.7-7.4 3.7-9.6 5-2.1 1.4-3.3 2.2-3.5 2.1-.1-.2.8-1.3 2.7-3.1 2-1.7 5.1-4 9.4-6.1 4.3-2.1 9.8-3.9 16.1-4.7.8-.1 1.6-.2 2.4-.2.8 0 1.6-.1 2.5-.1 1.7 0 3.4 0 5.1.2 3.5.2 7 .9 10.5 2 .9.3 1.7.6 2.6.8.8.3 1.7.7 2.5 1 1.7.7 3.2 1.5 4.7 2.3 3 1.7 5.7 3.5 8.3 5.3 5.1 3.6 9.5 6.8 13.4 9.3C697.8 126.3 703.2 128.3 703.1 128.8zM734.3 182.2c-.5-.3 1.6-3.6 2.3-9.7.4-3 .3-6.6-.5-10.5-.8-3.9-2.3-8-4.8-11.8-2.5-3.8-5.5-7-8.6-9.6-3.1-2.5-6.2-4.5-8.9-5.9-5.4-2.9-9.1-4.2-8.9-4.7.1-.4 4 .1 9.9 2.6 2.9 1.3 6.3 3.1 9.7 5.7 3.4 2.6 6.8 6 9.5 10.2 2.7 4.2 4.3 8.8 5 13.1.7 4.3.5 8.2-.2 11.4-.7 3.2-1.8 5.6-2.7 7.1C735.2 181.6 734.5 182.3 734.3 182.2z"/><path stroke="#000" stroke-miterlimit="10" d="M737.9 184.9c0 .2-.8.5-2.2.8-1.5.3-3.6.6-6.3.6-2.7 0-6.1-.4-9.5-2.2-1.7-.9-3.2-2.2-4.6-3.5-1.4-1.4-2.7-2.8-4.1-4.3-10.8-11.8-18.1-22.5-17.4-23.1.7-.6 9.1 9.2 19.8 20.9 2.7 2.9 5.1 5.8 7.8 7.4 2.7 1.6 5.6 2.2 8.1 2.5 2.5.3 4.6.3 6.1.4C737.1 184.6 737.9 184.7 737.9 184.9zM664.9 148.8c.4.2-.6 3.7-2.9 9.1-1.2 2.7-2.7 5.9-4.9 9.2-2.2 3.3-4.9 6.8-8.5 9.8-1.8 1.5-3.7 2.7-5.7 3.7-2 1-4 1.7-5.9 2.3-2 .5-3.9.8-5.7.9-1.8 0-3.5-.1-5-.4-3-.6-5.3-1.7-6.7-2.7-.8-.6-1.2-1.4-1.1-1.9.1-.5.5-.6.6-.6.1 0-.1.1 0 .5.1.3.5.7 1.1 1 1.5.5 3.6 1.3 6.4 1.5 1.4.1 2.9.1 4.5 0 1.6-.2 3.3-.5 5.1-1.1 1.7-.6 3.5-1.3 5.3-2.2 1.8-.9 3.5-2.1 5.1-3.4 3.3-2.7 5.9-5.9 8.1-8.9 2.2-3.1 3.9-6 5.3-8.6C662.7 151.8 664.4 148.6 664.9 148.8z"/><path stroke="#000" stroke-miterlimit="10" d="M693.2 160.8c0 .4-1.8 1.1-4.9 1.3-3.1.2-7.5-.1-12.1-1.6-4.6-1.4-8.4-3.7-10.8-5.7-.6-.5-1.1-.9-1.6-1.4-.5-.5-.8-1-1.1-1.4-.5-1-.2-1.6 0-1.6.2 0 .4.4 1 .8.3.2.7.5 1.1.7.5.3 1.1.6 1.8.9 2.6 1.4 6.2 3.1 10.5 4.5C685.6 160.2 693.1 159.9 693.2 160.8zM745.5 176.6c-.5-.1 0-2.4.3-6.1.4-3.6.6-8.7-.2-14.1-.4-2.7-1.2-5-2.4-6.9-1.2-2-2.5-3.7-3.7-5.1-2.4-2.8-3.9-4.6-3.6-4.9.3-.3 2.3.8 5.3 3.3 1.4 1.3 3.1 2.9 4.6 5.1.7 1.1 1.4 2.3 2 3.7.5 1.4.9 2.8 1.1 4.3.9 5.9.2 11.3-.7 15C747.2 174.7 745.9 176.8 745.5 176.6zM628 408.6c.1.5-2.8 1-6.6 3.2-1.9 1.1-4.1 2.6-6.3 4.6-2.2 1.9-4.6 4.3-6.9 6.8-2.3 2.5-4.4 5-6.1 7.5-1.7 2.4-3 4.8-4 6.8-2 4-2.8 6.8-3.3 6.7-.4-.1-.3-3 1.2-7.5.8-2.2 1.9-4.8 3.6-7.5 1.6-2.7 3.7-5.4 6.2-8.1 2.5-2.6 5-4.9 7.4-6.9 2.5-1.9 4.9-3.4 7.2-4.3 2.2-.9 4.2-1.3 5.5-1.4C627.2 408.2 627.9 408.4 628 408.6zM609.7 401.5c.4.9-6.4 4.3-12.7 11-3.2 3.3-5.6 6.7-7.3 9.2-.4.6-.8 1.2-1.1 1.7-.3.5-.5.8-.7 1.2-.1.3-.2.6-.1.8 0 .2 0 .3-.1.4-.1.1-.9-.1-1-1.3-.1-.5.1-1.2.3-1.8.2-.6.4-1.3.7-2 1.2-2.9 3.5-6.8 6.9-10.4 3.4-3.6 7.1-6 10-7.4C607.5 401.4 609.5 401.1 609.7 401.5zM797.5 475.2c0 .4-7 1.4-18.3 2-11.4.6-27.1.8-44.5-.3-8.7-.5-16.9-1.3-24.4-2.2-7.5-.9-14.1-1.8-19.7-2-5.6-.3-10.1.1-13.2.5-3.1.4-4.8.8-4.9.6-.1-.2 1.5-1 4.7-1.8 3.1-.8 7.8-1.5 13.5-1.6 5.8-.1 12.6.5 20 1.3 7.4.7 15.6 1.4 24.3 2 17.2 1.1 32.9 1.3 44.2 1.3C790.5 474.9 797.5 474.7 797.5 475.2zM820.3 493.3c0 .1-.5.2-1.6.3-1 .1-2.5.1-4.4.2-3.8.2-9.4.7-16.2 1.9-6.8 1.2-14.8 3.1-23.6 5.5-8.8 2.4-18.5 5.2-29 7.4-10.4 2.2-20.5 3.6-29.7 4.2-9.2.5-17.6.3-24.5-.5-7-.7-12.5-1.9-16.3-2.9-3.8-1-5.8-1.8-5.7-2 .1-.6 8.5 1.7 22.2 2.6 6.9.4 15.1.5 24.1-.2 9.1-.7 19-2.1 29.3-4.3 10.3-2.2 20-4.9 28.9-7.2 8.9-2.3 17.1-4 24-4.9 6.9-.9 12.6-1.1 16.5-.9 2 0 3.5.3 4.5.4C819.7 493.1 820.3 493.2 820.3 493.3zM879.2 501.4c-.2.1-.9-1-2-3-1.1-2-2.5-4.9-4.5-8.3-2-3.4-4.6-7.4-8.5-10.8-3.8-3.4-8.9-5.9-14.7-7.1-5.8-1.2-11.6-1.4-16.9-1.3-5.3 0-10.1.3-14.1.6-8 .6-13 1.3-13.1.8-.1-.4 4.7-1.9 12.8-3.1 4-.6 8.9-1.1 14.3-1.3 5.4-.2 11.4-.2 17.7 1.2 6.2 1.3 12 4.2 16.1 8.1 4.1 3.9 6.6 8.2 8.5 11.9 1.8 3.7 3 6.8 3.7 8.9C879.1 500.1 879.4 501.3 879.2 501.4z"/><path stroke="#000" stroke-miterlimit="10" d="M879.1,499.5c0.3,0.3-0.2,1.6-1.6,3.5c-1.4,1.8-3.6,4.2-6.4,6.3c-1.4,1-2.8,2-4.2,2.7
				c-1.4,0.7-2.9,1.2-4.1,1.3c-1.3,0.1-2.3-0.1-3-0.3c-0.7-0.3-0.9-0.6-0.9-0.8c0.1-0.5,1.5-0.4,3.3-1.1c1.9-0.7,4.2-2.3,6.9-4.3
				C874.5,502.6,878.4,498.9,879.1,499.5z"/><path stroke="#000" stroke-miterlimit="10" d="M870.5 507.9c-.4.1-1.1-1.3-1.9-3.4-.8-2.2-1.7-5.2-2.9-8.4-.6-1.6-1.3-3-1.9-4.3-.7-1.3-1.3-2.4-2-3.3-1.2-1.8-2.2-3-1.9-3.3.2-.3 1.7.2 3.6 1.8.9.8 1.9 1.9 2.8 3.3.9 1.4 1.7 2.9 2.4 4.7 1.3 3.5 1.9 6.7 2.1 9.1C871.1 506.3 870.9 507.8 870.5 507.9zM860.9 512.5c-.9 0-1.2-5.7-4.2-11.7-2.9-6.1-7.1-9.8-6.6-10.6.2-.3 1.7.2 3.6 1.7 1 .7 2 1.8 3 3 1 1.3 2 2.8 2.8 4.5.8 1.7 1.4 3.4 1.7 5 .3 1.6.5 3 .5 4.3C861.9 511.1 861.3 512.6 860.9 512.5zM859.7 470.5c-.5.8-9.8-4.9-21.7-11-1.4-.8-2.8-1.3-3.9-1.3-1.1 0-2.3.5-3.4 1.2-1.1.7-2.1 1.6-3.1 2.5-1 .8-2 1.6-2.8 2.2-3.5 2.7-5.8 4.2-6.1 3.9-.3-.3 1.5-2.5 4.6-5.6.8-.8 1.6-1.6 2.6-2.5.9-.9 1.9-1.9 3.2-2.9 1.3-.9 2.9-1.9 5-2 2.1 0 3.9.8 5.4 1.6C851.6 462.8 860.2 469.8 859.7 470.5zM808.5 448.6c-.6.7-4.2-1.5-8.6-4.2-4.4-2.7-8-4.9-7.6-5.8.3-.8 4.7.2 9.3 3C806.2 444.5 809.1 447.9 808.5 448.6zM817.7 437.2c-.6.7-3.7-.9-6.8-3.9-3.1-2.9-4.9-6-4.2-6.6.7-.6 3.5 1.4 6.5 4.2C816.1 433.8 818.3 436.5 817.7 437.2z"/><ellipse cx="862.2" cy="434.3" stroke="#000" stroke-miterlimit="10" rx="16.5" ry="1.6" transform="rotate(-51.983 862.267 434.365)"/><ellipse cx="869.9" cy="447.9" stroke="#000" stroke-miterlimit="10" rx="9.1" ry="1.6" transform="rotate(-48.892 869.792 447.872)"/></svg>