<svg id="Layer_2" data-name="Layer 2" xmlns="http://www.w3.org/2000/svg" xmlns:xlink="http://www.w3.org/1999/xlink" viewBox="0 0 400 300" width="406" height="306" class="illustration styles_illustrationTablet__1DWOa"><defs><linearGradient id="linear-gradient" x1="199.1" y1="253.02" x2="220.54" y2="222.81" gradientUnits="userSpaceOnUse"><stop offset="0" stop-color="#666" stop-opacity="0"></stop><stop offset="1" stop-color="#4d4d4d"></stop></linearGradient><linearGradient id="linear-gradient-2" x1="325.72" y1="203.97" x2="347.16" y2="173.76" xlink:href="#linear-gradient"></linearGradient><linearGradient id="linear-gradient-3" x1="129.61" y1="242.23" x2="153.23" y2="208.94" xlink:href="#linear-gradient"></linearGradient><linearGradient id="linear-gradient-4" x1="38.65" y1="182.08" x2="51.01" y2="170.54" xlink:href="#linear-gradient"></linearGradient></defs><title>PP</title><path d="M194.28,287,14.56,180.76c-5.72-3.21-10.63-8.49-5.05-11.94l180.37-104c2.71-1.68,6.82-2.78,9.57-1.18L388.11,173.18c5.72,3.32,6.75,12.6,1,15.93L218,286.81A23.9,23.9,0,0,1,194.28,287Z" fill="#c4c4c4"></path><path d="M233.94,230.71l-7.22-5-44.26,24,9,5.33C205.77,247.2,219.79,238.84,233.94,230.71Z" opacity="0.32" fill="url(#linear-gradient)"></path><path d="M370.59,188.5l-27.15-18.88-44.26,24,31.28,18.51S356,196.82,370.59,188.5Z" opacity="0.32" fill="url(#linear-gradient-2)"></path><polyline points="126.19 193.19 85.12 220.03 152.51 260.83 197.48 231.48" opacity="0.32" fill="url(#linear-gradient-3)"></polyline><polyline points="132.26 35.49 125.6 38.44 132 41.26 133.55 37.95" fill="#68e1fd"></polyline><path d="M193,231.44l-55.41-32.29a14.77,14.77,0,0,1-7.34-12.76L128.5,39.72c0-3.85,6-5.81,9.29-3.85l57.33,33.86a9.5,9.5,0,0,1,4.67,8.18V227.56A4.49,4.49,0,0,1,193,231.44Z" fill="#68e1fd"></path><polyline points="197.48 231.48 190.23 235.31 191.07 230.26 196.1 229.35" fill="#68e1fd"></polyline><path d="M186.09,235.12l-55.41-32.29a14.77,14.77,0,0,1-7.34-12.76V42a3.92,3.92,0,0,1,5.92-3.38l58.91,34.79a9.5,9.5,0,0,1,4.67,8.18V231.24A4.49,4.49,0,0,1,186.09,235.12Z" fill="#f4f4f4"></path><polygon points="189.32 90.62 126.19 54.42 126.19 183.96 189.32 220.45 189.32 90.62" fill="#fff"></polygon><ellipse cx="151.88" cy="207.59" rx="2.91" ry="3.93" transform="translate(-44.05 40.94) rotate(-13.43)" fill="#bababc"></ellipse><path d="M149.52,60.65h0a1.41,1.41,0,0,0,.71,1.22l12.2,7a1.41,1.41,0,0,0,2.11-1.22v-.3a1.41,1.41,0,0,0-.73-1.23l-12.2-6.71A1.41,1.41,0,0,0,149.52,60.65Z" fill="#ccc"></path><ellipse cx="143.92" cy="56.92" rx="1.38" ry="1.88" transform="translate(-10.81 53.48) rotate(-20.31)" fill="#ccc"></ellipse><polyline points="280.67 35.07 287.33 38.02 280.93 40.84 279.38 37.52" fill="#68e1fd"></polyline><path d="M219.9,231l55.41-32.29A14.77,14.77,0,0,0,282.64,186L284.43,39.3c0-3.85-6-5.81-9.29-3.85L217.81,69.31a9.5,9.5,0,0,0-4.67,8.18V227.14A4.49,4.49,0,0,0,219.9,231Z" fill="#68e1fd"></path><polyline points="215.45 231.06 222.7 234.89 221.86 229.84 216.83 228.93" fill="#68e1fd"></polyline><path d="M226.84,234.69l55.41-32.29a14.77,14.77,0,0,0,7.34-12.76V41.57a3.92,3.92,0,0,0-5.92-3.38L224.76,73a9.5,9.5,0,0,0-4.67,8.18V230.82A4.49,4.49,0,0,0,226.84,234.69Z" fill="#f4f4f4"></path><polygon points="223.61 90.2 286.74 54 286.74 183.53 223.61 220.03 223.61 90.2" fill="#fff"></polygon><ellipse cx="261.05" cy="207.17" rx="3.93" ry="2.91" transform="translate(-1.07 412.98) rotate(-76.57)" fill="#bababc"></ellipse><path d="M263.41,60.23h0a1.41,1.41,0,0,1-.71,1.22l-12.2,7a1.41,1.41,0,0,1-2.11-1.22v-.3a1.41,1.41,0,0,1,.73-1.23L261.32,59A1.41,1.41,0,0,1,263.41,60.23Z" fill="#ccc"></path><ellipse cx="269.02" cy="56.5" rx="1.88" ry="1.38" transform="translate(122.67 289.19) rotate(-69.69)" fill="#ccc"></ellipse><ellipse cx="157.03" cy="104.81" rx="6.52" ry="8.94" transform="translate(-26.61 61.01) rotate(-20.31)" fill="#868686"></ellipse><path d="M157,102v-2.5" fill="none" stroke="#2e3192" stroke-linecap="round" stroke-miterlimit="10" stroke-width="3"></path><path d="M157,91.37V69.25c0-11.05,1.39-19.23,8.35-28.08a50.85,50.85,0,0,1,28.84-18.45,56.33,56.33,0,0,1,43.25,8.15,47.31,47.31,0,0,1,15,15.41c4.32,7.51,3.4,14.49,3.4,22.77v28.8" fill="none" stroke="#2e3192" stroke-linecap="round" stroke-miterlimit="10" stroke-width="3" stroke-dasharray="5.05 8.08"></path><path d="M255.9,101.89v2.5" fill="none" stroke="#2e3192" stroke-linecap="round" stroke-miterlimit="10" stroke-width="3"></path><polygon points="246.66 104.25 265.31 93.56 256.66 115.22 246.66 104.25" fill="#1b1464"></polygon><path d="M44,191.55c9-5.87,18.12-11.64,27.19-17.45L53.95,161.53l-31.23,13C28.71,181.38,36.19,186.69,44,191.55Z" opacity="0.32" fill="url(#linear-gradient-4)"></path><path d="M77.7,129.56a3.05,3.05,0,0,0-.53-1.14A6.8,6.8,0,0,0,75.49,127c-8.47-5.73-20.18-7.31-29.13-1.71-2,1.28-5.08,4.18-3.87,6.91.7,1.59,2.83,2.51,4.3,3.16,4.8,2.11,10.16,3.12,15.31,4,1.9.32,3.81.64,5.73.82a7.91,7.91,0,0,0,7-3C76.16,135.47,78.3,132,77.7,129.56Z" fill="#754c24"></path><path d="M42.26,130.93s7.72,7,21.06,6,14.38-7.34,14.38-7.34-3.45,44.21-5.28,45-8.64,4-11.92,4.29-13.69-3.92-13.95-5.07S42.26,130.93,42.26,130.93Z" fill="#68e1fd"></path><path d="M44.7,66.5c-.41-.83-1.67-.1-1.26.73,9.13,18.4,10.91,39.12,12.55,59.24.07.92,1.53.93,1.46,0C55.78,106.08,53.95,85.14,44.7,66.5Z" fill="#007f68"></path><path d="M43.53,66.67s2.55,9.55-.08,14.32-4.81,5.73-1.66,11.69S53.34,99.42,53.9,104,49.87,74.78,43.53,66.67Z" fill="#007f68"></path><path d="M72.73,83.91a120.05,120.05,0,0,0-11.58,47c0,1.13,1.73,1.13,1.78,0A117.87,117.87,0,0,1,74.26,84.8C74.74,83.78,73.21,82.89,72.73,83.91Z" fill="#007f68"></path><path d="M74,88.57c0-1-.21-2.84-.11-4.53q-.5.33-1,.64c-3.47,8.43-8.64,28.23-10.2,34.3,2.11-4.54,10.75-5.16,13.28-11.69a11.92,11.92,0,0,0,.15-8.61A31.77,31.77,0,0,1,74,88.57Z" fill="#007f68"></path><ellipse cx="353.69" cy="180.35" rx="21.89" ry="12.82" fill="#ff912e"></ellipse><polygon points="331.8 180.35 331.8 176.64 334.18 179.6 331.8 180.35" fill="#e0944f"></polygon><polygon points="375.58 176.64 375.58 180.35 372.8 180.35 374.83 177.37 375.58 176.64" fill="#e0944f"></polygon><ellipse cx="353.69" cy="176.64" rx="21.89" ry="12.82" fill="#ffb92c"></ellipse><path d="M364.79,174.93a1.71,1.71,0,0,1,.17,1l-.09.34-4,0a1.82,1.82,0,0,0,.07-.34,1.49,1.49,0,0,0-.24-.73,2.19,2.19,0,0,0-1-.89,4.37,4.37,0,0,0-1.88-.49,4,4,0,0,0-1.78.27q-.84.36-.65.94a3.46,3.46,0,0,0,.85,1.25,15.22,15.22,0,0,1,1.21,1.39,1.46,1.46,0,0,1,.22,1.54,3.44,3.44,0,0,1-1.94,1.51,11.5,11.5,0,0,1-4.23.88,13.54,13.54,0,0,1-4.63-.65l-2.3,1-2.69-1.31,2.23-1a5,5,0,0,1-1.07-1,2.84,2.84,0,0,1-.53-.89,2.93,2.93,0,0,1-.14-.72,1.56,1.56,0,0,1,0-.5l.08-.19h4a3.19,3.19,0,0,0-.1.4,1.7,1.7,0,0,0,.32.91,3,3,0,0,0,1.32,1.13,5.68,5.68,0,0,0,2.32.6,4.83,4.83,0,0,0,2.14-.34q.83-.36.62-.94a3.45,3.45,0,0,0-.88-1.25,12.79,12.79,0,0,1-1.22-1.39,1.43,1.43,0,0,1-.17-1.55,3.73,3.73,0,0,1,2-1.54,11,11,0,0,1,4.06-.8,11.73,11.73,0,0,1,4.33.67l2.29-1,2.51,1.37-2.3,1A3.27,3.27,0,0,1,364.79,174.93Z" fill="#ea8b24"></path><ellipse cx="353.73" cy="176.8" rx="18.37" ry="10.76" fill="none" stroke="#f7931e" stroke-miterlimit="10" stroke-width="2"></ellipse><ellipse cx="353.69" cy="175.67" rx="21.89" ry="12.82" fill="#ff912e"></ellipse><polygon points="331.8 175.67 331.8 171.97 334.18 174.93 331.8 175.67" fill="#e0944f"></polygon><polygon points="375.58 171.97 375.58 175.67 372.8 175.67 374.83 172.7 375.58 171.97" fill="#e0944f"></polygon><ellipse cx="353.69" cy="171.97" rx="21.89" ry="12.82" fill="#ffb92c"></ellipse><path d="M364.79,170.26a1.71,1.71,0,0,1,.17,1l-.09.34-4,0a1.82,1.82,0,0,0,.07-.34,1.49,1.49,0,0,0-.24-.73,2.19,2.19,0,0,0-1-.89,4.37,4.37,0,0,0-1.88-.49,4,4,0,0,0-1.78.27q-.84.36-.65.94a3.46,3.46,0,0,0,.85,1.25,15.22,15.22,0,0,1,1.21,1.39,1.46,1.46,0,0,1,.22,1.54,3.44,3.44,0,0,1-1.94,1.51,11.5,11.5,0,0,1-4.23.88,13.54,13.54,0,0,1-4.63-.65l-2.3,1L341.93,176l2.23-1a5,5,0,0,1-1.07-1,2.84,2.84,0,0,1-.53-.89,2.93,2.93,0,0,1-.14-.72,1.56,1.56,0,0,1,0-.5l.08-.19h4a3.19,3.19,0,0,0-.1.4,1.7,1.7,0,0,0,.32.91,3,3,0,0,0,1.32,1.13,5.68,5.68,0,0,0,2.32.6,4.83,4.83,0,0,0,2.14-.34q.83-.36.62-.94a3.45,3.45,0,0,0-.88-1.25,12.79,12.79,0,0,1-1.22-1.39,1.43,1.43,0,0,1-.17-1.55,3.73,3.73,0,0,1,2-1.54A11,11,0,0,1,357,167a11.73,11.73,0,0,1,4.33.67l2.29-1,2.51,1.37-2.3,1A3.27,3.27,0,0,1,364.79,170.26Z" fill="#ea8b24"></path><ellipse cx="353.73" cy="172.13" rx="18.37" ry="10.76" fill="none" stroke="#f7931e" stroke-miterlimit="10" stroke-width="2"></ellipse><ellipse cx="354.03" cy="171.24" rx="21.89" ry="12.82" fill="#ff912e"></ellipse><polygon points="332.14 171.24 332.14 167.53 334.52 170.49 332.14 171.24" fill="#e0944f"></polygon><polygon points="375.92 167.53 375.92 171.24 373.14 171.24 375.18 168.26 375.92 167.53" fill="#e0944f"></polygon><ellipse cx="354.03" cy="167.53" rx="21.89" ry="12.82" fill="#ffb92c"></ellipse><path d="M365.13,165.82a1.71,1.71,0,0,1,.17,1l-.09.34-4,0a1.82,1.82,0,0,0,.07-.34,1.49,1.49,0,0,0-.24-.73,2.19,2.19,0,0,0-1-.89,4.37,4.37,0,0,0-1.88-.49,4,4,0,0,0-1.78.27q-.84.36-.65.94a3.46,3.46,0,0,0,.85,1.25,15.22,15.22,0,0,1,1.21,1.39,1.46,1.46,0,0,1,.22,1.54,3.44,3.44,0,0,1-1.94,1.51,11.5,11.5,0,0,1-4.23.88,13.54,13.54,0,0,1-4.63-.65l-2.3,1-2.69-1.31,2.23-1a5,5,0,0,1-1.07-1,2.84,2.84,0,0,1-.53-.89,2.93,2.93,0,0,1-.14-.72,1.56,1.56,0,0,1,0-.5l.08-.19h4a3.19,3.19,0,0,0-.1.4,1.7,1.7,0,0,0,.32.91,3,3,0,0,0,1.32,1.13,5.68,5.68,0,0,0,2.32.6,4.83,4.83,0,0,0,2.14-.34q.83-.36.62-.94a3.45,3.45,0,0,0-.88-1.25,12.79,12.79,0,0,1-1.22-1.39,1.43,1.43,0,0,1-.17-1.55,3.73,3.73,0,0,1,2-1.54,11,11,0,0,1,4.06-.8,11.73,11.73,0,0,1,4.33.67l2.29-1,2.51,1.37-2.3,1A3.27,3.27,0,0,1,365.13,165.82Z" fill="#ea8b24"></path><ellipse cx="354.07" cy="167.69" rx="18.37" ry="10.76" fill="none" stroke="#f7931e" stroke-miterlimit="10" stroke-width="2"></ellipse><ellipse cx="359.03" cy="164.08" rx="21.89" ry="12.82" fill="#ff912e"></ellipse><polygon points="337.14 164.07 337.14 160.37 339.52 163.33 337.14 164.07" fill="#e0944f"></polygon><polygon points="380.92 160.37 380.92 164.07 378.14 164.07 380.18 161.1 380.92 160.37" fill="#e0944f"></polygon><ellipse cx="359.03" cy="160.37" rx="21.89" ry="12.82" fill="#ffb92c"></ellipse><path d="M370.13,158.66a1.71,1.71,0,0,1,.17,1l-.09.34-4,0a1.82,1.82,0,0,0,.07-.34,1.49,1.49,0,0,0-.24-.73,2.19,2.19,0,0,0-1-.89,4.37,4.37,0,0,0-1.88-.49,4,4,0,0,0-1.78.27q-.84.36-.65.94a3.46,3.46,0,0,0,.85,1.25,15.22,15.22,0,0,1,1.21,1.39,1.46,1.46,0,0,1,.22,1.54,3.44,3.44,0,0,1-1.94,1.51,11.5,11.5,0,0,1-4.23.88,13.54,13.54,0,0,1-4.63-.65l-2.3,1-2.69-1.31,2.23-1a5,5,0,0,1-1.07-1,2.84,2.84,0,0,1-.53-.89,2.93,2.93,0,0,1-.14-.72,1.56,1.56,0,0,1,0-.5l.08-.19h4a3.19,3.19,0,0,0-.1.4,1.7,1.7,0,0,0,.32.91,3,3,0,0,0,1.32,1.13,5.68,5.68,0,0,0,2.32.6,4.83,4.83,0,0,0,2.14-.34q.83-.36.62-.94a3.45,3.45,0,0,0-.88-1.25,12.79,12.79,0,0,1-1.22-1.39,1.43,1.43,0,0,1-.17-1.55,3.73,3.73,0,0,1,2-1.54,11,11,0,0,1,4.06-.8,11.73,11.73,0,0,1,4.33.67l2.29-1,2.51,1.37-2.3,1A3.27,3.27,0,0,1,370.13,158.66Z" fill="#ea8b24"></path><ellipse cx="359.07" cy="160.53" rx="18.37" ry="10.76" fill="none" stroke="#f7931e" stroke-miterlimit="10" stroke-width="2"></ellipse><path d="M339.48,151s.29,8.38-6.15,8.38c0,0,5.64,1,5.64,6.37,0,0,.61-6,6.66-6C345.63,159.8,339.65,160.62,339.48,151Z" fill="#fff"></path><ellipse cx="152.63" cy="148.01" rx="23.45" ry="25.68" transform="translate(-12.03 13.51) rotate(-4.88)" fill="#f2ae16"></ellipse><ellipse cx="156.7" cy="146.82" rx="23.45" ry="25.68" transform="translate(-11.91 13.85) rotate(-4.88)" fill="#ffd008"></ellipse><ellipse cx="156.7" cy="146.82" rx="20.55" ry="22.51" transform="translate(-11.91 13.85) rotate(-4.88)" fill="none" stroke="#f7931e" stroke-miterlimit="10"></ellipse><path d="M166.37,144.71c-2.39-2-5.59-1.9-8.45-1.13q-1.64-3.42-3.32-6.81a9.55,9.55,0,0,1,2-.36c2-.15,1.55-3.28-.47-3.13a10,10,0,0,0-2.91.71c-.63-1.25-1.25-2.5-1.89-3.74-.93-1.8-3.82-.53-2.89,1.28.68,1.32,1.34,2.65,2,4-3.75,2.66-6.27,7.28-3.41,11.46,2.1,3.08,5.48,2,8.39.88l.87-.35q1.54,3.25,3,6.53a26.52,26.52,0,0,1-4.17.6c-2,.13-1.55,3.26.47,3.13a24.73,24.73,0,0,0,5-.83c.34.76.69,1.51,1,2.26a1.58,1.58,0,0,0,2.89-1.28c-.31-.7-.63-1.4-.95-2.09a10.27,10.27,0,0,0,3.94-3.18A5.76,5.76,0,0,0,166.37,144.71Zm-13.58.78c-3.07,0-4.28-2-3.09-4.62a7.17,7.17,0,0,1,2.07-2.66q1.62,3.26,3.19,6.53A6.4,6.4,0,0,1,152.8,145.49Zm12.16,5.3a5.77,5.77,0,0,1-2.64,2.22q-1.49-3.27-3-6.53c.28-.07.55-.14.84-.17C162.57,146,167,147.17,165,150.79Z" fill="#f7931e"></path><ellipse cx="263.08" cy="150.36" rx="25.68" ry="23.45" transform="translate(90.91 399.71) rotate(-85.12)" fill="#f2ae16"></ellipse><ellipse cx="259.02" cy="149.17" rx="25.68" ry="23.45" transform="translate(88.37 394.57) rotate(-85.12)" fill="#ffd008"></ellipse><ellipse cx="259.02" cy="149.17" rx="22.51" ry="20.55" transform="translate(88.37 394.57) rotate(-85.12)" fill="none" stroke="#f7931e" stroke-miterlimit="10"></ellipse><path d="M266.57,157.16c-.09-3.11-2.31-5.44-4.78-7.06q1.46-3.49,2.87-7a9.55,9.55,0,0,1,1.58,1.23c1.46,1.42,3.48-1,2-2.43a10,10,0,0,0-2.46-1.7c.51-1.3,1-2.6,1.54-3.9.73-1.89-2.15-3.21-2.88-1.3-.53,1.38-1.08,2.76-1.63,4.14-4.48-1-9.6.17-10.83,5.08-.9,3.62,2.15,5.43,4.93,6.85l.84.42q-1.41,3.31-2.85,6.61a26.52,26.52,0,0,1-3.22-2.72c-1.45-1.43-3.46,1-2,2.43a24.73,24.73,0,0,0,4,3.19c-.34.76-.67,1.51-1,2.27a1.58,1.58,0,0,0,2.88,1.3c.32-.7.62-1.4.93-2.1a10.27,10.27,0,0,0,5,.82A5.76,5.76,0,0,0,266.57,157.16ZM257,147.54c-2-2.32-1.37-4.51,1.39-5.38a7.17,7.17,0,0,1,3.36-.22q-1.35,3.37-2.76,6.73A6.4,6.4,0,0,1,257,147.54Zm4.14,12.6a5.77,5.77,0,0,1-3.41-.49q1.45-3.29,2.86-6.6c.23.16.47.32.69.51C263.11,155.16,265.13,159.23,261.1,160.14Z" fill="#f7931e"></path><path d="M136.88,137.37s.29,8.38-6.15,8.38c0,0,5.64,1,5.64,6.37,0,0,.61-6,6.66-6C143,146.13,137,146.95,136.88,137.37Z" fill="#fff"></path></svg>