<svg id="PLANT" xmlns="http://www.w3.org/2000/svg" viewBox="0 0 500 500"><defs><style>.cls-1{fill:#f68d88;}.cls-2{fill:#ecbdbb;}.cls-3{fill:#404b7c;}.cls-4{fill:#9ab3da;}.cls-5{fill:#e9f3ff;}</style></defs><title>Secure</title><path class="cls-1" d="M433.75,457.63H346.82s10.63-43,33-72.63a91.34,91.34,0,0,1,14-15,58.77,58.77,0,0,1,11.85-7.89c35.83-17.74,38.75,15.37,6.34,59.51q-3,4.15-6.5,8.42-3.12,3.84-6.59,7.77s21.17-6.74,13.12,13.86c0,0,14.05-13.86,25.66-11.05S433.75,457.63,433.75,457.63Z"/><path class="cls-2" d="M419.7,390.39c-5.23-2.18-17.23,11.93-11.61,14.94S423,391.77,419.7,390.39Z"/><path class="cls-2" d="M412,421.61q-3,4.15-6.5,8.42c0.53-6.63-.39-16.76-12.91-8.72-16,10.25-20.29-12.83-12.74-36.31a91.34,91.34,0,0,1,14-15c-4.64,14.27-12.47,43.83,3.7,40.08C410.08,407.14,412.28,414.85,412,421.61Z"/><path class="cls-2" d="M370,453.72s24.38-58.64,49.68-80.56C419.7,373.16,391.36,414,370,453.72Z"/><path class="cls-2" d="M396.37,453.72s6.13-9.14,10.87-12.08C407.24,441.63,401.15,450.72,396.37,453.72Z"/><path class="cls-2" d="M422.75,453.72s7.67-7.53,12.91-10C435.66,443.77,428,451.25,422.75,453.72Z"/><path class="cls-2" d="M430.75,420c-6.33-5.23-16.67,8.81-11.05,11.62S435.06,423.55,430.75,420Z"/><path class="cls-3" d="M308,448c-0.35,3.37-9.52,6.15-16.54,7.36-5.61,1-12.79.89-14.63-5.19a13.59,13.59,0,0,1-.28-5.78c1.57-11.76,13-11.55,13-11.55l-8-30s4.19-2.52,7.92-4.22a18.37,18.37,0,0,1,4.13-1.48c3.56-.58,11.24-0.63,13,6.29S308.33,444.59,308,448Z"/><path class="cls-4" d="M308,448c-0.35,3.37-9.52,6.15-16.54,7.36-5.61,1-12.79.89-14.63-5.19a14.51,14.51,0,0,0,8,1.73c9.18-.46,15.29-2.11,18.74-4.24a3.15,3.15,0,0,0,1.4-2.31c0-6.6-.09-35.15-2-42.09-1.35-5-8.52-5.19-13.53-4.65a18.37,18.37,0,0,1,4.13-1.48c3.56-.58,11.24-0.63,13,6.29S308.33,444.59,308,448Z"/><path class="cls-3" d="M281.57,402.79h0a14.93,14.93,0,0,1,17.57,13.61,25.62,25.62,0,0,1,0,3.71c-1,12.93-10.59,23.2-32,35.37Z"/><path class="cls-4" d="M279.55,448.18a0.5,0.5,0,0,1-.29-0.91c12.58-8.89,18.54-17.28,19.34-27.2a25.17,25.17,0,0,0,0-3.64,14.23,14.23,0,0,0-5.43-10.26,14.59,14.59,0,0,0-11.55-2.88,0.5,0.5,0,0,1-.18-1,15.59,15.59,0,0,1,12.34,3.08,15.23,15.23,0,0,1,5.81,11,26.19,26.19,0,0,1,0,3.78c-0.83,10.24-6.92,18.86-19.76,27.93A0.5,0.5,0,0,1,279.55,448.18Z"/><path class="cls-3" d="M296.61,292.87l3.65,51.43s40.19,4.78,53.4,0,23.88-53.15-2.81-58.45S296.61,292.87,296.61,292.87Z"/><path class="cls-3" d="M301.38,292.87v49.74c0,0.84-18.27,74.75-22.2,92.18-2.73,12.08-6,17.82-12.25,20.56a31.78,31.78,0,0,1-10.23,2.2c-8.78.73-14-4.49-16.55-10.31a23.24,23.24,0,0,1-2-9.08c0-7.59,3.37-137.43,3.37-137.43Z"/><path class="cls-4" d="M255.58,430.8h0a0.5,0.5,0,0,1-.46-0.54L265.2,306.6a0.51,0.51,0,0,1,.54-0.46,0.5,0.5,0,0,1,.46.54L256.07,430.34A0.5,0.5,0,0,1,255.58,430.8Z"/><path class="cls-4" d="M272.74,442.88h-0.11a0.5,0.5,0,0,1-.38-0.6l23.86-107.89a0.5,0.5,0,0,1,1,.22L273.23,442.49A0.5,0.5,0,0,1,272.74,442.88Z"/><path class="cls-4" d="M268.5,448.29a16.35,16.35,0,0,1-1.57,7.07,31.78,31.78,0,0,1-10.23,2.2c-8.78.73-14-4.49-16.55-10.31,0.48-8,6.63-14.42,14.16-14.42C262.15,432.83,268.5,439.75,268.5,448.29Z"/><path class="cls-4" d="M301.38,337.5a0.5,0.5,0,0,1-.21,0c-1.9-.88-8.13-3.9-8.43-5.71s-1.91-33-2-34.34a0.5,0.5,0,0,1,.47-0.52,0.47,0.47,0,0,1,.52.47c0.58,11.27,1.74,32.92,2,34.23,0.14,0.82,3.69,3,7.16,4.63V292.87a0.5,0.5,0,0,1,1,0V337A0.5,0.5,0,0,1,301.38,337.5Z"/><path class="cls-4" d="M359,305l-40.47,16.86-19.67-23-15.18,29.79-47.78-8.43,3.41-27.26L214.68,176.38s17.47-12.66,33.06-21.85c7.84-4.62,15.2-8.36,19.64-9.2,7.64-1.43,17.65-.76,27.75.8,21.85,3.38,44.19,11,44.19,11l4.5,119.72Z"/><path class="cls-3" d="M297.75,296.65a0.5,0.5,0,0,1-.49-0.38l-6.48-27.07a0.5,0.5,0,1,1,1-.23L298.23,296a0.5,0.5,0,0,1-.37.6h-0.12Z"/><path class="cls-1" d="M291,248.75c-26.41-22.09-40.74-82.74-43.25-94.22,7.84-4.62,15.2-8.36,19.64-9.2,7.64-1.43,17.65-.76,27.75.8C302.86,206.79,291,248.75,291,248.75Z"/><path class="cls-3" d="M272.37,170.2s-2.25,31.9-.84,53.54L290.07,249l7.31-29.79s-7.87-29.08-18-50C279.39,169.22,277.71,168.38,272.37,170.2Z"/><path class="cls-3" d="M264.08,159.52c-0.11.41,6.74,12.22,8,12.51s7.45-1,8.29-2,1.12-14.89,1.12-14.89S267.87,146,264.08,159.52Z"/><path class="cls-1" d="M264,136.13c-9.51,4.49-15,20,.56,30.56,0,0,6.21-10.51,8.17-11.07s10.94,8.12,10.94,8.12,6.89-6.18,5.2-17.85S271.59,132.54,264,136.13Z"/><path class="cls-2" d="M264.57,167.19a0.5,0.5,0,0,1-.28-0.09c-8.06-5.44-9.88-11.63-10-15.85a0.5,0.5,0,0,1,.49-0.51h0a0.5,0.5,0,0,1,.5.49c0.11,3.92,1.79,9.62,9.12,14.75,1.5-2.5,6.28-10.29,8.19-10.84s8.57,5.51,11.07,7.9c1.32-1.41,6.13-7.3,4.71-17.07a0.5,0.5,0,0,1,1-.14c1.71,11.79-5.07,18-5.36,18.29a0.5,0.5,0,0,1-.68,0c-4.21-4.08-9.39-8.3-10.45-8-1.22.35-5.35,6.55-7.88,10.85a0.5,0.5,0,0,1-.32.23h-0.11Z"/><path class="cls-4" d="M250,151.7s9.27,57.14,38.78,91.71c0,0,11.8-30.35,3.37-99.49a44,44,0,0,1,12.55,2.72c6.18,2.44,16.86,42,18.92,57.52l-18.17,8.24,16.67,11.05s-9.56,30-28.48,46.65c0,0-30.35-12.18-42-34.29l12.93-13.68-20-3s-8.09-30.26-6.64-55a10.78,10.78,0,0,1,5.45-8.72Z"/><path class="cls-3" d="M293.61,270.61a0.5,0.5,0,0,1-.19,0c-0.3-.12-30.66-12.5-42.22-34.52a0.5,0.5,0,0,1,.08-0.58l12.27-13-19.1-2.86a0.5,0.5,0,0,1-.41-0.37c-0.08-.3-8.09-30.62-6.66-55.12a0.5,0.5,0,1,1,1,.06c-1.34,23,5.7,51.19,6.54,54.49l19.72,2.95a0.5,0.5,0,0,1,.29.84l-12.68,13.42c10.91,20.36,38.17,32.32,41.26,33.62,17.35-15.45,26.83-42.44,28-45.86l-16.36-10.84a0.5,0.5,0,0,1,.07-0.87L323,203.86c-1.85-13.46-9.64-43-15.6-53.29a0.5,0.5,0,0,1,.87-0.5c6.07,10.52,14,40.67,15.78,54a0.5,0.5,0,0,1-.29.52l-17.35,7.87L322.36,223a0.5,0.5,0,0,1,.2.57c-0.1.3-9.81,30.3-28.62,46.87A0.5,0.5,0,0,1,293.61,270.61Z"/><path class="cls-3" d="M359.56,457.63H321.9a40.79,40.79,0,0,1,.46-6,54.64,54.64,0,0,1,2.16-9.27l8.06-31.19,19.48-1.12s5.42,26.8,6.56,35.16c0.27,2,.47,4.35.62,6.43C359.48,454.94,359.56,457.63,359.56,457.63Z"/><path class="cls-4" d="M345.35,439h-7.18a3.52,3.52,0,0,1-3.49-4c0.91-6.75,1.15-16.92,1.15-17a0.52,0.52,0,0,1,.51-0.49,0.5,0.5,0,0,1,.49.51c0,0.1-.25,10.32-1.16,17.13a2.52,2.52,0,0,0,2.5,2.85h7.18a2.52,2.52,0,0,0,2.53-2.56c-0.07-4-.3-11.71-1-17.79a0.5,0.5,0,0,1,1-.12c0.75,6.12,1,13.84,1.05,17.9A3.52,3.52,0,0,1,345.35,439Z"/><path class="cls-4" d="M359.56,457.63H321.9a40.79,40.79,0,0,1,.46-6h36.88C359.48,454.94,359.56,457.63,359.56,457.63Z"/><path class="cls-3" d="M357.87,415.4h-29.8s-14-82.62-13.31-98c0.47-9.77,3.57-25,10.56-34.78,4-5.61,9.27-9.43,16.06-9.43,7.57,0,13.66,4.31,18.24,11.21,6.22,9.34,9.68,23.43,10.33,38C371.08,347.68,357.87,415.4,357.87,415.4Z"/><path class="cls-4" d="M351.18,415.91H332.86a0.5,0.5,0,0,1,0-1h18.32A0.5,0.5,0,0,1,351.18,415.91Z"/><path class="cls-4" d="M342.38,404.94a0.5,0.5,0,0,1-.5-0.5V311.88a0.5,0.5,0,0,1,1,0v92.56A0.5,0.5,0,0,1,342.38,404.94Z"/><path class="cls-4" d="M356.33,407.61H329.49a0.5,0.5,0,0,1,0-1h26.84A0.5,0.5,0,1,1,356.33,407.61Z"/><path class="cls-4" d="M359.67,285.85c0,11.49-7.75,20.8-17.29,20.8s-17.28-9.31-17.28-20.8a23.26,23.26,0,0,1,.21-3.22c4-5.61,9.27-9.43,16.06-9.43,7.57,0,13.66,4.31,18.24,11.21C359.66,284.88,359.67,285.37,359.67,285.85Z"/><path class="cls-2" d="M288.55,254.75s-24.92.94-30.35,2.25-10.3,18.17-10.49,19.86,12.93,12,15.74,12.55,13.3-7.87,13.3-7.87a104,104,0,0,0,11.43.56c4.12-.19,13.68-12.18,13.68-12.18Z"/><path class="cls-4" d="M339.32,157.14c13.7,4.57,35.32,64.5,41.66,97.59a19,19,0,0,1-1.42,11.55h0c-5.84,10.79-9.14,10.83-15.64,10.94l-74.06,6.2-2.62-31.48,52.08-11.24s-11.78-37.48-12.37-51C326,167.25,339.32,157.14,339.32,157.14Z"/><path class="cls-3" d="M289.86,283.91a0.5,0.5,0,0,1-.5-0.46L286.74,252a0.5,0.5,0,0,1,.39-0.53l51.55-11.13c-1.42-4.59-11.68-38-12.23-50.57-0.63-14.32,4.4-23.72,8.73-29.08a0.5,0.5,0,1,1,.78.63c-4.22,5.23-9.12,14.4-8.5,28.41C328,203,339.68,240.17,339.8,240.55a0.5,0.5,0,0,1-.37.64l-51.65,11.15,2.54,30.54,56.6-4.74a0.51,0.51,0,0,1,.54.46,0.5,0.5,0,0,1-.46.54l-57.1,4.78h0Z"/><path class="cls-3" d="M368.74,254.12a0.5,0.5,0,0,1-.35-0.14c-8.79-8.6-26.93-12.76-27.11-12.8a0.5,0.5,0,1,1,.22-1c0.76,0.17,18.6,4.25,27.59,13.06A0.5,0.5,0,0,1,368.74,254.12Z"/><path class="cls-3" d="M365.74,245.18a0.5,0.5,0,0,1-.24-0.06,48.16,48.16,0,0,0-21.39-5.42,0.53,0.53,0,0,1-.51-0.49,0.5,0.5,0,0,1,.49-0.51A49.51,49.51,0,0,1,366,244.24,0.5,0.5,0,0,1,365.74,245.18Z"/><circle class="cls-3" cx="299.28" cy="274.33" r="4.22"/><circle class="cls-3" cx="316" cy="273.2" r="4.22"/><path class="cls-1" d="M292.06,225.54l-6.82,133.57a119.67,119.67,0,0,1-34.9,78.53l-20,20H153.72l-20-20a119.67,119.67,0,0,1-34.9-78.53L92,225.54a21.87,21.87,0,0,1,10.66-19.91L192,152.47l89.37,53.16A21.87,21.87,0,0,1,292.06,225.54Z"/><path class="cls-2" d="M280.83,225L274,358.53a108.2,108.2,0,0,1-31.62,71.16l-27.87,27.93h-45l-27.87-27.93a108.2,108.2,0,0,1-31.62-71.16L103.24,225a10.61,10.61,0,0,1,5.17-9.68L192,165.55l83.62,49.73A10.61,10.61,0,0,1,280.83,225Z"/><path class="cls-1" d="M261.46,284.61l-17.51,17.51a49.61,49.61,0,1,1-49.12-42.69,49.29,49.29,0,0,1,31.34,11.2l15.15-15.15A70.7,70.7,0,1,0,261.46,284.61Z"/><path class="cls-1" d="M194.66,337.45a10.65,10.65,0,0,1-7.55-3.13l-29.49-29.49a10.68,10.68,0,1,1,15.1-15.1l21.94,21.94,55.85-55.85a10.68,10.68,0,1,1,15.1,15.1l-63.4,63.4A10.65,10.65,0,0,1,194.66,337.45Z"/><path class="cls-2" d="M287,123.6s2.9-7.12,9.09-6.56c7.77,0.71,6.74,20.23-7.87,17.52Z"/><path class="cls-3" d="M290.61,131.47a0.5,0.5,0,0,1-.5-0.46c0-.08-0.51-8.28,6.48-10.63a0.5,0.5,0,0,1,.32.95c-6.24,2.1-5.82,9.3-5.8,9.61a0.5,0.5,0,0,1-.46.53h0Z"/><path class="cls-3" d="M295.81,128.66a0.5,0.5,0,0,1-.46-0.3,7.26,7.26,0,0,0-3.34-3.48,0.5,0.5,0,0,1,.4-0.92,8.21,8.21,0,0,1,3.86,4,0.5,0.5,0,0,1-.26.66A0.51,0.51,0,0,1,295.81,128.66Z"/><path class="cls-2" d="M243.46,135.57s-6.35-4.34-11.2-.46c-6.09,4.87,5.52,20.6,16.22,10.28Z"/><path class="cls-3" d="M244.48,144.24A0.5,0.5,0,0,1,244,144c-0.15-.27-3.76-6.52-10.13-4.82a0.5,0.5,0,0,1-.26-1c7.11-1.89,11.22,5.23,11.26,5.3A0.5,0.5,0,0,1,244.48,144.24Z"/><path class="cls-3" d="M238.59,144.76a0.5,0.5,0,0,1-.49-0.42,8.21,8.21,0,0,1,1-5.46,0.5,0.5,0,0,1,.84.54,7.32,7.32,0,0,0-.87,4.74,0.5,0.5,0,0,1-.41.58h-0.09Z"/><path class="cls-2" d="M272.81,158.58c-11.87,2.59-20.75-5.25-27.09-16.92a84.42,84.42,0,0,1-5.08-11.45c-6.33-17.42-5.1-33.32,13.06-37.24,17.56-3.79,29.51,6.18,33.16,25.44,0.58,3.11,1,6.18,1.28,9.15C289.44,143,285.76,155.76,272.81,158.58Z"/><path class="cls-3" d="M272.79,159.08c-11.87,2.59-20.73-5.74-27.07-17.41,0.83,0.91,7.27,8.91,13.88,10.79,0,0-.19-6.27,1.22-8.24s10.42-4.8,13.79-4.71,7.47,7.14,7.47,7.14,4.59-5,5.34-19.86c0,0,.27.27,0.72,0.78C289.44,143,285.74,156.25,272.79,159.08Z"/><path class="cls-2" d="M263,149.43a4.21,4.21,0,0,1,2.74-3.51,3.4,3.4,0,0,0,2.39-3.37,5.32,5.32,0,0,0,5.34,1.83c3.65-.63,4.32,1,4.32,1s-3.06,8-6,3.59l-2.39.63S268.15,154.54,263,149.43Z"/><path class="cls-3" d="M265.18,149a0.5,0.5,0,0,1-.25-0.93,21.25,21.25,0,0,1,10-2.36,0.5,0.5,0,0,1,0,1,20.65,20.65,0,0,0-9.49,2.23A0.5,0.5,0,0,1,265.18,149Z"/><path class="cls-3" d="M242.88,135.68s-11.34-8.9-14.05-18.55c-4.11-14.58-1.69-20,4.78-14.75,0,0-3.44-7.73-.28-15.39s15.46,1.69,15.46,1.69S261.43,82.5,269.72,84a13.82,13.82,0,0,1,10.61,8.64s8.78,2.32,10.4,9.06-2.47,27.46-2.47,27.46l-7-14.18s-5.41-1-9.55-11.19c0,0-7.61,10.37-27.21,8.4,0,0,2.39,8.69-2.17,11.66Z"/><path class="cls-4" d="M281.84,115.76a44.84,44.84,0,0,0-16.34,4.8,4,4,0,0,0-2,3.07,3.42,3.42,0,0,0-1.86.55,4,4,0,0,0-3.34-1.5A44.84,44.84,0,0,0,242,127.5h0a3.94,3.94,0,0,0-1.9,4.94c2.27,5.92,4.24,9.5,5.88,10.65,1.29,0.9,4.41.46,7.63-.49,3.78-1.11,7.7-2.92,9-4,0.63-.54,2.06-1.82.05-11.86a0.85,0.85,0,0,1,.62-0.55,0.83,0.83,0,0,1,.83.14c3.75,9.52,5.65,9.82,6.47,9.93,1.68,0.24,6-.37,9.73-1.49,3.22-.95,6.08-2.26,6.68-3.72,0.75-1.85.47-5.94-.84-12.14A3.94,3.94,0,0,0,281.84,115.76Z"/><path class="cls-3" d="M260.94,136.68c-2.29,2-12,5.11-13.55,4.37-0.89-.63-2.67-3.45-5-9.5a1.45,1.45,0,0,1,.7-1.82,42.27,42.27,0,0,1,15.37-4.57,1.48,1.48,0,0,1,1.53,1.17C261.5,133.47,261.25,136.25,260.94,136.68Z"/><path class="cls-3" d="M268.51,141.11h0c-1.57,0-5.24-.31-5.41-1.91-0.14-1.34-.27-8.2-0.28-8.5a0.5,0.5,0,0,1,.49-0.51h0a0.5,0.5,0,0,1,.5.49c0,0.07.13,7.11,0.27,8.41,0,0.41,2,1,4.44,1A0.5,0.5,0,0,1,268.51,141.11Z"/><path class="cls-3" d="M284.65,130.05c-0.87,1.46-10.77,4.13-13.72,3.71-0.54-.21-2.26-2.4-4.88-9.22a1.48,1.48,0,0,1,.66-1.81,34.25,34.25,0,0,1,6.93-2.84,48.63,48.63,0,0,1,8.46-1.66,1.45,1.45,0,0,1,1.58,1.15C285,125.73,285,129.06,284.65,130.05Z"/><path class="cls-4" d="M386.63,106.22H371.21V80.84a3.6,3.6,0,0,0-3.6-3.6h-0.25a3.6,3.6,0,0,0-3.6,3.6v36a1.38,1.38,0,0,1-1.37,1.37,1.4,1.4,0,0,1-1-.41l-8.33-8.33a3.61,3.61,0,0,0-5.27.18,3.72,3.72,0,0,0,.29,5l17.43,17.43a5.33,5.33,0,0,0,3.77,1.56h18.46a5.33,5.33,0,0,0,5.33-5.33V112.67A6.45,6.45,0,0,0,386.63,106.22Z"/><rect class="cls-4" x="367.09" y="136.61" width="26.3" height="10.35" rx="1.9" ry="1.9"/><path class="cls-5" d="M360.53,102.81a25.71,25.71,0,1,1,22.8-4.5,3.09,3.09,0,0,0,3.81,4.88,31.92,31.92,0,1,0-28.27,5.58,3.09,3.09,0,0,0,1.67-6h0Z"/><path class="cls-5" d="M377.16,90.68a15.88,15.88,0,1,0-19.34,0,3.09,3.09,0,0,0,3.77-4.91,9.69,9.69,0,1,1,11.8,0,3.09,3.09,0,1,0,3.77,4.91h0Z"/><path class="cls-5" d="M169.28,86.2l18.47,10.67v42.51l-36.82,21.26-36.82-21.26V96.86l38.22-22.07a2.81,2.81,0,0,0-2.81-4.87L109.9,92.81a2.81,2.81,0,0,0-1.41,2.43V141a2.81,2.81,0,0,0,1.41,2.43l39.63,22.88a2.81,2.81,0,0,0,2.81,0L192,143.43a2.81,2.81,0,0,0,1.41-2.43V95.24A2.81,2.81,0,0,0,192,92.81L172.09,81.33a2.81,2.81,0,1,0-2.81,4.87h0Z"/><path class="cls-5" d="M156.35,74l4.18-2.41a1.13,1.13,0,0,1,1.13,0L165.85,74a1.13,1.13,0,0,1,.57,1v4.83a1.13,1.13,0,0,1-.57,1l-4.18,2.41a1.13,1.13,0,0,1-1.13,0l-4.18-2.41a1.13,1.13,0,0,1-.57-1V75A1.13,1.13,0,0,1,156.35,74Z"/><path class="cls-5" d="M165.87,52.39l7.41-4.28a1.13,1.13,0,0,1,1.13,0l7.41,4.28a1.13,1.13,0,0,1,.57,1v8.56a1.13,1.13,0,0,1-.57,1l-7.41,4.28a1.13,1.13,0,0,1-1.13,0l-7.41-4.28a1.13,1.13,0,0,1-.57-1V53.38A1.13,1.13,0,0,1,165.87,52.39Z"/><path class="cls-5" d="M143.06,126.33V99.83A7.87,7.87,0,0,1,150.94,92h0a7.87,7.87,0,0,1,7.87,7.87v26.5h5.08V99.83a13,13,0,0,0-13-13h0a13,13,0,0,0-13,13v26.5h5.08Z"/><rect class="cls-4" x="132.14" y="114.98" width="37.59" height="27.26" rx="3.25" ry="3.25"/><path class="cls-3" d="M152.93,127.88l0.67,9.41h-5.33l0.67-9.42a3.06,3.06,0,0,1-1.1-2.35A3.09,3.09,0,1,1,152.93,127.88Z"/><circle class="cls-4" cx="95.54" cy="72.35" r="7.14"/><circle class="cls-5" cx="87.98" cy="94.39" r="3.55"/><circle class="cls-4" cx="423.63" cy="118.87" r="7.14"/><circle class="cls-5" cx="416.07" cy="140.91" r="3.55"/><circle class="cls-5" cx="255.51" cy="40.82" r="3.55"/><circle class="cls-4" cx="64.36" cy="292.87" r="7.41"/><circle class="cls-5" cx="72.06" cy="267.46" r="2.49"/><circle class="cls-5" cx="416.98" cy="319" r="2.49"/><path class="cls-3" d="M80.9,162a0.5,0.5,0,0,1-.5-0.5v-3.15a0.5,0.5,0,0,1,1,0v3.15A0.5,0.5,0,0,1,80.9,162Z"/><path class="cls-3" d="M87.2,165.14H84a0.5,0.5,0,0,1,0-1H87.2A0.5,0.5,0,0,1,87.2,165.14Z"/><path class="cls-3" d="M80.9,171.43a0.5,0.5,0,0,1-.5-0.5v-3.15a0.5,0.5,0,0,1,1,0v3.15A0.5,0.5,0,0,1,80.9,171.43Z"/><path class="cls-3" d="M77.77,165.14H74.61a0.5,0.5,0,0,1,0-1h3.15A0.5,0.5,0,0,1,77.77,165.14Z"/><path class="cls-3" d="M429.21,251a0.5,0.5,0,0,1-.5-0.5v-3.15a0.5,0.5,0,1,1,1,0v3.15A0.5,0.5,0,0,1,429.21,251Z"/><path class="cls-3" d="M435.5,254.12h-3.15a0.5,0.5,0,0,1,0-1h3.15A0.5,0.5,0,0,1,435.5,254.12Z"/><path class="cls-3" d="M429.21,260.41a0.5,0.5,0,0,1-.5-0.5v-3.15a0.5,0.5,0,0,1,1,0v3.15A0.5,0.5,0,0,1,429.21,260.41Z"/><path class="cls-3" d="M426.07,254.12h-3.15a0.5,0.5,0,0,1,0-1h3.15A0.5,0.5,0,0,1,426.07,254.12Z"/><path class="cls-3" d="M389.66,341.67a0.5,0.5,0,0,1-.5-0.5V338a0.5,0.5,0,0,1,1,0v3.15A0.5,0.5,0,0,1,389.66,341.67Z"/><path class="cls-3" d="M395.95,344.8h-3.15a0.5,0.5,0,0,1,0-1h3.15A0.5,0.5,0,0,1,395.95,344.8Z"/><path class="cls-3" d="M389.66,351.09a0.5,0.5,0,0,1-.5-0.5v-3.15a0.5,0.5,0,1,1,1,0v3.15A0.5,0.5,0,0,1,389.66,351.09Z"/><path class="cls-3" d="M386.52,344.8h-3.15a0.5,0.5,0,0,1,0-1h3.15A0.5,0.5,0,0,1,386.52,344.8Z"/><path class="cls-3" d="M100.44,440.21a0.5,0.5,0,0,1-.5-0.5v-4.08a0.5,0.5,0,1,1,1,0v4.08A0.5,0.5,0,0,1,100.44,440.21Z"/><path class="cls-3" d="M108.59,444.27H104.5a0.5,0.5,0,1,1,0-1h4.08A0.5,0.5,0,0,1,108.59,444.27Z"/><path class="cls-3" d="M100.44,452.41a0.5,0.5,0,0,1-.5-0.5v-4.08a0.5,0.5,0,1,1,1,0v4.08A0.5,0.5,0,0,1,100.44,452.41Z"/><path class="cls-3" d="M96.38,444.27H92.3a0.5,0.5,0,1,1,0-1h4.08A0.5,0.5,0,1,1,96.38,444.27Z"/><path class="cls-5" d="M384,195.26l11.54-6.66a1.77,1.77,0,0,1,1.77,0l11.54,6.66a1.77,1.77,0,0,1,.88,1.53v13.33a1.77,1.77,0,0,1-.88,1.53l-11.54,6.66a1.77,1.77,0,0,1-1.77,0L384,211.65a1.77,1.77,0,0,1-.88-1.53V196.79A1.77,1.77,0,0,1,384,195.26Z"/><path class="cls-5" d="M402.82,224.87l4.35-2.51a0.67,0.67,0,0,1,.67,0l4.35,2.51a0.67,0.67,0,0,1,.33.58v5a0.67,0.67,0,0,1-.33.58l-4.35,2.51a0.67,0.67,0,0,1-.67,0L402.82,231a0.67,0.67,0,0,1-.33-0.58v-5A0.67,0.67,0,0,1,402.82,224.87Z"/><path class="cls-3" d="M305.6,458.13H131.41a0.5,0.5,0,0,1,0-1H305.6A0.5,0.5,0,0,1,305.6,458.13Z"/><path class="cls-3" d="M441.74,458.13H319.41a0.5,0.5,0,0,1,0-1H441.74A0.5,0.5,0,0,1,441.74,458.13Z"/><path class="cls-3" d="M356.08,469.17H241.46a0.5,0.5,0,1,1,0-1H356.08A0.5,0.5,0,1,1,356.08,469.17Z"/><path class="cls-3" d="M208.41,469.17H195.78a0.5,0.5,0,1,1,0-1h12.63A0.5,0.5,0,0,1,208.41,469.17Z"/><path class="cls-3" d="M374.27,469.33a0.5,0.5,0,0,1,0-1l12.62-.33a0.48,0.48,0,0,1,.51.49,0.5,0.5,0,0,1-.49.51l-12.62.33h0Z"/></svg>